sahl-bold.sfdir
StartChar: uni0600
Encoding: 1536 1536 541
Width: 1597
GlyphClass: 2
Flags: W
LayerCount: 2
Fore
SplineSet
1536 -150 m 1,0,1
 1527 -203 1527 -203 1491.5 -299 c 128,-1,2
 1456 -395 1456 -395 1436 -426 c 1,3,4
 1358 -444 1358 -444 1153.5 -457.5 c 128,-1,5
 949 -471 949 -471 788 -471 c 0,6,7
 434 -471 434 -471 195 -426 c 0,8,9
 124 -412 124 -412 83.5 -350 c 128,-1,10
 43 -288 43 -288 43 -193 c 1,11,-1
 45 -152 l 1,12,13
 457 -195 457 -195 928 -195 c 1,14,15
 928 -131 928 -131 945 -65.5 c 128,-1,16
 962 0 962 0 994 54.5 c 128,-1,17
 1026 109 1026 109 1078.5 152.5 c 128,-1,18
 1131 196 1131 196 1217 254.5 c 128,-1,19
 1303 313 1303 313 1370 346 c 1,20,21
 1410 297 1410 297 1410 211 c 0,22,23
 1410 152 1410 152 1387.5 99 c 128,-1,24
 1365 46 1365 46 1320 18.5 c 128,-1,25
 1275 -9 1275 -9 1148 -68 c 0,26,27
 1057 -111 1057 -111 1057 -135 c 0,28,29
 1057 -188 1057 -188 1184 -188 c 0,30,31
 1363 -188 1363 -188 1536 -150 c 1,0,1
EndSplineSet
EndChar
StartChar: uni0601
Encoding: 1537 1537 542
Width: 4016
GlyphClass: 2
Flags: W
LayerCount: 2
Fore
SplineSet
3623 -492 m 1,0,1
 3686 -429 3686 -429 3726 -374.5 c 128,-1,2
 3766 -320 3766 -320 3766 -295 c 0,3,4
 3766 -285 3766 -285 3756 -285 c 0,5,6
 3733 -285 3733 -285 3676 -303 c 0,7,8
 3587 -331 3587 -331 3383 -386 c 128,-1,9
 3179 -441 3179 -441 2958.5 -488 c 128,-1,10
 2738 -535 2738 -535 2527.5 -559.5 c 128,-1,11
 2317 -584 2317 -584 2142 -584 c 0,12,13
 1877 -584 1877 -584 1658.5 -547 c 128,-1,14
 1440 -510 1440 -510 1237 -424 c 0,15,16
 1207 -412 1207 -412 1194 -412 c 0,17,18
 1183 -412 1183 -412 1150 -461 c 2,19,-1
 1119 -507 l 2,20,21
 1054 -602 1054 -602 987 -602 c 0,22,23
 894 -602 894 -602 806 -468 c 0,24,25
 758 -395 758 -395 729.5 -364.5 c 128,-1,26
 701 -334 701 -334 678 -334 c 0,27,28
 624 -334 624 -334 569 -389.5 c 128,-1,29
 514 -445 514 -445 456 -551 c 0,30,31
 391 -669 391 -669 347.5 -718.5 c 128,-1,32
 304 -768 304 -768 264 -768 c 0,33,34
 170 -768 170 -768 113.5 -682.5 c 128,-1,35
 57 -597 57 -597 57 -451 c 0,36,37
 57 -385 57 -385 79 -303 c 128,-1,38
 101 -221 101 -221 158 -102 c 1,39,-1
 266 -158 l 1,40,41
 203 -275 203 -275 203 -381 c 0,42,43
 203 -426 203 -426 219 -453.5 c 128,-1,44
 235 -481 235 -481 260 -481 c 0,45,46
 292 -481 292 -481 327.5 -438.5 c 128,-1,47
 363 -396 363 -396 443 -264 c 1,48,49
 572 -47 572 -47 707 -47 c 0,50,51
 744 -47 744 -47 777 -79.5 c 128,-1,52
 810 -112 810 -112 849 -181 c 0,53,54
 886 -246 886 -246 928.5 -280.5 c 128,-1,55
 971 -315 971 -315 1024 -315 c 0,56,57
 1086 -315 1086 -315 1136 -219 c 0,58,59
 1164 -164 1164 -164 1178.5 -143.5 c 128,-1,60
 1193 -123 1193 -123 1206 -123 c 0,61,62
 1217 -123 1217 -123 1246 -136 c 0,63,64
 1319 -170 1319 -170 1449.5 -209.5 c 128,-1,65
 1580 -249 1580 -249 1772 -273 c 128,-1,66
 1964 -297 1964 -297 2183 -297 c 0,67,68
 2756 -297 2756 -297 3512 -92 c 0,69,70
 3721 -35 3721 -35 3785 -35 c 0,71,72
 3842 -35 3842 -35 3878 -74 c 128,-1,73
 3914 -113 3914 -113 3914 -170 c 0,74,75
 3914 -383 3914 -383 3715 -573 c 1,76,-1
 3623 -492 l 1,0,1
EndSplineSet
EndChar
StartChar: uni0602
Encoding: 1538 1538 543
Width: 1642
GlyphClass: 2
Flags: W
LayerCount: 2
Fore
SplineSet
694 -29 m 0,0,1
 694 -112 694 -112 649 -193 c 1,2,3
 950 -189 950 -189 1167.5 -173.5 c 128,-1,4
 1385 -158 1385 -158 1618 -127 c 1,5,6
 1627 -176 1627 -176 1627 -215 c 0,7,8
 1627 -376 1627 -376 1491 -408 c 0,9,10
 1388 -432 1388 -432 1073 -450.5 c 128,-1,11
 758 -469 758 -469 510 -469 c 0,12,13
 307 -469 307 -469 200.5 -378.5 c 128,-1,14
 94 -288 94 -288 94 -119 c 0,15,16
 94 42 94 42 192.5 147 c 128,-1,17
 291 252 291 252 442 252 c 0,18,19
 547 252 547 252 620.5 173.5 c 128,-1,20
 694 95 694 95 694 -29 c 0,0,1
223 -84 m 0,21,22
 223 -136 223 -136 287.5 -162.5 c 128,-1,23
 352 -189 352 -189 522 -193 c 1,24,25
 539 -149 539 -149 539 -111 c 0,26,27
 539 -44 539 -44 503 -7.5 c 128,-1,28
 467 29 467 29 406 29 c 0,29,30
 327 29 327 29 275 -2 c 128,-1,31
 223 -33 223 -33 223 -84 c 0,21,22
EndSplineSet
EndChar
StartChar: uni0603
Encoding: 1539 1539 544
Width: 1901
GlyphClass: 2
Flags: W
LayerCount: 2
Fore
SplineSet
618 -461 m 0,0,1
 484 -461 484 -461 393.5 -451.5 c 128,-1,2
 303 -442 303 -442 193 -420 c 1,3,4
 122 -404 122 -404 80.5 -349 c 128,-1,5
 39 -294 39 -294 39 -213 c 0,6,7
 39 -177 39 -177 49 -135 c 1,8,9
 271 -173 271 -173 383.5 -184 c 128,-1,10
 496 -195 496 -195 618 -195 c 0,11,12
 753 -195 753 -195 809 -166.5 c 128,-1,13
 865 -138 865 -138 918 -57 c 1,14,-1
 944 -20 l 2,15,16
 990 44 990 44 1056 44 c 0,17,18
 1093 44 1093 44 1128 20 c 1,19,-1
 1057 -152 l 1,20,21
 1120 -174 1120 -174 1169 -184 c 1,22,23
 1304 38 1304 38 1405.5 139 c 128,-1,24
 1507 240 1507 240 1589 240 c 0,25,26
 1667 240 1667 240 1731 195 c 128,-1,27
 1795 150 1795 150 1832.5 74.5 c 128,-1,28
 1870 -1 1870 -1 1870 -76 c 0,29,30
 1870 -188 1870 -188 1808 -283.5 c 128,-1,31
 1746 -379 1746 -379 1643.5 -434 c 128,-1,32
 1541 -489 1541 -489 1427 -489 c 0,33,34
 1287 -489 1287 -489 1159 -457 c 1,35,-1
 1104 -545 l 1,36,-1
 999 -479 l 1,37,-1
 1034 -416 l 1,38,39
 959 -388 959 -388 926 -371 c 1,40,-1
 924 -373 l 2,41,42
 886 -411 886 -411 801 -436 c 128,-1,43
 716 -461 716 -461 618 -461 c 0,0,1
1581 -20 m 0,44,45
 1469 -20 1469 -20 1325 -207 c 1,46,47
 1383 -213 1383 -213 1432 -213 c 0,48,49
 1615 -213 1615 -213 1747 -111 c 1,50,51
 1701 -66 1701 -66 1663.5 -43 c 128,-1,52
 1626 -20 1626 -20 1581 -20 c 0,44,45
EndSplineSet
EndChar
StartChar: uni060D
Encoding: 1549 1549 737
Width: 723
GlyphClass: 2
Flags: W
LayerCount: 2
Fore
SplineSet
561 168 m 1,0,1
 416 25 416 25 324.5 -119 c 128,-1,2
 233 -263 233 -263 180 -426 c 1,3,4
 70 -395 70 -395 70 -276 c 0,5,6
 70 -205 70 -205 117.5 -92.5 c 128,-1,7
 165 20 165 20 260.5 149 c 128,-1,8
 356 278 356 278 487 416 c 1,9,-1
 561 168 l 1,0,1
EndSplineSet
EndChar
StartChar: uni060E
Encoding: 1550 1550 545
Width: 2058
GlyphClass: 2
Flags: W
LayerCount: 2
Fore
SplineSet
944 348 m 0,0,1
 944 308 944 308 932 236 c 1,2,3
 1154 241 1154 241 1382 272 c 128,-1,4
 1610 303 1610 303 1762 356 c 128,-1,5
 1914 409 1914 409 1968 477 c 1,6,-1
 2058 399 l 1,7,8
 1964 224 1964 224 1879 156 c 128,-1,9
 1794 88 1794 88 1654 44.5 c 128,-1,10
 1514 1 1514 1 1313.5 -20 c 128,-1,11
 1113 -41 1113 -41 823 -41 c 0,12,13
 454 -41 454 -41 302 41 c 128,-1,14
 150 123 150 123 150 315 c 0,15,16
 150 424 150 424 206.5 530 c 128,-1,17
 263 636 263 636 373 704 c 128,-1,18
 483 772 483 772 608 772 c 0,19,20
 710 772 710 772 786 716 c 128,-1,21
 862 660 862 660 903 562.5 c 128,-1,22
 944 465 944 465 944 348 c 0,0,1
279 352 m 0,23,24
 279 289 279 289 387 262.5 c 128,-1,25
 495 236 495 236 801 236 c 1,26,-1
 803 266 l 1,27,28
 803 368 803 368 739.5 428.5 c 128,-1,29
 676 489 676 489 571 489 c 0,30,31
 495 489 495 489 426.5 469 c 128,-1,32
 358 449 358 449 318.5 417 c 128,-1,33
 279 385 279 385 279 352 c 0,23,24
EndSplineSet
EndChar
StartChar: uni0610
Encoding: 1552 1552 547
Width: 0
GlyphClass: 4
Flags: W
AnchorPoint: "Anchor-4" 160 1560 basemark 0
AnchorPoint: "Anchor-4" 200 1060 mark 0
AnchorPoint: "Anchor-2" 200 1060 mark 0
AnchorPoint: "Anchor-0" 200 1060 mark 0
LayerCount: 2
Fore
SplineSet
-27 1430 m 1,0,1
 9 1325 9 1325 29 1286 c 1,2,3
 159 1503 159 1503 293 1503 c 0,4,5
 352 1503 352 1503 400.5 1453.5 c 128,-1,6
 449 1404 449 1404 449 1352 c 0,7,8
 449 1235 449 1235 369 1164.5 c 128,-1,9
 289 1094 289 1094 156 1094 c 0,10,11
 96 1094 96 1094 53 1104 c 1,12,13
 53 1003 53 1003 25.5 962 c 128,-1,14
 -2 921 -2 921 -55 918 c 1,15,16
 -43 1001 -43 1001 -43 1063 c 0,17,18
 -43 1155 -43 1155 -100 1290 c 1,19,20
 -83 1340 -83 1340 -68 1368.5 c 128,-1,21
 -53 1397 -53 1397 -27 1430 c 1,0,1
264 1372 m 0,22,23
 159 1372 159 1372 74 1225 c 1,24,25
 107 1214 107 1214 158 1214 c 0,26,27
 320 1214 320 1214 373 1292 c 1,28,29
 362 1330 362 1330 332 1351 c 128,-1,30
 302 1372 302 1372 264 1372 c 0,22,23
EndSplineSet
EndChar
StartChar: uni0611
Encoding: 1553 1553 548
Width: 0
GlyphClass: 4
Flags: W
AnchorPoint: "Anchor-4" 160 1560 basemark 0
AnchorPoint: "Anchor-4" 200 1080 mark 0
AnchorPoint: "Anchor-2" 200 1080 mark 0
AnchorPoint: "Anchor-0" 200 1080 mark 0
LayerCount: 2
Fore
SplineSet
129 1087 m 0,0,1
 94 1087 94 1087 47 1094 c 1,2,3
 47 1002 47 1002 19.5 962 c 128,-1,4
 -8 922 -8 922 -63 918 c 1,5,-1
 -55 1011 l 1,6,-1
 -53 1063 l 1,7,8
 -53 1156 -53 1156 -113 1292 c 1,9,10
 -107 1306 -107 1306 -101.5 1320 c 128,-1,11
 -96 1334 -96 1334 -87.5 1350 c 128,-1,12
 -79 1366 -79 1366 -67.5 1384.5 c 128,-1,13
 -56 1403 -56 1403 -39 1427 c 1,14,-1
 -19 1379 l 2,15,16
 20 1284 20 1284 27 1272 c 1,17,18
 55 1210 55 1210 111 1206 c 1,19,20
 82 1244 82 1244 82 1288 c 0,21,22
 82 1333 82 1333 107.5 1384.5 c 128,-1,23
 133 1436 133 1436 172.5 1467.5 c 128,-1,24
 212 1499 212 1499 254 1499 c 0,25,26
 288 1499 288 1499 322.5 1481 c 128,-1,27
 357 1463 357 1463 414 1415 c 1,28,-1
 377 1364 l 1,29,30
 309 1391 309 1391 270 1391 c 0,31,32
 230 1391 230 1391 170 1362 c 1,33,34
 172 1319 172 1319 193 1288 c 128,-1,35
 214 1257 214 1257 268 1241 c 1,36,-1
 297 1235 l 1,37,38
 391 1260 391 1260 457 1292 c 1,39,40
 466 1269 466 1269 466 1248 c 0,41,42
 466 1202 466 1202 436 1171.5 c 128,-1,43
 406 1141 406 1141 309.5 1114 c 128,-1,44
 213 1087 213 1087 129 1087 c 0,0,1
EndSplineSet
EndChar
StartChar: uni0612
Encoding: 1554 1554 549
Width: 0
GlyphClass: 4
Flags: W
AnchorPoint: "Anchor-4" 80 1640 basemark 0
AnchorPoint: "Anchor-4" 100 1010 mark 0
AnchorPoint: "Anchor-2" 100 1010 mark 0
AnchorPoint: "Anchor-0" 100 1010 mark 0
LayerCount: 2
Fore
SplineSet
-201 1008 m 1,0,1
 -201 1122 -201 1122 -145.5 1209 c 128,-1,2
 -90 1296 -90 1296 4 1346 c 1,3,4
 -60 1368 -60 1368 -98 1368 c 0,5,6
 -164 1368 -164 1368 -205 1321 c 1,7,8
 -222 1332 -222 1332 -232 1349.5 c 128,-1,9
 -242 1367 -242 1367 -242 1384 c 0,10,11
 -242 1431 -242 1431 -203 1459 c 128,-1,12
 -164 1487 -164 1487 -100 1487 c 0,13,14
 -27 1487 -27 1487 63 1454 c 0,15,16
 104 1440 104 1440 144 1428.5 c 128,-1,17
 184 1417 184 1417 227 1417 c 0,18,19
 276 1417 276 1417 326 1425 c 1,20,-1
 272 1303 l 1,21,22
 234 1296 234 1296 197 1296 c 1,23,24
 109 1279 109 1279 33 1237 c 128,-1,25
 -43 1195 -43 1195 -88.5 1135 c 128,-1,26
 -134 1075 -134 1075 -135 1008 c 1,27,-1
 -201 1008 l 1,0,1
250 997 m 0,28,29
 224 997 224 997 171 1023 c 128,-1,30
 118 1049 118 1049 78 1081 c 1,31,-1
 100 1137 l 1,32,-1
 119 1135 l 1,33,34
 209 1116 209 1116 225 1116 c 0,35,36
 300 1116 300 1116 348.5 1159.5 c 128,-1,37
 397 1203 397 1203 420 1274 c 1,38,-1
 391 1330 l 1,39,40
 322 1453 322 1453 322 1503 c 0,41,42
 322 1538 322 1538 344.5 1560.5 c 128,-1,43
 367 1583 367 1583 414 1602 c 1,44,-1
 449 1491 l 2,45,46
 464 1446 464 1446 480 1397.5 c 128,-1,47
 496 1349 496 1349 496 1307 c 0,48,49
 496 1179 496 1179 426 1088 c 128,-1,50
 356 997 356 997 250 997 c 0,28,29
EndSplineSet
EndChar
StartChar: uni0613
Encoding: 1555 1555 550
Width: 0
GlyphClass: 4
Flags: W
AnchorPoint: "Anchor-4" 120 1700 basemark 0
AnchorPoint: "Anchor-4" 140 920 mark 0
AnchorPoint: "Anchor-2" 140 920 mark 0
AnchorPoint: "Anchor-0" 140 920 mark 0
LayerCount: 2
Fore
SplineSet
-84 1604 m 1,0,1
 -40 1576 -40 1576 20 1516 c 1,2,3
 -9 1477 -9 1477 -25.5 1455 c 128,-1,4
 -42 1433 -42 1433 -61 1421 c 1,5,6
 -91 1455 -91 1455 -160 1509 c 1,7,-1
 -139 1534 l 1,8,9
 -107 1581 -107 1581 -84 1604 c 1,0,1
313 913 m 0,10,11
 286 913 286 913 229 941.5 c 128,-1,12
 172 970 172 970 139 999 c 1,13,-1
 164 1055 l 1,14,15
 256 1034 256 1034 287 1034 c 0,16,17
 361 1034 361 1034 410.5 1077.5 c 128,-1,18
 460 1121 460 1121 481 1190 c 1,19,-1
 453 1245 l 1,20,21
 383 1366 383 1366 383 1421 c 0,22,23
 383 1455 383 1455 406.5 1476.5 c 128,-1,24
 430 1498 430 1498 475 1518 c 1,25,26
 487 1467 487 1467 527 1361 c 0,27,28
 559 1276 559 1276 559 1225 c 0,29,30
 559 1093 559 1093 488.5 1003 c 128,-1,31
 418 913 418 913 313 913 c 0,10,11
-92 1270 m 1,32,33
 37 1485 37 1485 170 1485 c 0,34,35
 228 1485 228 1485 277 1437 c 128,-1,36
 326 1389 326 1389 326 1335 c 0,37,38
 326 1218 326 1218 246 1147.5 c 128,-1,39
 166 1077 166 1077 33 1077 c 0,40,41
 -20 1077 -20 1077 -70 1087 c 1,42,43
 -70 993 -70 993 -90 950 c 1,44,45
 -122 905 -122 905 -178 901 c 1,46,47
 -168 994 -168 994 -168 1047 c 0,48,49
 -168 1149 -168 1149 -225 1274 c 1,50,51
 -203 1345 -203 1345 -152 1411 c 1,52,-1
 -92 1270 l 1,32,33
141 1354 m 0,53,54
 31 1354 31 1354 -49 1208 c 1,55,56
 -22 1196 -22 1196 35 1196 c 0,57,58
 114 1196 114 1196 168 1217 c 128,-1,59
 222 1238 222 1238 248 1274 c 1,60,61
 237 1314 237 1314 208.5 1334 c 128,-1,62
 180 1354 180 1354 141 1354 c 0,53,54
EndSplineSet
EndChar
StartChar: uni0614
Encoding: 1556 1556 551
Width: 0
GlyphClass: 4
Flags: W
AnchorPoint: "Anchor-4" 160 1560 basemark 0
AnchorPoint: "Anchor-4" 80 1080 mark 0
AnchorPoint: "Anchor-2" 80 1080 mark 0
AnchorPoint: "Anchor-0" 80 1080 mark 0
LayerCount: 2
Fore
SplineSet
578 1315 m 1,0,1
 482 1065 482 1065 348 1065 c 0,2,3
 266 1065 266 1065 213 1159 c 1,4,5
 153 1115 153 1115 74.5 1101 c 128,-1,6
 -4 1087 -4 1087 -102 1087 c 0,7,8
 -196 1087 -196 1087 -276 1097 c 128,-1,9
 -356 1107 -356 1107 -377.5 1129 c 128,-1,10
 -399 1151 -399 1151 -399 1184 c 1,11,-1
 -397 1208 l 1,12,-1
 -231 1204 l 1,13,14
 -168 1204 -168 1204 -72 1211 c 128,-1,15
 24 1218 24 1218 78.5 1229.5 c 128,-1,16
 133 1241 133 1241 170 1263.5 c 128,-1,17
 207 1286 207 1286 258 1350 c 1,18,-1
 309 1329 l 1,19,-1
 309 1296 l 2,20,21
 309 1262 309 1262 330.5 1235 c 128,-1,22
 352 1208 352 1208 381 1208 c 0,23,24
 443 1208 443 1208 528 1354 c 1,25,-1
 578 1315 l 1,0,1
EndSplineSet
EndChar
StartChar: uni0615
Encoding: 1557 1557 111
Width: 0
GlyphClass: 4
Flags: W
AnchorPoint: "Anchor-4" 60 1600 basemark 0
AnchorPoint: "Anchor-4" 100 700 mark 0
AnchorPoint: "Anchor-2" 100 700 mark 0
AnchorPoint: "Anchor-0" 100 700 mark 0
LayerCount: 2
Fore
SplineSet
-229 911 m 1,0,1
 -161 896 -161 896 -104 891 c 1,2,-1
 -41 975 l 1,3,-1
 -73 1107 l 1,4,5
 -124 1312 -124 1312 -124 1341 c 0,6,7
 -124 1387 -124 1387 -85.5 1419 c 128,-1,8
 -47 1451 -47 1451 23 1462 c 1,9,10
 52 1369 52 1369 72 1319 c 1,11,-1
 45 1298 l 1,12,-1
 48 1183 l 1,13,-1
 45 1067 l 1,14,15
 171 1182 171 1182 250 1182 c 0,16,17
 288 1182 288 1182 340 1146 c 128,-1,18
 392 1110 392 1110 437.5 1050 c 128,-1,19
 483 990 483 990 483 954 c 0,20,21
 483 884 483 884 429 821.5 c 128,-1,22
 375 759 375 759 292 722.5 c 128,-1,23
 209 686 209 686 135 686 c 0,24,25
 72 686 72 686 15 698.5 c 128,-1,26
 -42 711 -42 711 -95 733 c 128,-1,27
 -148 755 -148 755 -254 815 c 1,28,-1
 -229 911 l 1,0,1
233 1001 m 0,29,30
 184 1001 184 1001 125.5 968.5 c 128,-1,31
 67 936 67 936 10 879 c 1,32,33
 80 872 80 872 141 872 c 0,34,35
 261 872 261 872 381 918 c 1,36,37
 357 955 357 955 315 978 c 128,-1,38
 273 1001 273 1001 233 1001 c 0,29,30
EndSplineSet
EndChar
StartChar: uni061B
Encoding: 1563 1563 94
Width: 602
GlyphClass: 2
Flags: W
LayerCount: 2
Fore
SplineSet
143 123 m 256,0,1
 143 287 143 287 311 287 c 256,2,3
 479 287 479 287 479 123 c 0,4,5
 479 42 479 42 435 0.5 c 128,-1,6
 391 -41 391 -41 311 -41 c 0,7,8
 143 -41 143 -41 143 123 c 256,0,1
117 774 m 0,9,10
 117 921 117 921 209.5 1024 c 128,-1,11
 302 1127 302 1127 483 1176 c 1,12,-1
 483 1069 l 1,13,14
 378 1031 378 1031 340.5 995.5 c 128,-1,15
 303 960 303 960 303 909 c 0,16,17
 303 888 303 888 317 874 c 128,-1,18
 331 860 331 860 378 832 c 0,19,20
 453 786 453 786 453 690 c 0,21,22
 453 621 453 621 410.5 585 c 128,-1,23
 368 549 368 549 305 549 c 0,24,25
 218 549 218 549 167.5 609 c 128,-1,26
 117 669 117 669 117 774 c 0,9,10
EndSplineSet
EndChar
StartChar: uni061F
Encoding: 1567 1567 92
Width: 1126
GlyphClass: 2
Flags: W
LayerCount: 2
Fore
SplineSet
76 1106 m 0,0,1
 76 1277 76 1277 214.5 1380 c 128,-1,2
 353 1483 353 1483 578 1483 c 0,3,4
 783 1483 783 1483 898.5 1419.5 c 128,-1,5
 1014 1356 1014 1356 1014 1245 c 0,6,7
 1014 1176 1014 1176 935 1139 c 128,-1,8
 856 1102 856 1102 725 1102 c 1,9,10
 725 1228 725 1228 682.5 1294 c 128,-1,11
 640 1360 640 1360 561 1360 c 256,12,13
 482 1360 482 1360 441.5 1303 c 128,-1,14
 401 1246 401 1246 401 1139 c 0,15,16
 401 982 401 982 473 880 c 128,-1,17
 545 778 545 778 690 719 c 1,18,-1
 649 467 l 1,19,-1
 524 467 l 1,20,-1
 483 653 l 1,21,22
 261 744 261 744 168.5 849.5 c 128,-1,23
 76 955 76 955 76 1106 c 0,0,1
758 147 m 0,24,25
 758 -16 758 -16 590 -16 c 0,26,27
 509 -16 509 -16 465.5 26 c 128,-1,28
 422 68 422 68 422 147 c 0,29,30
 422 311 422 311 590 311 c 256,31,32
 758 311 758 311 758 147 c 0,24,25
EndSplineSet
EndChar
StartChar: uni0621
Encoding: 1569 1569 4
AltUni2: 00fe80.ffffffff.0
Width: 1300
GlyphClass: 2
Flags: W
AnchorPoint: "Anchor-1" 720 -140 basechar 0
AnchorPoint: "Anchor-0" 650 1060 basechar 0
LayerCount: 2
Fore
SplineSet
164 0 m 1,0,1
 260 46 260 46 373 90 c 1,2,3
 272 191 272 191 272 319 c 0,4,5
 272 438 272 438 339.5 570.5 c 128,-1,6
 407 703 407 703 509.5 781.5 c 128,-1,7
 612 860 612 860 717 860 c 0,8,9
 834 860 834 860 910.5 788.5 c 128,-1,10
 987 717 987 717 987 602 c 0,11,12
 987 557 987 557 971.5 511 c 128,-1,13
 956 465 956 465 930 438 c 1,14,15
 854 467 854 467 821 483 c 1,16,-1
 834 551 l 1,17,18
 773 573 773 573 719 573 c 0,19,20
 647 573 647 573 565 529 c 128,-1,21
 483 485 483 485 406 385 c 1,22,23
 439 304 439 304 504 261.5 c 128,-1,24
 569 219 569 219 698 203 c 1,25,26
 952 275 952 275 1184 305 c 1,27,28
 1238 246 1238 246 1238 168 c 0,29,30
 1238 105 1238 105 1196 59.5 c 128,-1,31
 1154 14 1154 14 1071 6 c 1,32,-1
 914 -7 l 2,33,34
 662 -28 662 -28 542.5 -48 c 128,-1,35
 423 -68 423 -68 205 -119 c 1,36,-1
 164 0 l 1,0,1
EndSplineSet
EndChar
StartChar: uni0627
Encoding: 1575 1575 5
AltUni2: 00fe8d.ffffffff.0
Width: 684
GlyphClass: 2
Flags: W
AnchorPoint: "Anchor-1" 360 -140 basechar 0
AnchorPoint: "Anchor-0" 300 1680 basechar 0
LayerCount: 2
Fore
SplineSet
459 1237 m 1,0,-1
 459 979 l 1,1,-1
 457 782 l 1,2,-1
 446 0 l 1,3,-1
 291 -20 l 1,4,5
 277 217 277 217 248 569 c 1,6,-1
 185 1389 l 1,7,8
 185 1450 185 1450 218 1496.5 c 128,-1,9
 251 1543 251 1543 312.5 1570 c 128,-1,10
 374 1597 374 1597 444 1597 c 1,11,12
 486 1445 486 1445 541 1300 c 1,13,-1
 459 1237 l 1,0,-1
EndSplineSet
Substitution2: "'fina' Terminal Forms in Arabic lookup 3 subtable" uni0627.fina
EndChar
StartChar: uni062D
Encoding: 1581 1581 7
AltUni2: 00fea1.ffffffff.0
Width: 1579
GlyphClass: 2
Flags: W
AnchorPoint: "Anchor-1" 400 -750 basechar 0
AnchorPoint: "Anchor-0" 800 1200 basechar 0
LayerCount: 2
Fore
SplineSet
494 731 m 0,0,1
 446 731 446 731 409 724 c 128,-1,2
 372 717 372 717 339 703.5 c 128,-1,3
 306 690 306 690 219 637 c 1,4,5
 197 659 197 659 180.5 701 c 128,-1,6
 164 743 164 743 164 782 c 0,7,8
 164 894 164 894 251.5 956 c 128,-1,9
 339 1018 339 1018 485 1018 c 0,10,11
 564 1018 564 1018 649 998.5 c 128,-1,12
 734 979 734 979 871 929 c 0,13,14
 995 883 995 883 1093 861.5 c 128,-1,15
 1191 840 1191 840 1290 840 c 2,16,-1
 1338 840 l 2,17,18
 1457 840 1457 840 1509 844 c 1,19,-1
 1411 573 l 1,20,21
 1347 565 1347 565 1233 565 c 0,22,23
 1176 565 1176 565 1124 569 c 1,24,25
 939 533 939 533 760 436.5 c 128,-1,26
 581 340 581 340 479 214.5 c 128,-1,27
 377 89 377 89 377 -41 c 0,28,29
 377 -216 377 -216 526 -318 c 128,-1,30
 675 -420 675 -420 905 -420 c 0,31,32
 1032 -420 1032 -420 1162.5 -404 c 128,-1,33
 1293 -388 1293 -388 1485 -344 c 1,34,-1
 1518 -446 l 1,35,36
 1332 -551 1332 -551 1157.5 -623.5 c 128,-1,37
 983 -696 983 -696 899 -696 c 0,38,39
 582 -696 582 -696 418 -537.5 c 128,-1,40
 254 -379 254 -379 254 -68 c 0,41,42
 254 155 254 155 391.5 352 c 128,-1,43
 529 549 529 549 756 662 c 1,44,45
 680 689 680 689 616 710 c 128,-1,46
 552 731 552 731 494 731 c 0,0,1
EndSplineSet
Substitution2: "'medi' Medial Forms in Arabic lookup 5 subtable" uni062D.medi
Substitution2: "'init' Initial Forms in Arabic lookup 4 subtable" uni062D.init
Substitution2: "'fina' Terminal Forms in Arabic lookup 3 subtable" uni062D.fina
EndChar
StartChar: uni062F
Encoding: 1583 1583 11
AltUni2: 00fea9.ffffffff.0
Width: 1047
GlyphClass: 2
Flags: W
AnchorPoint: "Anchor-1" 450 -160 basechar 0
AnchorPoint: "Anchor-0" 350 1200 basechar 0
LayerCount: 2
Fore
SplineSet
406 -41 m 0,0,1
 82 -41 82 -41 82 147 c 0,2,3
 82 198 82 198 101 250 c 128,-1,4
 120 302 120 302 154 342 c 1,5,6
 213 292 213 292 290.5 269 c 128,-1,7
 368 246 368 246 481 246 c 0,8,9
 638 246 638 246 797 295 c 1,10,11
 736 409 736 409 668 509 c 0,12,13
 567 658 567 658 540.5 712.5 c 128,-1,14
 514 767 514 767 514 801 c 0,15,16
 514 854 514 854 541.5 902.5 c 128,-1,17
 569 951 569 951 617 989.5 c 128,-1,18
 665 1028 665 1028 715 1044 c 1,19,20
 747 930 747 930 787 827 c 128,-1,21
 827 724 827 724 862 632.5 c 128,-1,22
 897 541 897 541 920.5 462.5 c 128,-1,23
 944 384 944 384 944 319 c 0,24,25
 944 285 944 285 917 199 c 128,-1,26
 890 113 890 113 860 53 c 1,27,28
 774 8 774 8 651.5 -16.5 c 128,-1,29
 529 -41 529 -41 406 -41 c 0,0,1
EndSplineSet
Substitution2: "'fina' Terminal Forms in Arabic lookup 3 subtable" uni062F.fina
EndChar
StartChar: uni0631
Encoding: 1585 1585 12
AltUni2: 00fead.ffffffff.0
Width: 909
GlyphClass: 2
Flags: W
AnchorPoint: "Anchor-1" 360 -600 basechar 0
AnchorPoint: "Anchor-0" 400 1060 basechar 0
LayerCount: 2
Fore
SplineSet
246 -512 m 0,0,1
 201 -512 201 -512 106 -453.5 c 128,-1,2
 11 -395 11 -395 -82 -315 c 1,3,-1
 -43 -215 l 1,4,5
 86 -248 86 -248 201 -248 c 0,6,7
 378 -248 378 -248 502 -158.5 c 128,-1,8
 626 -69 626 -69 680 98 c 1,9,10
 659 142 659 142 640 174 c 128,-1,11
 621 206 621 206 549 318 c 0,12,13
 481 422 481 422 448.5 496.5 c 128,-1,14
 416 571 416 571 416 629 c 0,15,16
 416 699 416 699 473 768.5 c 128,-1,17
 530 838 530 838 618 881 c 1,18,19
 640 789 640 789 672 696 c 128,-1,20
 704 603 704 603 734 512.5 c 128,-1,21
 764 422 764 422 785.5 336.5 c 128,-1,22
 807 251 807 251 807 174 c 0,23,24
 807 -15 807 -15 734.5 -174 c 128,-1,25
 662 -333 662 -333 533.5 -422.5 c 128,-1,26
 405 -512 405 -512 246 -512 c 0,0,1
EndSplineSet
Substitution2: "'fina' Terminal Forms in Arabic lookup 3 subtable" uni0631.fina
EndChar
StartChar: uni0635
Encoding: 1589 1589 18
AltUni2: 00feb9.ffffffff.0
Width: 2726
GlyphClass: 2
Flags: W
AnchorPoint: "Anchor-1" 1800 -160 basechar 0
AnchorPoint: "Anchor-0" 1700 1060 basechar 0
LayerCount: 2
Fore
SplineSet
606 -696 m 0,0,1
 390 -696 390 -696 277 -569.5 c 128,-1,2
 164 -443 164 -443 164 -201 c 0,3,4
 164 -76 164 -76 223 147 c 1,5,-1
 330 121 l 1,6,7
 297 10 297 10 297 -70 c 0,8,9
 297 -243 297 -243 374 -326.5 c 128,-1,10
 451 -410 451 -410 612 -410 c 0,11,12
 809 -410 809 -410 943 -359 c 128,-1,13
 1077 -308 1077 -308 1196 -197 c 1,14,15
 1164 -127 1164 -127 1128 -61 c 128,-1,16
 1092 5 1092 5 1062 62 c 128,-1,17
 1032 119 1032 119 1012.5 165.5 c 128,-1,18
 993 212 993 212 993 244 c 0,19,20
 993 446 993 446 1237 561 c 1,21,22
 1250 462 1250 462 1276 307 c 1,23,-1
 1350 285 l 1,24,25
 1601 615 1601 615 1790 768.5 c 128,-1,26
 1979 922 1979 922 2116 922 c 0,27,28
 2200 922 2200 922 2312.5 852.5 c 128,-1,29
 2425 783 2425 783 2514 678 c 128,-1,30
 2603 573 2603 573 2603 502 c 0,31,32
 2603 346 2603 346 2504 225.5 c 128,-1,33
 2405 105 2405 105 2202.5 32 c 128,-1,34
 2000 -41 2000 -41 1786 -41 c 0,35,36
 1676 -41 1676 -41 1552 -26.5 c 128,-1,37
 1428 -12 1428 -12 1323 16 c 1,38,39
 1331 -69 1331 -69 1331 -106 c 0,40,41
 1331 -266 1331 -266 1235 -403 c 128,-1,42
 1139 -540 1139 -540 972.5 -618 c 128,-1,43
 806 -696 806 -696 606 -696 c 0,0,1
2056 639 m 0,44,45
 1848 639 1848 639 1511 248 c 1,46,47
 1659 225 1659 225 1810 225 c 0,48,49
 1971 225 1971 225 2116.5 260 c 128,-1,50
 2262 295 2262 295 2464 391 c 1,51,52
 2249 639 2249 639 2056 639 c 0,44,45
EndSplineSet
Substitution2: "'medi' Medial Forms in Arabic lookup 5 subtable" uni0635.medi
Substitution2: "'init' Initial Forms in Arabic lookup 4 subtable" uni0635.init
Substitution2: "'fina' Terminal Forms in Arabic lookup 3 subtable" uni0635.fina
EndChar
StartChar: uni0637
Encoding: 1591 1591 22
AltUni2: 00fec1.ffffffff.0
Width: 1909
GlyphClass: 2
Flags: W
AnchorPoint: "Anchor-1" 880 -160 basechar 0
AnchorPoint: "Anchor-0" 1040 1600 basechar 0
LayerCount: 2
Fore
SplineSet
969 -41 m 0,0,1
 832 -41 832 -41 656 -30.5 c 128,-1,2
 480 -20 480 -20 422 -2 c 1,3,4
 370 13 370 13 262.5 87.5 c 128,-1,5
 155 162 155 162 82 231 c 1,6,-1
 119 334 l 1,7,8
 378 273 378 273 512 256 c 1,9,10
 558 320 558 320 608 379 c 1,11,12
 530 716 530 716 420 1305 c 0,13,14
 415 1333 415 1333 415 1360 c 0,15,16
 415 1461 415 1461 485.5 1529 c 128,-1,17
 556 1597 556 1597 659 1597 c 1,18,19
 701 1445 701 1445 756 1300 c 1,20,-1
 680 1241 l 1,21,-1
 733 530 l 1,22,23
 913 733 913 733 1050.5 827.5 c 128,-1,24
 1188 922 1188 922 1298 922 c 0,25,26
 1381 922 1381 922 1494 853 c 128,-1,27
 1607 784 1607 784 1696.5 678.5 c 128,-1,28
 1786 573 1786 573 1786 502 c 0,29,30
 1786 346 1786 346 1687 225.5 c 128,-1,31
 1588 105 1588 105 1385.5 32 c 128,-1,32
 1183 -41 1183 -41 969 -41 c 0,0,1
1239 639 m 0,33,34
 1032 639 1032 639 684 236 c 1,35,36
 792 225 792 225 993 225 c 0,37,38
 1154 225 1154 225 1299.5 260 c 128,-1,39
 1445 295 1445 295 1647 391 c 1,40,41
 1432 639 1432 639 1239 639 c 0,33,34
EndSplineSet
Substitution2: "'medi' Medial Forms in Arabic lookup 5 subtable" uni0637.medi
Substitution2: "'init' Initial Forms in Arabic lookup 4 subtable" uni0637.init
Substitution2: "'fina' Terminal Forms in Arabic lookup 3 subtable" uni0637.fina
EndChar
StartChar: uni0639
Encoding: 1593 1593 26
AltUni2: 00fec9.ffffffff.0
Width: 1456
GlyphClass: 2
Flags: W
AnchorPoint: "Anchor-1" 340 -780 basechar 0
AnchorPoint: "Anchor-0" 480 1460 basechar 0
LayerCount: 2
Fore
SplineSet
920 -696 m 0,0,1
 603 -696 603 -696 438.5 -537.5 c 128,-1,2
 274 -379 274 -379 274 -68 c 0,3,4
 274 212 274 212 492 444 c 1,5,6
 395 470 395 470 320.5 525 c 128,-1,7
 246 580 246 580 205 654 c 128,-1,8
 164 728 164 728 164 799 c 0,9,10
 164 912 164 912 228 1041 c 128,-1,11
 292 1170 292 1170 382 1242.5 c 128,-1,12
 472 1315 472 1315 567 1315 c 0,13,14
 736 1315 736 1315 934 1092 c 1,15,-1
 883 995 l 1,16,17
 738 1051 738 1051 629 1051 c 0,18,19
 546 1051 546 1051 481.5 1033.5 c 128,-1,20
 417 1016 417 1016 336 973 c 1,21,22
 344 831 344 831 443 745 c 128,-1,23
 542 659 542 659 725 639 c 1,24,25
 918 763 918 763 1155 838 c 1,26,27
 1184 803 1184 803 1184 717 c 0,28,29
 1184 647 1184 647 1146 599.5 c 128,-1,30
 1108 552 1108 552 1025 516 c 0,31,32
 775 410 775 410 647 321 c 128,-1,33
 519 232 519 232 458 140.5 c 128,-1,34
 397 49 397 49 397 -41 c 0,35,36
 397 -216 397 -216 546.5 -318 c 128,-1,37
 696 -420 696 -420 926 -420 c 0,38,39
 1054 -420 1054 -420 1185 -403.5 c 128,-1,40
 1316 -387 1316 -387 1505 -344 c 1,41,-1
 1538 -446 l 1,42,43
 1378 -539 1378 -539 1193 -617.5 c 128,-1,44
 1008 -696 1008 -696 920 -696 c 0,0,1
EndSplineSet
Substitution2: "'medi' Medial Forms in Arabic lookup 5 subtable" uni0639.medi
Substitution2: "'init' Initial Forms in Arabic lookup 4 subtable" uni0639.init
Substitution2: "'fina' Terminal Forms in Arabic lookup 3 subtable" uni0639.fina
EndChar
StartChar: uni0643
Encoding: 1603 1603 32
AltUni2: 00fed9.ffffffff.0
Width: 1489
GlyphClass: 2
Flags: W
AnchorPoint: "Anchor-1" 600 -160 basechar 0
AnchorPoint: "Anchor-0" 500 1100 basechar 0
LayerCount: 2
Fore
SplineSet
637 -41 m 0,0,1
 461 -41 461 -41 271.5 -26 c 128,-1,2
 82 -11 82 -11 82 6 c 0,3,4
 82 71 82 71 100 158 c 128,-1,5
 118 245 118 245 143 295 c 1,6,7
 243 272 243 272 402 259 c 128,-1,8
 561 246 561 246 682 246 c 0,9,10
 955 246 955 246 1223 293 c 1,11,-1
 1131 665 l 1,12,13
 1055 963 1055 963 1022 1138 c 128,-1,14
 989 1313 989 1313 989 1351 c 0,15,16
 989 1452 989 1452 1065 1524.5 c 128,-1,17
 1141 1597 1141 1597 1249 1597 c 1,18,19
 1291 1445 1291 1445 1346 1300 c 1,20,-1
 1270 1243 l 1,21,-1
 1292 1003 l 1,22,23
 1346 460 1346 460 1346 272 c 0,24,25
 1346 207 1346 207 1318.5 128.5 c 128,-1,26
 1291 50 1291 50 1253 0 c 1,27,28
 1136 -18 1136 -18 959 -29.5 c 128,-1,29
 782 -41 782 -41 637 -41 c 0,0,1
693 848 m 1,30,-1
 694 858 l 1,31,32
 694 872 694 872 685.5 882.5 c 128,-1,33
 677 893 677 893 660 893 c 0,34,35
 593 893 593 893 543 798 c 1,36,37
 597 749 597 749 685 749 c 0,38,39
 744 749 744 749 826 768 c 1,40,-1
 814 616 l 1,41,42
 660 574 660 574 581 542.5 c 128,-1,43
 502 511 502 511 424 469 c 1,44,-1
 418 606 l 1,45,46
 477 647 477 647 523 669 c 1,47,48
 471 695 471 695 450 724.5 c 128,-1,49
 429 754 429 754 429 794 c 0,50,51
 429 856 429 856 463 912.5 c 128,-1,52
 497 969 497 969 552.5 1004.5 c 128,-1,53
 608 1040 608 1040 660 1040 c 0,54,55
 714 1040 714 1040 744.5 1006 c 128,-1,56
 775 972 775 972 775 921 c 0,57,58
 775 898 775 898 766.5 873 c 128,-1,59
 758 848 758 848 750 835 c 1,60,-1
 693 848 l 1,30,-1
EndSplineSet
Substitution2: "'medi' Medial Forms in Arabic lookup 5 subtable" uni0643.medi
Substitution2: "'init' Initial Forms in Arabic lookup 4 subtable" uni0643.init
Substitution2: "'fina' Terminal Forms in Arabic lookup 3 subtable" uni0643.fina
EndChar
StartChar: uni0644
Encoding: 1604 1604 34
AltUni2: 00fedd.ffffffff.0
Width: 1475
GlyphClass: 2
Flags: W
AnchorPoint: "Anchor-1" 630 -1114 basechar 0
AnchorPoint: "Anchor-0" 460 1480 basechar 0
LayerCount: 2
Fore
SplineSet
1196 -197 m 1,0,-1
 1140 107 l 1,1,-1
 1075 463 l 1,2,-1
 1027 745 l 1,3,-1
 934 1305 l 1,4,-1
 930 1352 l 1,5,6
 930 1454 930 1454 1006.5 1525.5 c 128,-1,7
 1083 1597 1083 1597 1190 1597 c 1,8,9
 1220 1486 1220 1486 1235 1439.5 c 128,-1,10
 1250 1393 1250 1393 1286 1300 c 1,11,-1
 1210 1241 l 1,12,13
 1239 856 1239 856 1282 492 c 1,14,15
 1301 315 1301 315 1316 164.5 c 128,-1,16
 1331 14 1331 14 1331 -106 c 0,17,18
 1331 -266 1331 -266 1235 -403 c 128,-1,19
 1139 -540 1139 -540 972.5 -618 c 128,-1,20
 806 -696 806 -696 606 -696 c 0,21,22
 390 -696 390 -696 277 -569.5 c 128,-1,23
 164 -443 164 -443 164 -201 c 0,24,25
 164 -76 164 -76 223 147 c 1,26,-1
 330 121 l 1,27,28
 297 10 297 10 297 -70 c 0,29,30
 297 -243 297 -243 374 -326.5 c 128,-1,31
 451 -410 451 -410 612 -410 c 0,32,33
 809 -410 809 -410 943 -359 c 128,-1,34
 1077 -308 1077 -308 1196 -197 c 1,0,-1
EndSplineSet
Substitution2: "'medi' Medial Forms in Arabic lookup 5 subtable" uni0644.medi
Substitution2: "'init' Initial Forms in Arabic lookup 4 subtable" uni0644.init
Substitution2: "'fina' Terminal Forms in Arabic lookup 3 subtable" uni0644.fina
Colour: ff0000
EndChar
StartChar: uni0645
Encoding: 1605 1605 38
AltUni2: 00fee1.ffffffff.0
Width: 1210
GlyphClass: 2
Flags: W
AnchorPoint: "Anchor-1" 800 -200 basechar 0
AnchorPoint: "Anchor-0" 540 1060 basechar 0
LayerCount: 2
Fore
SplineSet
178 -831 m 1,0,1
 178 -695 178 -695 169.5 -581.5 c 128,-1,2
 161 -468 161 -468 150.5 -372.5 c 128,-1,3
 140 -277 140 -277 131.5 -195.5 c 128,-1,4
 123 -114 123 -114 123 -41 c 0,5,6
 123 -6 123 -6 150.5 70.5 c 128,-1,7
 178 147 178 147 225 244 c 0,8,9
 233 259 233 259 348 284 c 128,-1,10
 463 309 463 309 599 325 c 128,-1,11
 735 341 735 341 827 342 c 1,12,13
 785 385 785 385 751 431 c 128,-1,14
 717 477 717 477 685.5 514.5 c 128,-1,15
 654 552 654 552 623 576 c 128,-1,16
 592 600 592 600 557 600 c 0,17,18
 501 600 501 600 448 559 c 128,-1,19
 395 518 395 518 336 436 c 1,20,-1
 238 487 l 1,21,22
 310 670 310 670 407.5 775.5 c 128,-1,23
 505 881 505 881 602 881 c 0,24,25
 659 881 659 881 714 836.5 c 128,-1,26
 769 792 769 792 838 692 c 0,27,28
 919 574 919 574 987.5 496 c 128,-1,29
 1056 418 1056 418 1128 369 c 1,30,-1
 1018 82 l 1,31,32
 834 82 834 82 616 56.5 c 128,-1,33
 398 31 398 31 279 -4 c 1,34,35
 313 -187 313 -187 388 -531 c 1,36,-1
 422 -696 l 1,37,38
 301 -785 301 -785 178 -831 c 1,0,1
EndSplineSet
Substitution2: "'medi' Medial Forms in Arabic lookup 5 subtable" uni0645.medi
Substitution2: "'init' Initial Forms in Arabic lookup 4 subtable" uni0645.init
Substitution2: "'fina' Terminal Forms in Arabic lookup 3 subtable" uni0645.fina
EndChar
StartChar: uni0648
Encoding: 1608 1608 46
AltUni2: 00feed.ffffffff.0
Width: 1196
GlyphClass: 2
Flags: W
AnchorPoint: "Anchor-1" 480 -930 basechar 0
AnchorPoint: "Anchor-0" 540 1258 basechar 0
LayerCount: 2
Fore
SplineSet
1073 174 m 0,0,1
 1073 -7 1073 -7 993 -167 c 128,-1,2
 913 -327 913 -327 773 -419.5 c 128,-1,3
 633 -512 633 -512 471 -512 c 0,4,5
 423 -512 423 -512 315.5 -450 c 128,-1,6
 208 -388 208 -388 123 -315 c 1,7,-1
 162 -215 l 1,8,9
 291 -248 291 -248 426 -248 c 0,10,11
 614 -248 614 -248 754 -154.5 c 128,-1,12
 894 -61 894 -61 946 98 c 1,13,-1
 944 108 l 1,14,-1
 944 117 l 1,15,16
 860 33 860 33 783 -4 c 128,-1,17
 706 -41 706 -41 627 -41 c 0,18,19
 480 -41 480 -41 396.5 45.5 c 128,-1,20
 313 132 313 132 313 291 c 0,21,22
 313 427 313 427 362.5 555 c 128,-1,23
 412 683 412 683 494 761.5 c 128,-1,24
 576 840 576 840 666 840 c 0,25,26
 769 840 769 840 860 747 c 128,-1,27
 951 654 951 654 1012 490 c 128,-1,28
 1073 326 1073 326 1073 174 c 0,0,1
674 223 m 0,29,30
 780 223 780 223 903 266 c 1,31,32
 852 402 852 402 779 476.5 c 128,-1,33
 706 551 706 551 623 551 c 0,34,35
 544 551 544 551 493 497 c 128,-1,36
 442 443 442 443 442 371 c 256,37,38
 442 299 442 299 502 261 c 128,-1,39
 562 223 562 223 674 223 c 0,29,30
EndSplineSet
Substitution2: "'fina' Terminal Forms in Arabic lookup 3 subtable" uni0648.fina
Colour: ffff00
EndChar
StartChar: uni0649
Encoding: 1609 1609 48
AltUni2: 00feef.ffffffff.0
Width: 1532
GlyphClass: 2
Flags: W
AnchorPoint: "Anchor-1" 700 -820 basechar 0
AnchorPoint: "Anchor-0" 500 560 basechar 0
LayerCount: 2
Fore
SplineSet
1438 -133 m 0,0,1
 1438 -214 1438 -214 1365 -314.5 c 128,-1,2
 1292 -415 1292 -415 1165 -505 c 128,-1,3
 1038 -595 1038 -595 891 -645.5 c 128,-1,4
 744 -696 744 -696 606 -696 c 0,5,6
 390 -696 390 -696 277 -569.5 c 128,-1,7
 164 -443 164 -443 164 -201 c 0,8,9
 164 -76 164 -76 223 147 c 1,10,-1
 330 121 l 1,11,12
 297 10 297 10 297 -70 c 0,13,14
 297 -237 297 -237 381 -323.5 c 128,-1,15
 465 -410 465 -410 633 -410 c 0,16,17
 790 -410 790 -410 975 -342 c 128,-1,18
 1160 -274 1160 -274 1315 -156 c 1,19,20
 996 -156 996 -156 862.5 -68.5 c 128,-1,21
 729 19 729 19 729 199 c 0,22,23
 729 331 729 331 807.5 483 c 128,-1,24
 886 635 886 635 1008.5 737.5 c 128,-1,25
 1131 840 1131 840 1239 840 c 0,26,27
 1322 840 1322 840 1376.5 758 c 128,-1,28
 1431 676 1431 676 1450 530 c 1,29,-1
 1343 506 l 1,30,31
 1308 553 1308 553 1268 553 c 0,32,33
 1203 553 1203 553 1120 505 c 128,-1,34
 1037 457 1037 457 965 376 c 128,-1,35
 893 295 893 295 852 197 c 1,36,37
 926 166 926 166 998 155 c 128,-1,38
 1070 144 1070 144 1137 135 c 0,39,40
 1199 126 1199 126 1254.5 113 c 128,-1,41
 1310 100 1310 100 1351 69.5 c 128,-1,42
 1392 39 1392 39 1415 -17.5 c 128,-1,43
 1438 -74 1438 -74 1438 -133 c 0,0,1
EndSplineSet
Substitution2: "'medi' Medial Forms in Arabic lookup 5 subtable" uni0649.medi
Substitution2: "'init' Initial Forms in Arabic lookup 4 subtable" uni0649.init
Substitution2: "'fina' Terminal Forms in Arabic lookup 3 subtable" uni0649.fina
EndChar
StartChar: uni064B
Encoding: 1611 1611 98
Width: 0
GlyphClass: 4
Flags: W
AnchorPoint: "Anchor-4" 160 1560 basemark 0
AnchorPoint: "Anchor-4" 200 1020 mark 0
AnchorPoint: "Anchor-2" 200 1020 mark 0
AnchorPoint: "Anchor-0" 200 1020 mark 0
LayerCount: 2
Fore
SplineSet
492 1321 m 1,0,1
 498 1294 498 1294 498 1271 c 0,2,3
 498 1197 498 1197 426 1163 c 0,4,5
 242 1078 242 1078 -57 987 c 1,6,-1
 -41 1135 l 1,7,8
 223 1210 223 1210 492 1321 c 1,0,1
457 1542 m 1,9,10
 462 1522 462 1522 462 1503 c 0,11,12
 462 1460 462 1460 440 1425.5 c 128,-1,13
 418 1391 418 1391 381 1374 c 1,14,15
 182 1290 182 1290 -88 1214 c 1,16,-1
 -76 1356 l 1,17,18
 229 1449 229 1449 457 1542 c 1,9,10
EndSplineSet
EndChar
StartChar: uni064C
Encoding: 1612 1612 102
Width: 0
GlyphClass: 4
Flags: W
AnchorPoint: "Anchor-4" 160 1560 basemark 0
AnchorPoint: "Anchor-4" 180 960 mark 0
AnchorPoint: "Anchor-2" 180 960 mark 0
AnchorPoint: "Anchor-0" 180 960 mark 0
LayerCount: 2
Fore
SplineSet
45 936 m 0,0,1
 38 936 38 936 -7.5 967 c 128,-1,2
 -53 998 -53 998 -53 1004 c 1,3,-1
 -50 1015 l 1,4,5
 -35 1065 -35 1065 -35 1092 c 0,6,7
 -35 1124 -35 1124 -66 1124 c 0,8,9
 -88 1124 -88 1124 -156 1083 c 1,10,-1
 -193 1126 l 1,11,12
 -145 1189 -145 1189 -101.5 1221 c 128,-1,13
 -58 1253 -58 1253 -27 1253 c 0,14,15
 12 1253 12 1253 39 1224.5 c 128,-1,16
 66 1196 66 1196 66 1155 c 0,17,18
 66 1109 66 1109 57 1075 c 1,19,20
 157 1103 157 1103 207 1135 c 1,21,22
 162 1158 162 1158 130 1195.5 c 128,-1,23
 98 1233 98 1233 98 1282 c 0,24,25
 98 1354 98 1354 159 1421.5 c 128,-1,26
 220 1489 220 1489 285 1489 c 0,27,28
 335 1489 335 1489 369 1428.5 c 128,-1,29
 403 1368 403 1368 403 1276 c 0,30,31
 403 1236 403 1236 391 1196 c 1,32,33
 418 1192 418 1192 473 1192 c 1,34,35
 473 1098 473 1098 348 1098 c 2,36,-1
 322 1098 l 1,37,38
 251 1030 251 1030 171.5 983 c 128,-1,39
 92 936 92 936 45 936 c 0,0,1
193 1319 m 0,40,41
 193 1255 193 1255 295 1221 c 1,42,43
 307 1248 307 1248 307 1268 c 0,44,45
 307 1303 307 1303 289.5 1333.5 c 128,-1,46
 272 1364 272 1364 248 1364 c 0,47,48
 230 1364 230 1364 211.5 1348.5 c 128,-1,49
 193 1333 193 1333 193 1319 c 0,40,41
EndSplineSet
EndChar
StartChar: uni064D
Encoding: 1613 1613 99
Width: 0
GlyphClass: 4
Flags: W
AnchorPoint: "Anchor-5" 220 -680 basemark 0
AnchorPoint: "Anchor-5" 200 -150 mark 0
AnchorPoint: "Anchor-3" 200 -150 mark 0
AnchorPoint: "Anchor-1" 200 -150 mark 0
LayerCount: 2
Fore
SplineSet
492 -342 m 1,0,1
 498 -369 498 -369 498 -392 c 0,2,3
 498 -466 498 -466 426 -500 c 0,4,5
 242 -585 242 -585 -57 -676 c 1,6,-1
 -41 -528 l 1,7,8
 223 -453 223 -453 492 -342 c 1,0,1
457 -121 m 1,9,10
 462 -141 462 -141 462 -160 c 0,11,12
 462 -203 462 -203 440 -237.5 c 128,-1,13
 418 -272 418 -272 381 -289 c 1,14,15
 182 -373 182 -373 -88 -449 c 1,16,-1
 -76 -307 l 1,17,18
 229 -214 229 -214 457 -121 c 1,9,10
EndSplineSet
EndChar
StartChar: uni064E
Encoding: 1614 1614 100
Width: 0
GlyphClass: 4
Flags: W
AnchorPoint: "Anchor-4" 200 1360 basemark 0
AnchorPoint: "Anchor-4" 200 1040 mark 0
AnchorPoint: "Anchor-2" 200 1040 mark 0
AnchorPoint: "Anchor-0" 200 1040 mark 0
LayerCount: 2
Fore
SplineSet
492 1350 m 1,0,1
 498 1323 498 1323 498 1299 c 0,2,3
 498 1267 498 1267 482 1233.5 c 128,-1,4
 466 1200 466 1200 426 1182 c 0,5,6
 253 1101 253 1101 -57 1006 c 1,7,-1
 -39 1163 l 1,8,9
 210 1234 210 1234 492 1350 c 1,0,1
EndSplineSet
EndChar
StartChar: uni064F
Encoding: 1615 1615 101
Width: 0
GlyphClass: 4
Flags: W
AnchorPoint: "Anchor-4" 160 1560 basemark 0
AnchorPoint: "Anchor-4" 180 980 mark 0
AnchorPoint: "Anchor-2" 180 980 mark 0
AnchorPoint: "Anchor-0" 180 980 mark 0
LayerCount: 2
Fore
SplineSet
-104 1044 m 1,0,1
 55 1070 55 1070 164 1135 c 1,2,3
 57 1192 57 1192 57 1282 c 0,4,5
 57 1354 57 1354 118 1421.5 c 128,-1,6
 179 1489 179 1489 244 1489 c 0,7,8
 294 1489 294 1489 328 1428.5 c 128,-1,9
 362 1368 362 1368 362 1276 c 0,10,11
 362 1236 362 1236 350 1196 c 1,12,13
 377 1192 377 1192 432 1192 c 1,14,15
 432 1098 432 1098 307 1098 c 2,16,-1
 281 1098 l 1,17,18
 210 1030 210 1030 130.5 983 c 128,-1,19
 51 936 51 936 4 936 c 0,20,21
 -104 936 -104 936 -104 1044 c 1,0,1
152 1319 m 0,22,23
 152 1255 152 1255 254 1221 c 1,24,25
 266 1248 266 1248 266 1268 c 0,26,27
 266 1308 266 1308 247.5 1336 c 128,-1,28
 229 1364 229 1364 207 1364 c 0,29,30
 189 1364 189 1364 170.5 1348.5 c 128,-1,31
 152 1333 152 1333 152 1319 c 0,22,23
EndSplineSet
EndChar
StartChar: uni0651
Encoding: 1617 1617 104
Width: 0
GlyphClass: 4
Flags: W
AnchorPoint: "Anchor-4" 160 1560 basemark 0
AnchorPoint: "Anchor-4" 180 1000 mark 0
AnchorPoint: "Anchor-2" 180 1000 mark 0
AnchorPoint: "Anchor-0" 180 1000 mark 0
LayerCount: 2
Fore
SplineSet
385 1409 m 1,0,1
 407 1366 407 1366 422.5 1310.5 c 128,-1,2
 438 1255 438 1255 438 1219 c 0,3,4
 438 1150 438 1150 391.5 1093 c 128,-1,5
 345 1036 345 1036 279 1036 c 0,6,7
 229 1036 229 1036 190 1077 c 1,8,9
 166 1031 166 1031 129.5 1004 c 128,-1,10
 93 977 93 977 53 977 c 0,11,12
 -4 977 -4 977 -41 1013.5 c 128,-1,13
 -78 1050 -78 1050 -78 1118 c 0,14,15
 -78 1184 -78 1184 -41 1251 c 1,16,-1
 10 1241 l 1,17,18
 2 1199 2 1199 2 1163 c 0,19,20
 2 1096 2 1096 59 1096 c 0,21,22
 87 1096 87 1096 105 1115.5 c 128,-1,23
 123 1135 123 1135 123 1169 c 1,24,-1
 119 1268 l 1,25,-1
 199 1317 l 1,26,27
 209 1226 209 1226 232 1190.5 c 128,-1,28
 255 1155 255 1155 299 1155 c 0,29,30
 313 1155 313 1155 326 1163 c 128,-1,31
 339 1171 339 1171 344 1182 c 1,32,33
 330 1224 330 1224 301 1282 c 0,34,35
 296 1294 296 1294 296 1307 c 0,36,37
 296 1342 296 1342 324.5 1374 c 128,-1,38
 353 1406 353 1406 385 1409 c 1,0,1
EndSplineSet
EndChar
StartChar: uni0652
Encoding: 1618 1618 105
Width: 0
GlyphClass: 4
Flags: W
AnchorPoint: "Anchor-4" 160 1560 basemark 0
AnchorPoint: "Anchor-4" 180 1010 mark 0
AnchorPoint: "Anchor-2" 180 1010 mark 0
AnchorPoint: "Anchor-0" 180 1010 mark 0
LayerCount: 2
Fore
SplineSet
176 1010 m 0,0,1
 106 1010 106 1010 61 1062.5 c 128,-1,2
 16 1115 16 1115 16 1194 c 0,3,4
 16 1256 16 1256 40 1303 c 128,-1,5
 64 1350 64 1350 102.5 1376.5 c 128,-1,6
 141 1403 141 1403 180 1403 c 0,7,8
 220 1403 220 1403 259.5 1376.5 c 128,-1,9
 299 1350 299 1350 323.5 1303 c 128,-1,10
 348 1256 348 1256 348 1192 c 0,11,12
 348 1115 348 1115 294.5 1062.5 c 128,-1,13
 241 1010 241 1010 176 1010 c 0,0,1
266 1194 m 0,14,15
 266 1207 266 1207 252.5 1227.5 c 128,-1,16
 239 1248 239 1248 217.5 1262 c 128,-1,17
 196 1276 196 1276 166 1276 c 0,18,19
 140 1276 140 1276 118 1256 c 128,-1,20
 96 1236 96 1236 96 1210 c 0,21,22
 96 1179 96 1179 118.5 1159 c 128,-1,23
 141 1139 141 1139 182 1139 c 0,24,25
 214 1139 214 1139 240 1157.5 c 128,-1,26
 266 1176 266 1176 266 1194 c 0,14,15
EndSplineSet
EndChar
StartChar: uni0653
Encoding: 1619 1619 106
Width: 0
GlyphClass: 4
Flags: W
AnchorPoint: "Anchor-4" 160 1680 basemark 0
AnchorPoint: "Anchor-4" 160 1300 mark 0
AnchorPoint: "Anchor-2" 160 1300 mark 0
AnchorPoint: "Anchor-0" 160 1300 mark 0
LayerCount: 2
Fore
SplineSet
301 1317 m 0,0,1
 220 1317 220 1317 146.5 1333.5 c 128,-1,2
 73 1350 73 1350 -10 1378 c 1,3,4
 -109 1346 -109 1346 -188 1305 c 1,5,-1
 -242 1380 l 1,6,7
 -170 1457 -170 1457 -103 1500.5 c 128,-1,8
 -36 1544 -36 1544 6 1544 c 0,9,10
 25 1544 25 1544 56.5 1536 c 128,-1,11
 88 1528 88 1528 128 1518.5 c 128,-1,12
 168 1509 168 1509 214.5 1501 c 128,-1,13
 261 1493 261 1493 311 1493 c 0,14,15
 359 1493 359 1493 420 1508 c 128,-1,16
 481 1523 481 1523 535 1548 c 1,17,-1
 582 1479 l 1,18,19
 514 1405 514 1405 435.5 1361 c 128,-1,20
 357 1317 357 1317 301 1317 c 0,0,1
EndSplineSet
EndChar
StartChar: uni0656
Encoding: 1622 1622 110
Width: 0
GlyphClass: 4
Flags: W
AnchorPoint: "Anchor-5" 60 -860 basemark 0
AnchorPoint: "Anchor-5" 30 -180 mark 0
AnchorPoint: "Anchor-3" 30 -180 mark 0
AnchorPoint: "Anchor-1" 30 -180 mark 0
LayerCount: 2
Fore
SplineSet
59 -186 m 1,0,1
 82 -306 82 -306 90 -387 c 128,-1,2
 98 -468 98 -468 98 -573 c 0,3,4
 98 -632 98 -632 75.5 -692.5 c 128,-1,5
 53 -753 53 -753 12 -801 c 1,6,-1
 -14 -791 l 1,7,8
 -14 -570 -14 -570 -59 -390 c 0,9,10
 -68 -357 -68 -357 -68 -332 c 0,11,12
 -68 -289 -68 -289 -32 -248 c 128,-1,13
 4 -207 4 -207 59 -186 c 1,0,1
EndSplineSet
EndChar
StartChar: uni0658
Encoding: 1624 1624 553
Width: 0
GlyphClass: 4
Flags: W
AnchorPoint: "Anchor-4" 200 1560 basemark 0
AnchorPoint: "Anchor-4" 180 1060 mark 0
AnchorPoint: "Anchor-2" 180 1060 mark 0
AnchorPoint: "Anchor-0" 180 1060 mark 0
LayerCount: 2
Fore
SplineSet
430 1411 m 1,0,1
 406 1241 406 1241 343.5 1151 c 128,-1,2
 281 1061 281 1061 186 1061 c 0,3,4
 96 1061 96 1061 23.5 1145 c 128,-1,5
 -49 1229 -49 1229 -49 1329 c 0,6,7
 -49 1366 -49 1366 -21 1394.5 c 128,-1,8
 7 1423 7 1423 37 1423 c 1,9,10
 48 1311 48 1311 89 1253.5 c 128,-1,11
 130 1196 130 1196 193 1196 c 256,12,13
 256 1196 256 1196 300.5 1255 c 128,-1,14
 345 1314 345 1314 367 1425 c 1,15,-1
 430 1411 l 1,0,1
EndSplineSet
EndChar
StartChar: uni0659
Encoding: 1625 1625 566
Width: 0
GlyphClass: 4
Flags: W
AnchorPoint: "Anchor-4" 280 1400 basemark 0
AnchorPoint: "Anchor-4" 300 1080 mark 0
AnchorPoint: "Anchor-2" 300 1080 mark 0
AnchorPoint: "Anchor-0" 300 1080 mark 0
LayerCount: 2
Fore
SplineSet
2 1081 m 1,0,-1
 27 1245 l 1,1,2
 128 1245 128 1245 350.5 1259 c 128,-1,3
 573 1273 573 1273 645 1278 c 1,4,5
 645 1232 645 1232 628.5 1175 c 128,-1,6
 612 1118 612 1118 594 1116 c 0,7,8
 482 1104 482 1104 279.5 1092.5 c 128,-1,9
 77 1081 77 1081 2 1081 c 1,0,-1
EndSplineSet
EndChar
StartChar: uni065E
Encoding: 1630 1630 571
Width: 0
GlyphClass: 4
Flags: W
AnchorPoint: "Anchor-4" 200 1600 basemark 0
AnchorPoint: "Anchor-4" 250 940 mark 0
AnchorPoint: "Anchor-2" 250 940 mark 0
AnchorPoint: "Anchor-0" 250 940 mark 0
LayerCount: 2
Fore
SplineSet
2 1040 m 1,0,-1
 27 1184 l 1,1,2
 124 1220 124 1220 269 1328 c 0,3,4
 440 1456 440 1456 461 1468 c 1,5,6
 477 1436 477 1436 477 1374 c 0,7,8
 477 1326 477 1326 463 1315 c 1,9,10
 184 1121 184 1121 2 1040 c 1,0,-1
12 1419 m 1,11,12
 31 1453 31 1453 56.5 1483 c 128,-1,13
 82 1513 82 1513 100 1538 c 1,14,15
 169 1493 169 1493 229 1427 c 1,16,17
 178 1351 178 1351 139 1313 c 1,18,19
 94 1353 94 1353 12 1419 c 1,11,12
270 1049 m 1,20,21
 289 1083 289 1083 314.5 1113 c 128,-1,22
 340 1143 340 1143 358 1167 c 1,23,24
 421 1127 421 1127 487 1057 c 1,25,26
 439 982 439 982 397 942 c 1,27,28
 339 993 339 993 270 1049 c 1,20,21
EndSplineSet
EndChar
StartChar: uni0660
Encoding: 1632 1632 65
Width: 864
GlyphClass: 2
Flags: W
LayerCount: 2
Fore
SplineSet
184 459 m 1,0,1
 232 542 232 542 274 622 c 128,-1,2
 316 702 316 702 369 780 c 1,3,4
 510 699 510 699 595 632.5 c 128,-1,5
 680 566 680 566 680 532 c 0,6,7
 680 490 680 490 510 242 c 1,8,9
 341 373 341 373 184 459 c 1,0,1
EndSplineSet
EndChar
StartChar: uni0661
Encoding: 1633 1633 66
Width: 827
GlyphClass: 2
Flags: W
LayerCount: 2
Fore
SplineSet
184 1163 m 0,0,1
 184 1242 184 1242 234.5 1302.5 c 128,-1,2
 285 1363 285 1363 377 1399 c 1,3,4
 502 1173 502 1173 572.5 903 c 128,-1,5
 643 633 643 633 643 432 c 0,6,7
 643 286 643 286 631 184 c 128,-1,8
 619 82 619 82 592 -41 c 1,9,-1
 457 -18 l 1,10,11
 454 146 454 146 441.5 273 c 128,-1,12
 429 400 429 400 403 524.5 c 128,-1,13
 377 649 377 649 342 747 c 128,-1,14
 307 845 307 845 215 1040 c 0,15,16
 184 1104 184 1104 184 1163 c 0,0,1
EndSplineSet
EndChar
StartChar: uni0663
Encoding: 1635 1635 68
Width: 1221
GlyphClass: 2
Flags: W
LayerCount: 2
Fore
SplineSet
186 1161 m 0,0,1
 186 1241 186 1241 236.5 1302 c 128,-1,2
 287 1363 287 1363 379 1399 c 1,3,4
 460 1249 460 1249 520 1075 c 1,5,6
 560 1057 560 1057 600 1057 c 0,7,8
 731 1057 731 1057 731 1239 c 0,9,10
 731 1267 731 1267 721 1360 c 1,11,-1
 811 1393 l 1,12,13
 870 1240 870 1240 883 1116 c 1,14,15
 904 1110 904 1110 928 1110 c 0,16,17
 975 1110 975 1110 1002.5 1154.5 c 128,-1,18
 1030 1199 1030 1199 1030 1284 c 0,19,20
 1030 1320 1030 1320 1022 1397 c 1,21,-1
 1141 1384 l 1,22,23
 1159 1283 1159 1283 1159 1157 c 0,24,25
 1159 1057 1159 1057 1132.5 980.5 c 128,-1,26
 1106 904 1106 904 1057.5 860.5 c 128,-1,27
 1009 817 1009 817 950 817 c 0,28,29
 902 817 902 817 831 858 c 1,30,31
 759 754 759 754 639 754 c 2,32,-1
 624 754 l 1,33,-1
 608 756 l 1,34,35
 645 567 645 567 645 432 c 0,36,37
 645 187 645 187 594 -41 c 1,38,-1
 459 -18 l 1,39,40
 455 196 455 196 431 365.5 c 128,-1,41
 407 535 407 535 366.5 676.5 c 128,-1,42
 326 818 326 818 217 1040 c 0,43,44
 186 1103 186 1103 186 1161 c 0,0,1
EndSplineSet
EndChar
StartChar: uni0664
Encoding: 1636 1636 69
Width: 1085
GlyphClass: 2
Flags: W
LayerCount: 2
Fore
SplineSet
293 268 m 0,0,1
 293 323 293 323 329.5 412 c 128,-1,2
 366 501 366 501 434 598 c 1,3,4
 322 638 322 638 243 696 c 128,-1,5
 164 754 164 754 164 803 c 0,6,7
 164 890 164 890 202.5 1026 c 128,-1,8
 241 1162 241 1162 283 1208 c 1,9,10
 345 1280 345 1280 447 1360.5 c 128,-1,11
 549 1441 549 1441 664 1499 c 1,12,13
 690 1449 690 1449 690 1384 c 0,14,15
 690 1312 690 1312 666 1248.5 c 128,-1,16
 642 1185 642 1185 610 1159 c 0,17,18
 564 1121 564 1121 521.5 1092 c 128,-1,19
 479 1063 479 1063 332 981 c 1,20,21
 399 942 399 942 462 915 c 128,-1,22
 525 888 525 888 637 856 c 1,23,-1
 711 700 l 1,24,-1
 670 654 l 1,25,26
 567 542 567 542 503.5 455.5 c 128,-1,27
 440 369 440 369 440 344 c 0,28,29
 440 297 440 297 509.5 272.5 c 128,-1,30
 579 248 579 248 698 248 c 0,31,32
 877 248 877 248 958 272 c 1,33,-1
 993 211 l 1,34,35
 981 200 981 200 966 177 c 0,36,37
 874 42 874 42 817 -1.5 c 128,-1,38
 760 -45 760 -45 705 -45 c 0,39,40
 505 -45 505 -45 399 33.5 c 128,-1,41
 293 112 293 112 293 268 c 0,0,1
EndSplineSet
EndChar
StartChar: uni0667
Encoding: 1639 1639 72
Width: 1169
GlyphClass: 2
Flags: W
LayerCount: 2
Fore
SplineSet
535 -39 m 1,0,1
 435 253 435 253 362 422.5 c 128,-1,2
 289 592 289 592 152 848 c 2,3,-1
 47 1044 l 2,4,5
 22 1092 22 1092 22 1142 c 0,6,7
 22 1221 22 1221 71.5 1289 c 128,-1,8
 121 1357 121 1357 205 1395 c 1,9,10
 300 1246 300 1246 425.5 923.5 c 128,-1,11
 551 601 551 601 629 305 c 1,12,13
 667 577 667 577 765.5 895 c 128,-1,14
 864 1213 864 1213 963 1393 c 1,15,-1
 1149 1167 l 1,16,17
 1027 943 1027 943 960.5 797 c 128,-1,18
 894 651 894 651 828.5 476.5 c 128,-1,19
 763 302 763 302 696 76 c 1,20,-1
 535 -39 l 1,0,1
EndSplineSet
Substitution2: "'locl' Localized Forms in Arabic lookup 1 subtable" uni06F7.urdu
EndChar
StartChar: uni0668
Encoding: 1640 1640 73
Width: 1169
GlyphClass: 2
Flags: W
LayerCount: 2
Fore
SplineSet
635 1395 m 1,0,1
 720 1139 720 1139 799.5 950.5 c 128,-1,2
 879 762 879 762 1017 508 c 1,3,-1
 1122 311 l 2,4,5
 1147 263 1147 263 1147 213 c 0,6,7
 1147 134 1147 134 1097 65.5 c 128,-1,8
 1047 -3 1047 -3 965 -39 c 1,9,10
 856 129 856 129 727.5 470.5 c 128,-1,11
 599 812 599 812 539 1049 c 1,12,13
 498 776 498 776 403 463 c 128,-1,14
 308 150 308 150 207 -37 c 1,15,-1
 20 188 l 1,16,17
 139 407 139 407 207.5 557 c 128,-1,18
 276 707 276 707 341.5 884 c 128,-1,19
 407 1061 407 1061 473 1280 c 1,20,-1
 635 1395 l 1,0,1
EndSplineSet
EndChar
StartChar: uni0669
Encoding: 1641 1641 74
Width: 1098
GlyphClass: 2
Flags: W
LayerCount: 2
Fore
SplineSet
733 -43 m 1,0,1
 655 154 655 154 618 314 c 128,-1,2
 581 474 581 474 573 635 c 1,3,4
 507 618 507 618 461 618 c 0,5,6
 288 618 288 618 195 710.5 c 128,-1,7
 102 803 102 803 102 981 c 0,8,9
 102 1064 102 1064 155 1173.5 c 128,-1,10
 208 1283 208 1283 285.5 1357.5 c 128,-1,11
 363 1432 363 1432 432 1432 c 0,12,13
 585 1432 585 1432 667.5 1296.5 c 128,-1,14
 750 1161 750 1161 750 907 c 0,15,16
 750 699 750 699 791 547.5 c 128,-1,17
 832 396 832 396 944 178 c 1,18,-1
 733 -43 l 1,0,1
496 905 m 0,19,20
 529 905 529 905 559 911 c 1,21,22
 519 1143 519 1143 365 1143 c 0,23,24
 313 1143 313 1143 278.5 1109 c 128,-1,25
 244 1075 244 1075 244 1038 c 0,26,27
 244 979 244 979 316 942 c 128,-1,28
 388 905 388 905 496 905 c 0,19,20
EndSplineSet
EndChar
StartChar: uni066A
Encoding: 1642 1642 91
Width: 1135
GlyphClass: 2
Flags: W
LayerCount: 2
Fore
SplineSet
319 -20 m 1,0,1
 246 42 246 42 221 139 c 1,2,3
 368 446 368 446 555.5 812.5 c 128,-1,4
 743 1179 743 1179 856 1384 c 1,5,6
 889 1361 889 1361 908 1321 c 128,-1,7
 927 1281 927 1281 927 1236 c 0,8,9
 927 1179 927 1179 899 1126 c 1,10,11
 784 919 784 919 610.5 572.5 c 128,-1,12
 437 226 437 226 319 -20 c 1,0,1
82 1077 m 1,13,14
 125 1153 125 1153 163.5 1226 c 128,-1,15
 202 1299 202 1299 250 1370 c 1,16,17
 378 1297 378 1297 455 1236.5 c 128,-1,18
 532 1176 532 1176 532 1145 c 0,19,20
 532 1103 532 1103 379 881 c 1,21,22
 297 943 297 943 245.5 978 c 128,-1,23
 194 1013 194 1013 82 1077 c 1,13,14
602 182 m 1,24,25
 645 258 645 258 683.5 331 c 128,-1,26
 722 404 722 404 770 475 c 1,27,28
 907 397 907 397 980 338 c 128,-1,29
 1053 279 1053 279 1053 250 c 0,30,31
 1053 209 1053 209 899 -14 c 1,32,33
 817 48 817 48 765.5 83 c 128,-1,34
 714 118 714 118 602 182 c 1,24,25
EndSplineSet
EndChar
StartChar: uni066B
Encoding: 1643 1643 95
Width: 602
GlyphClass: 2
Flags: W
LayerCount: 2
Fore
SplineSet
459 86 m 0,0,1
 459 -63 459 -63 364.5 -165 c 128,-1,2
 270 -267 270 -267 92 -315 c 1,3,-1
 92 -209 l 1,4,5
 193 -173 193 -173 232.5 -137.5 c 128,-1,6
 272 -102 272 -102 272 -49 c 0,7,8
 272 -28 272 -28 255.5 -12 c 128,-1,9
 239 4 239 4 198 29 c 1,10,11
 123 72 123 72 123 170 c 0,12,13
 123 239 123 239 165 275 c 128,-1,14
 207 311 207 311 270 311 c 0,15,16
 357 311 357 311 408 251 c 128,-1,17
 459 191 459 191 459 86 c 0,0,1
EndSplineSet
EndChar
StartChar: uni066C
Encoding: 1644 1644 96
Width: 573
GlyphClass: 2
Flags: W
LayerCount: 2
Fore
SplineSet
115 182 m 0,0,1
 115 329 115 329 207.5 432 c 128,-1,2
 300 535 300 535 481 584 c 1,3,-1
 481 477 l 1,4,5
 380 441 380 441 340.5 405.5 c 128,-1,6
 301 370 301 370 301 317 c 0,7,8
 301 287 301 287 340 263 c 2,9,-1
 376 240 l 2,10,11
 451 193 451 193 451 98 c 0,12,13
 451 29 451 29 408.5 -7 c 128,-1,14
 366 -43 366 -43 303 -43 c 0,15,16
 216 -43 216 -43 165.5 17 c 128,-1,17
 115 77 115 77 115 182 c 0,0,1
EndSplineSet
EndChar
StartChar: uni066E
Encoding: 1646 1646 53
Width: 1942
GlyphClass: 2
Flags: W
AnchorPoint: "Anchor-1" 960 -459 basechar 0
AnchorPoint: "Anchor-0" 1000 1000 basechar 0
LayerCount: 2
Fore
SplineSet
834 -41 m 0,0,1
 547 -41 547 -41 396.5 89.5 c 128,-1,2
 246 220 246 220 246 473 c 0,3,4
 246 530 246 530 263 612.5 c 128,-1,5
 280 695 280 695 293 737 c 1,6,-1
 401 737 l 1,7,-1
 398 711 l 1,8,-1
 393 618 l 1,9,10
 393 476 393 476 450 397.5 c 128,-1,11
 507 319 507 319 623.5 282.5 c 128,-1,12
 740 246 740 246 922 246 c 0,13,14
 1135 246 1135 246 1336.5 285 c 128,-1,15
 1538 324 1538 324 1704 397 c 1,16,17
 1672 468 1672 468 1640 525 c 128,-1,18
 1608 582 1608 582 1582.5 628.5 c 128,-1,19
 1557 675 1557 675 1541.5 712.5 c 128,-1,20
 1526 750 1526 750 1526 782 c 0,21,22
 1526 841 1526 841 1591.5 912 c 128,-1,23
 1657 983 1657 983 1745 1026 c 1,24,-1
 1776 869 l 1,25,26
 1845 543 1845 543 1845 467 c 0,27,28
 1845 364 1845 364 1751 176 c 1,29,30
 1586 78 1586 78 1337.5 18.5 c 128,-1,31
 1089 -41 1089 -41 834 -41 c 0,0,1
EndSplineSet
Substitution2: "'medi' Medial Forms in Arabic lookup 5 subtable" uni066E.medi
Substitution2: "'init' Initial Forms in Arabic lookup 4 subtable" uni066E.init
Substitution2: "'fina' Terminal Forms in Arabic lookup 3 subtable" uni066E.fina
Colour: ff0000
EndChar
StartChar: uni06A9
Encoding: 1705 1705 83
AltUni2: 00fb8e.ffffffff.0
Width: 1786
GlyphClass: 2
Flags: W
AnchorPoint: "Anchor-1" 800 -459 basechar 0
AnchorPoint: "Anchor-0" 960 1785 basechar 0
LayerCount: 2
Fore
SplineSet
725 -41 m 0,0,1
 498 -41 498 -41 385 -3.5 c 128,-1,2
 272 34 272 34 218 117.5 c 128,-1,3
 164 201 164 201 164 346 c 0,4,5
 164 395 164 395 175.5 477.5 c 128,-1,6
 187 560 187 560 197 600 c 1,7,-1
 305 596 l 1,8,9
 297 543 297 543 297 506 c 0,10,11
 297 404 297 404 345.5 349 c 128,-1,12
 394 294 394 294 500 270 c 128,-1,13
 606 246 606 246 813 246 c 0,14,15
 1052 246 1052 246 1196.5 266 c 128,-1,16
 1341 286 1341 286 1456 344 c 1,17,18
 1409 435 1409 435 1288 541 c 128,-1,19
 1167 647 1167 647 989 748 c 1,20,21
 958 739 958 739 928 739 c 0,22,23
 863 739 863 739 812.5 785 c 128,-1,24
 762 831 762 831 762 895 c 0,25,26
 762 944 762 944 787 1067 c 128,-1,27
 812 1190 812 1190 825 1198 c 1,28,29
 1168 1368 1168 1368 1268.5 1414 c 128,-1,30
 1369 1460 1369 1460 1496 1514 c 128,-1,31
 1623 1568 1623 1568 1696 1597 c 1,32,33
 1743 1552 1743 1552 1743 1477 c 0,34,35
 1743 1417 1743 1417 1709.5 1362.5 c 128,-1,36
 1676 1308 1676 1308 1617 1277 c 128,-1,37
 1558 1246 1558 1246 1435 1192 c 128,-1,38
 1312 1138 1312 1138 1191 1095.5 c 128,-1,39
 1070 1053 1070 1053 901 1006 c 1,40,41
 1081 959 1081 959 1236.5 856.5 c 128,-1,42
 1392 754 1392 754 1484.5 622.5 c 128,-1,43
 1577 491 1577 491 1577 375 c 0,44,45
 1577 248 1577 248 1480.5 155.5 c 128,-1,46
 1384 63 1384 63 1184.5 11 c 128,-1,47
 985 -41 985 -41 725 -41 c 0,0,1
EndSplineSet
Substitution2: "'medi' Medial Forms in Arabic lookup 5 subtable" uni06A9.medi
Substitution2: "'init' Initial Forms in Arabic lookup 4 subtable" uni06A9.init
Substitution2: "'fina' Terminal Forms in Arabic lookup 3 subtable" uni06A9.fina
Colour: ffff00
EndChar
StartChar: uni06AC
Encoding: 1708 1708 427
Width: 1489
GlyphClass: 2
Flags: W
AnchorPoint: "Anchor-1" 600 -160 basechar 0
AnchorPoint: "Anchor-0" 480 1600 basechar 0
LayerCount: 2
Fore
SplineSet
637 -41 m 0,0,1
 461 -41 461 -41 271.5 -26 c 128,-1,2
 82 -11 82 -11 82 6 c 0,3,4
 82 71 82 71 100 158 c 128,-1,5
 118 245 118 245 143 295 c 1,6,7
 243 272 243 272 402 259 c 128,-1,8
 561 246 561 246 682 246 c 0,9,10
 955 246 955 246 1223 293 c 1,11,-1
 1131 665 l 1,12,13
 1055 963 1055 963 1022 1138 c 128,-1,14
 989 1313 989 1313 989 1351 c 0,15,16
 989 1452 989 1452 1065 1524.5 c 128,-1,17
 1141 1597 1141 1597 1249 1597 c 1,18,19
 1291 1445 1291 1445 1346 1300 c 1,20,-1
 1270 1243 l 1,21,-1
 1292 1003 l 1,22,23
 1346 460 1346 460 1346 272 c 0,24,25
 1346 207 1346 207 1318.5 128.5 c 128,-1,26
 1291 50 1291 50 1253 0 c 1,27,28
 1136 -18 1136 -18 959 -29.5 c 128,-1,29
 782 -41 782 -41 637 -41 c 0,0,1
715 1317 m 1,30,31
 642 1209 642 1209 516 1091 c 1,32,33
 366 1215 366 1215 297 1294 c 1,34,35
 442 1439 442 1439 512 1519 c 1,36,37
 595 1425 595 1425 715 1317 c 1,30,31
693 848 m 1,38,-1
 694 858 l 1,39,40
 694 872 694 872 685.5 882.5 c 128,-1,41
 677 893 677 893 660 893 c 0,42,43
 593 893 593 893 543 798 c 1,44,45
 597 749 597 749 685 749 c 0,46,47
 744 749 744 749 826 768 c 1,48,-1
 814 616 l 1,49,50
 660 574 660 574 581 542.5 c 128,-1,51
 502 511 502 511 424 469 c 1,52,-1
 418 606 l 1,53,54
 477 647 477 647 523 669 c 1,55,56
 471 695 471 695 450 724.5 c 128,-1,57
 429 754 429 754 429 794 c 0,58,59
 429 856 429 856 463 912.5 c 128,-1,60
 497 969 497 969 552.5 1004.5 c 128,-1,61
 608 1040 608 1040 660 1040 c 0,62,63
 714 1040 714 1040 744.5 1006 c 128,-1,64
 775 972 775 972 775 921 c 0,65,66
 775 898 775 898 766.5 873 c 128,-1,67
 758 848 758 848 750 835 c 1,68,-1
 693 848 l 1,38,-1
EndSplineSet
Substitution2: "'medi' Medial Forms in Arabic lookup 5 subtable" uni06AC.medi
Substitution2: "'init' Initial Forms in Arabic lookup 4 subtable" uni06AC.init
Substitution2: "'fina' Terminal Forms in Arabic lookup 3 subtable" uni06AC.fina
EndChar
StartChar: uni06AD
Encoding: 1709 1709 431
Width: 1489
GlyphClass: 2
Flags: W
AnchorPoint: "Anchor-1" 600 -160 basechar 0
AnchorPoint: "Anchor-0" 428 1860 basechar 0
LayerCount: 2
Fore
SplineSet
637 -41 m 0,0,1
 461 -41 461 -41 271.5 -26 c 128,-1,2
 82 -11 82 -11 82 6 c 0,3,4
 82 71 82 71 100 158 c 128,-1,5
 118 245 118 245 143 295 c 1,6,7
 243 272 243 272 402 259 c 128,-1,8
 561 246 561 246 682 246 c 0,9,10
 955 246 955 246 1223 293 c 1,11,-1
 1131 665 l 1,12,13
 1055 963 1055 963 1022 1138 c 128,-1,14
 989 1313 989 1313 989 1351 c 0,15,16
 989 1452 989 1452 1065 1524.5 c 128,-1,17
 1141 1597 1141 1597 1249 1597 c 1,18,19
 1291 1445 1291 1445 1346 1300 c 1,20,-1
 1270 1243 l 1,21,-1
 1292 1003 l 1,22,23
 1346 460 1346 460 1346 272 c 0,24,25
 1346 207 1346 207 1318.5 128.5 c 128,-1,26
 1291 50 1291 50 1253 0 c 1,27,28
 1136 -18 1136 -18 959 -29.5 c 128,-1,29
 782 -41 782 -41 637 -41 c 0,0,1
629 1606 m 1,30,31
 513 1476 513 1476 451 1436 c 1,32,33
 408 1463 408 1463 352 1510.5 c 128,-1,34
 296 1558 296 1558 256 1606 c 1,35,36
 355 1694 355 1694 441 1794 c 1,37,38
 511 1703 511 1703 629 1606 c 1,30,31
424 1313 m 1,39,40
 355 1212 355 1212 240 1104 c 1,41,42
 110 1207 110 1207 35 1292 c 1,43,44
 114 1365 114 1365 193 1452 c 2,45,-1
 236 1499 l 1,46,47
 299 1430 299 1430 424 1313 c 1,39,40
867 1358 m 1,48,49
 797 1254 797 1254 684 1149 c 1,50,51
 552 1252 552 1252 480 1337 c 1,52,53
 546 1398 546 1398 678 1544 c 1,54,55
 731 1488 731 1488 867 1358 c 1,48,49
693 848 m 1,56,-1
 694 858 l 1,57,58
 694 872 694 872 685.5 882.5 c 128,-1,59
 677 893 677 893 660 893 c 0,60,61
 593 893 593 893 543 798 c 1,62,63
 597 749 597 749 685 749 c 0,64,65
 744 749 744 749 826 768 c 1,66,-1
 814 616 l 1,67,68
 660 574 660 574 581 542.5 c 128,-1,69
 502 511 502 511 424 469 c 1,70,-1
 418 606 l 1,71,72
 477 647 477 647 523 669 c 1,73,74
 471 695 471 695 450 724.5 c 128,-1,75
 429 754 429 754 429 794 c 0,76,77
 429 856 429 856 463 912.5 c 128,-1,78
 497 969 497 969 552.5 1004.5 c 128,-1,79
 608 1040 608 1040 660 1040 c 0,80,81
 714 1040 714 1040 744.5 1006 c 128,-1,82
 775 972 775 972 775 921 c 0,83,84
 775 898 775 898 766.5 873 c 128,-1,85
 758 848 758 848 750 835 c 1,86,-1
 693 848 l 1,56,-1
EndSplineSet
Substitution2: "'medi' Medial Forms in Arabic lookup 5 subtable" uni06AD.medi
Substitution2: "'init' Initial Forms in Arabic lookup 4 subtable" uni06AD.init
Substitution2: "'fina' Terminal Forms in Arabic lookup 3 subtable" uni06AD.fina
EndChar
StartChar: uni06BA
Encoding: 1722 1722 89
AltUni2: 00fb9e.ffffffff.0
Width: 1454
GlyphClass: 2
Flags: W
AnchorPoint: "Anchor-1" 640 -800 basechar 0
AnchorPoint: "Anchor-0" 650 540 basechar 0
LayerCount: 2
Fore
SplineSet
606 -696 m 0,0,1
 390 -696 390 -696 277 -569.5 c 128,-1,2
 164 -443 164 -443 164 -201 c 0,3,4
 164 -76 164 -76 223 147 c 1,5,-1
 330 121 l 1,6,7
 297 10 297 10 297 -70 c 0,8,9
 297 -243 297 -243 374 -326.5 c 128,-1,10
 451 -410 451 -410 612 -410 c 0,11,12
 809 -410 809 -410 943 -359 c 128,-1,13
 1077 -308 1077 -308 1196 -197 c 1,14,15
 1164 -127 1164 -127 1128 -61 c 128,-1,16
 1092 5 1092 5 1062 62 c 128,-1,17
 1032 119 1032 119 1012.5 165.5 c 128,-1,18
 993 212 993 212 993 244 c 0,19,20
 993 446 993 446 1237 561 c 1,21,22
 1248 476 1248 476 1264 386 c 128,-1,23
 1280 296 1280 296 1295 208.5 c 128,-1,24
 1310 121 1310 121 1320.5 40.5 c 128,-1,25
 1331 -40 1331 -40 1331 -106 c 0,26,27
 1331 -266 1331 -266 1235 -403 c 128,-1,28
 1139 -540 1139 -540 972.5 -618 c 128,-1,29
 806 -696 806 -696 606 -696 c 0,0,1
EndSplineSet
Substitution2: "'medi' Medial Forms in Arabic lookup 5 subtable" uni0646.medi
Substitution2: "'init' Initial Forms in Arabic lookup 4 subtable" uni0646.init
Substitution2: "'fina' Terminal Forms in Arabic lookup 3 subtable" uni06BA.fina
EndChar
StartChar: uni06C1.fina
Encoding: 1729 1729 118
AltUni2: 00fba7.ffffffff.0
Width: 1038
GlyphClass: 2
Flags: W
AnchorPoint: "Anchor-1" 560 -160 basechar 0
AnchorPoint: "Anchor-0" 600 680 basechar 0
LayerCount: 2
Fore
SplineSet
1053 -20 m 0,0,1
 971 -20 971 -20 911.5 -2.5 c 128,-1,2
 852 15 852 15 808 41.5 c 128,-1,3
 764 68 764 68 732 98.5 c 128,-1,4
 700 129 700 129 673.5 155.5 c 128,-1,5
 647 182 647 182 622.5 199.5 c 128,-1,6
 598 217 598 217 569 217 c 0,7,8
 434 217 434 217 242 -20 c 1,9,-1
 164 45 l 1,10,11
 456 535 456 535 649 535 c 0,12,13
 696 535 696 535 739.5 503 c 128,-1,14
 783 471 783 471 838 401 c 0,15,16
 892 331 892 331 943 298.5 c 128,-1,17
 994 266 994 266 1053 266 c 0,18,19
 1079 266 1079 266 1079 242 c 2,20,-1
 1079 6 l 2,21,22
 1079 -20 1079 -20 1053 -20 c 0,0,1
EndSplineSet
Substitution2: "'isol' Isolated Forms in Arabic lookup 2 subtable" uni06C1
EndChar
StartChar: uni06CD
Encoding: 1741 1741 494
Width: 1872
GlyphClass: 2
Flags: W
AnchorPoint: "Anchor-1" 980 -820 basechar 0
AnchorPoint: "Anchor-0" 700 560 basechar 0
LayerCount: 2
Fore
SplineSet
946 -696 m 0,0,1
 730 -696 730 -696 617 -569.5 c 128,-1,2
 504 -443 504 -443 504 -201 c 2,3,-1
 504 -166 l 1,4,-1
 506 -135 l 1,5,6
 303 -236 303 -236 199 -295 c 1,7,8
 166 -244 166 -244 166 -172 c 0,9,10
 166 -78 166 -78 231 -35 c 0,11,12
 436 101 436 101 592 178 c 1,13,-1
 690 129 l 1,14,15
 673 85 673 85 659 20.5 c 128,-1,16
 645 -44 645 -44 645 -88 c 0,17,18
 645 -410 645 -410 973 -410 c 0,19,20
 1130 -410 1130 -410 1315 -342 c 128,-1,21
 1500 -274 1500 -274 1655 -156 c 1,22,23
 1336 -156 1336 -156 1202.5 -68.5 c 128,-1,24
 1069 19 1069 19 1069 199 c 0,25,26
 1069 331 1069 331 1147.5 483 c 128,-1,27
 1226 635 1226 635 1348.5 737.5 c 128,-1,28
 1471 840 1471 840 1579 840 c 0,29,30
 1662 840 1662 840 1716.5 758 c 128,-1,31
 1771 676 1771 676 1790 530 c 1,32,-1
 1683 506 l 1,33,34
 1648 553 1648 553 1608 553 c 0,35,36
 1543 553 1543 553 1460 505 c 128,-1,37
 1377 457 1377 457 1305 376 c 128,-1,38
 1233 295 1233 295 1192 197 c 1,39,40
 1266 166 1266 166 1338 155 c 128,-1,41
 1410 144 1410 144 1477 135 c 0,42,43
 1539 126 1539 126 1594.5 113 c 128,-1,44
 1650 100 1650 100 1691 69.5 c 128,-1,45
 1732 39 1732 39 1755 -17.5 c 128,-1,46
 1778 -74 1778 -74 1778 -133 c 0,47,48
 1778 -214 1778 -214 1705 -314.5 c 128,-1,49
 1632 -415 1632 -415 1505 -505 c 128,-1,50
 1378 -595 1378 -595 1231 -645.5 c 128,-1,51
 1084 -696 1084 -696 946 -696 c 0,0,1
EndSplineSet
Substitution2: "'fina' Terminal Forms in Arabic lookup 3 subtable" uni06CD.fina
EndChar
StartChar: uni06D2
Encoding: 1746 1746 81
AltUni2: 00fbae.ffffffff.0
Width: 1946
GlyphClass: 2
Flags: W
AnchorPoint: "Anchor-1" 900 -160 basechar 0
AnchorPoint: "Anchor-0" 600 890 basechar 0
LayerCount: 2
Fore
SplineSet
1008 -41 m 0,0,1
 804 -41 804 -41 611.5 -20.5 c 128,-1,2
 419 0 419 0 291.5 35 c 128,-1,3
 164 70 164 70 164 100 c 0,4,5
 164 144 164 144 211.5 298.5 c 128,-1,6
 259 453 259 453 281 475 c 0,7,8
 329 525 329 525 417.5 574 c 128,-1,9
 506 623 506 623 617 655 c 0,10,11
 813 710 813 710 866 819 c 1,12,-1
 969 774 l 1,13,14
 898 560 898 560 735 487 c 1,15,16
 654 452 654 452 546 418 c 0,17,18
 437 383 437 383 346 346 c 1,19,20
 487 288 487 288 637.5 267 c 128,-1,21
 788 246 788 246 1038 246 c 0,22,23
 1224 246 1224 246 1438 276.5 c 128,-1,24
 1652 307 1652 307 1815 356 c 1,25,26
 1862 301 1862 301 1862 231 c 0,27,28
 1862 174 1862 174 1832 133.5 c 128,-1,29
 1802 93 1802 93 1758.5 70.5 c 128,-1,30
 1715 48 1715 48 1577 20 c 128,-1,31
 1439 -8 1439 -8 1285.5 -24.5 c 128,-1,32
 1132 -41 1132 -41 1008 -41 c 0,0,1
EndSplineSet
Substitution2: "'fina' Terminal Forms in Arabic lookup 3 subtable" uni06D2.fina
EndChar
StartChar: uni06D4
Encoding: 1748 1748 726
Width: 350
GlyphClass: 2
Flags: W
LayerCount: 2
Fore
SplineSet
360 266 m 2,0,1
 371 266 371 266 371 258 c 2,2,-1
 371 -10 l 2,3,4
 371 -20 371 -20 360 -20 c 2,5,-1
 -10 -20 l 2,6,7
 -20 -20 -20 -20 -20 -10 c 2,8,-1
 -20 258 l 2,9,10
 -20 266 -20 266 -10 266 c 2,11,-1
 360 266 l 2,0,1
EndSplineSet
EndChar
StartChar: uni06D6
Encoding: 1750 1750 496
Width: 0
GlyphClass: 4
Flags: W
AnchorPoint: "Anchor-4" 0 1960 basemark 0
AnchorPoint: "Anchor-4" 0 980 mark 0
AnchorPoint: "Anchor-2" 0 980 mark 0
AnchorPoint: "Anchor-0" 0 980 mark 0
LayerCount: 2
Fore
SplineSet
-131 1208 m 1,0,1
 -379 1175 -379 1175 -464.5 1157 c 128,-1,2
 -550 1139 -550 1139 -643 1106 c 1,3,4
 -541 1077 -541 1077 -375 1077 c 0,5,6
 -176 1077 -176 1077 -51 1100 c 1,7,8
 -37 1082 -37 1082 -37 1060 c 0,9,10
 -37 1034 -37 1034 -55 1014.5 c 128,-1,11
 -73 995 -73 995 -102.5 990.5 c 128,-1,12
 -132 986 -132 986 -221.5 982.5 c 128,-1,13
 -311 979 -311 979 -383 979 c 0,14,15
 -463 979 -463 979 -533.5 987.5 c 128,-1,16
 -604 996 -604 996 -655.5 1011 c 128,-1,17
 -707 1026 -707 1026 -707 1036 c 0,18,19
 -707 1050 -707 1050 -693 1104 c 128,-1,20
 -679 1158 -679 1158 -674 1161 c 0,21,22
 -623 1201 -623 1201 -560.5 1227 c 128,-1,23
 -498 1253 -498 1253 -423 1270 c 128,-1,24
 -348 1287 -348 1287 -168 1309 c 1,25,26
 -203 1526 -203 1526 -225 1759 c 1,27,-1
 -111 1823 l 1,28,29
 -119 1507 -119 1507 -119 1317 c 1,30,31
 -96 1301 -96 1301 -76.5 1295.5 c 128,-1,32
 -57 1290 -57 1290 -23 1290 c 0,33,34
 6 1290 6 1290 21 1293.5 c 128,-1,35
 36 1297 36 1297 53.5 1312.5 c 128,-1,36
 71 1328 71 1328 102 1389 c 1,37,38
 118 1415 118 1415 146 1415 c 0,39,40
 161 1415 161 1415 176 1405 c 1,41,42
 151 1336 151 1336 139 1311 c 1,43,44
 158 1302 158 1302 178 1298 c 1,45,46
 275 1425 275 1425 358 1488.5 c 128,-1,47
 441 1552 441 1552 500 1552 c 0,48,49
 533 1552 533 1552 575 1523.5 c 128,-1,50
 617 1495 617 1495 647.5 1453 c 128,-1,51
 678 1411 678 1411 678 1384 c 0,52,53
 678 1320 678 1320 637 1271.5 c 128,-1,54
 596 1223 596 1223 516 1195 c 128,-1,55
 436 1167 436 1167 352 1167 c 0,56,57
 280 1167 280 1167 208 1181.5 c 128,-1,58
 136 1196 136 1196 90 1219 c 1,59,60
 76 1203 76 1203 45.5 1189.5 c 128,-1,61
 15 1176 15 1176 -23 1176 c 0,62,63
 -93 1176 -93 1176 -131 1208 c 1,0,1
461 1440 m 0,64,65
 379 1440 379 1440 242 1282 c 1,66,67
 301 1274 301 1274 362 1274 c 0,68,69
 432 1274 432 1274 492.5 1290 c 128,-1,70
 553 1306 553 1306 623 1339 c 1,71,72
 536 1440 536 1440 461 1440 c 0,64,65
EndSplineSet
EndChar
StartChar: uni06D7
Encoding: 1751 1751 497
Width: 0
GlyphClass: 4
Flags: W
AnchorPoint: "Anchor-4" 130 1960 basemark 0
AnchorPoint: "Anchor-4" 0 980 mark 0
AnchorPoint: "Anchor-2" 0 980 mark 0
AnchorPoint: "Anchor-0" 0 980 mark 0
LayerCount: 2
Fore
SplineSet
121 1176 m 0,0,1
 50 1176 50 1176 12 1208 c 1,2,3
 -212 1178 -212 1178 -283.5 1164.5 c 128,-1,4
 -355 1151 -355 1151 -399 1138.5 c 128,-1,5
 -443 1126 -443 1126 -500 1106 c 1,6,7
 -399 1077 -399 1077 -231 1077 c 0,8,9
 -33 1077 -33 1077 92 1100 c 1,10,11
 106 1082 106 1082 106 1060 c 0,12,13
 106 1034 106 1034 88 1014.5 c 128,-1,14
 70 995 70 995 39 990.5 c 128,-1,15
 8 986 8 986 -84 982.5 c 128,-1,16
 -176 979 -176 979 -240 979 c 0,17,18
 -319 979 -319 979 -389.5 987.5 c 128,-1,19
 -460 996 -460 996 -511.5 1011 c 128,-1,20
 -563 1026 -563 1026 -563 1036 c 256,21,22
 -563 1046 -563 1046 -550 1101.5 c 128,-1,23
 -537 1157 -537 1157 -530 1161 c 1,24,25
 -479 1201 -479 1201 -416 1227 c 128,-1,26
 -353 1253 -353 1253 -278.5 1270 c 128,-1,27
 -204 1287 -204 1287 -25 1309 c 1,28,29
 -60 1526 -60 1526 -82 1759 c 1,30,-1
 33 1823 l 1,31,32
 25 1507 25 1507 25 1317 c 1,33,34
 47 1301 47 1301 67 1295.5 c 128,-1,35
 87 1290 87 1290 121 1290 c 0,36,37
 331 1290 331 1290 453 1341 c 1,38,-1
 434 1401 l 1,39,40
 375 1356 375 1356 303 1356 c 0,41,42
 253 1356 253 1356 223 1386 c 128,-1,43
 193 1416 193 1416 193 1468 c 0,44,45
 193 1548 193 1548 234 1609.5 c 128,-1,46
 275 1671 275 1671 326 1671 c 0,47,48
 371 1671 371 1671 412 1627 c 128,-1,49
 453 1583 453 1583 477.5 1509 c 128,-1,50
 502 1435 502 1435 502 1343 c 0,51,52
 502 1314 502 1314 469 1245 c 1,53,54
 357 1176 357 1176 121 1176 c 0,0,1
322 1438 m 0,55,56
 362 1438 362 1438 414 1456 c 1,57,58
 366 1554 366 1554 305 1554 c 0,59,60
 282 1554 282 1554 263 1536.5 c 128,-1,61
 244 1519 244 1519 244 1493 c 0,62,63
 244 1469 244 1469 267 1453.5 c 128,-1,64
 290 1438 290 1438 322 1438 c 0,55,56
293 1792 m 1,65,66
 256 1741 256 1741 219 1706 c 1,67,68
 165 1748 165 1748 137 1784 c 1,69,70
 159 1802 159 1802 179.5 1825.5 c 128,-1,71
 200 1849 200 1849 217 1866 c 1,72,73
 246 1834 246 1834 293 1792 c 1,65,66
453 1808 m 1,74,75
 426 1771 426 1771 379 1724 c 1,76,77
 342 1752 342 1752 297 1800 c 1,78,79
 325 1825 325 1825 377 1884 c 1,80,-1
 453 1808 l 1,74,75
EndSplineSet
EndChar
StartChar: uni06D8
Encoding: 1752 1752 498
Width: 0
GlyphClass: 4
Flags: W
AnchorPoint: "Anchor-4" 0 1400 basemark 0
AnchorPoint: "Anchor-4" 40 960 mark 0
AnchorPoint: "Anchor-2" 40 960 mark 0
AnchorPoint: "Anchor-0" 40 960 mark 0
LayerCount: 2
Fore
SplineSet
150 954 m 1,0,1
 14 954 14 954 -90 1008 c 1,2,3
 -131 963 -131 963 -205 963 c 1,4,-1
 -205 1077 l 1,5,6
 -124 1077 -124 1077 -88 1149 c 1,7,8
 -44 1232 -44 1232 -25 1256 c 128,-1,9
 -6 1280 -6 1280 15.5 1293.5 c 128,-1,10
 37 1307 37 1307 63 1307 c 0,11,12
 118 1307 118 1307 162.5 1226 c 128,-1,13
 207 1145 207 1145 207 1063 c 0,14,15
 207 1038 207 1038 190 1006 c 128,-1,16
 173 974 173 974 150 954 c 1,0,1
47 1194 m 0,17,18
 24 1194 24 1194 7.5 1173 c 128,-1,19
 -9 1152 -9 1152 -35 1100 c 1,20,21
 28 1067 28 1067 117 1061 c 1,22,23
 112 1113 112 1113 90.5 1153.5 c 128,-1,24
 69 1194 69 1194 47 1194 c 0,17,18
EndSplineSet
EndChar
StartChar: uni06DA
Encoding: 1754 1754 500
Width: 0
GlyphClass: 4
Flags: W
AnchorPoint: "Anchor-4" 0 1640 basemark 0
AnchorPoint: "Anchor-4" 50 800 mark 0
AnchorPoint: "Anchor-2" 50 800 mark 0
AnchorPoint: "Anchor-0" 50 800 mark 0
LayerCount: 2
Fore
SplineSet
-137 1370 m 0,0,1
 -165 1370 -165 1370 -186 1364 c 128,-1,2
 -207 1358 -207 1358 -248 1331 c 1,3,4
 -254 1337 -254 1337 -262 1354 c 128,-1,5
 -270 1371 -270 1371 -270 1391 c 0,6,7
 -270 1435 -270 1435 -234.5 1460 c 128,-1,8
 -199 1485 -199 1485 -141 1485 c 0,9,10
 -100 1485 -100 1485 -62.5 1473.5 c 128,-1,11
 -25 1462 -25 1462 12.5 1448.5 c 128,-1,12
 50 1435 50 1435 91 1424 c 128,-1,13
 132 1413 132 1413 180 1413 c 2,14,-1
 222 1413 l 1,15,-1
 268 1415 l 1,16,-1
 229 1307 l 1,17,18
 201 1303 201 1303 158 1303 c 2,19,-1
 134 1303 l 1,20,-1
 111 1305 l 1,21,22
 -9 1281 -9 1281 -96.5 1209.5 c 128,-1,23
 -184 1138 -184 1138 -184 1061 c 0,24,25
 -184 990 -184 990 -124.5 949.5 c 128,-1,26
 -65 909 -65 909 27 909 c 0,27,28
 132 909 132 909 258 940 c 1,29,-1
 272 899 l 1,30,31
 202 858 202 858 130 828.5 c 128,-1,32
 58 799 58 799 25 799 c 0,33,34
 -233 799 -233 799 -233 1051 c 0,35,36
 -233 1136 -233 1136 -179.5 1215.5 c 128,-1,37
 -126 1295 -126 1295 -35 1341 c 1,38,39
 -64 1352 -64 1352 -89 1361 c 128,-1,40
 -114 1370 -114 1370 -137 1370 c 0,0,1
102 1061 m 1,41,42
 67 1011 67 1011 23 971 c 1,43,44
 -33 1015 -33 1015 -66 1053 c 1,45,46
 -24 1092 -24 1092 20 1143 c 1,47,48
 55 1104 55 1104 102 1061 c 1,41,42
EndSplineSet
EndChar
StartChar: uni06DC
Encoding: 1756 1756 502
Width: 0
GlyphClass: 4
Flags: W
AnchorPoint: "Anchor-4" 100 1560 basemark 0
AnchorPoint: "Anchor-4" 70 900 mark 0
AnchorPoint: "Anchor-2" 70 900 mark 0
AnchorPoint: "Anchor-0" 70 900 mark 0
LayerCount: 2
Fore
SplineSet
414 1143 m 1,0,1
 284 1143 284 1143 184 1192 c 1,2,-1
 172 1169 l 1,3,4
 155 1143 155 1143 45 1143 c 2,5,-1
 28 1143 l 1,6,-1
 10 1145 l 1,7,-1
 12 1130 l 1,8,-1
 12 1116 l 2,9,10
 12 1018 12 1018 -71 949.5 c 128,-1,11
 -154 881 -154 881 -276 881 c 0,12,13
 -365 881 -365 881 -410 932 c 128,-1,14
 -455 983 -455 983 -455 1079 c 0,15,16
 -455 1119 -455 1119 -430 1219 c 1,17,-1
 -387 1208 l 1,18,19
 -401 1166 -401 1166 -401 1130 c 0,20,21
 -401 995 -401 995 -274 995 c 0,22,23
 -195 995 -195 995 -142.5 1016 c 128,-1,24
 -90 1037 -90 1037 -41 1081 c 1,25,-1
 -68 1135 l 1,26,27
 -123 1233 -123 1233 -123 1257 c 0,28,29
 -123 1305 -123 1305 -95 1334.5 c 128,-1,30
 -67 1364 -67 1364 -25 1384 c 1,31,-1
 -4 1262 l 1,32,33
 14 1257 14 1257 55 1257 c 0,34,35
 88 1257 88 1257 125 1268 c 1,36,37
 137 1289 137 1289 151 1328 c 2,38,-1
 178 1399 l 1,39,40
 189 1425 189 1425 222 1425 c 0,41,42
 240 1425 240 1425 258 1415 c 1,43,-1
 219 1292 l 1,44,45
 285 1260 285 1260 397 1249 c 1,46,-1
 350 1347 l 1,47,48
 326 1392 326 1392 326 1413 c 0,49,50
 326 1439 326 1439 355.5 1469 c 128,-1,51
 385 1499 385 1499 414 1511 c 1,52,-1
 426 1447 l 1,53,54
 455 1306 455 1306 455 1280 c 256,55,56
 455 1254 455 1254 440.5 1211 c 128,-1,57
 426 1168 426 1168 414 1143 c 1,0,1
EndSplineSet
EndChar
StartChar: uni06DD
Encoding: 1757 1757 733
Width: 2300
GlyphClass: 2
Flags: W
LayerCount: 2
Fore
SplineSet
2238 745 m 0,0,1
 2238 444 2238 444 2103 190 c 1,2,3
 2123 204 2123 204 2144 204 c 256,4,5
 2165 204 2165 204 2181 190 c 1,6,7
 1923 -272 1923 -272 1354 -403 c 0,8,9
 1241 -430 1241 -430 1141 -555 c 1,10,11
 1048 -423 1048 -423 944 -403 c 0,12,13
 391 -302 391 -302 123 190 c 1,14,15
 141 204 141 204 159 204 c 256,16,17
 177 204 177 204 197 190 c 1,18,19
 45 485 45 485 45 745 c 0,20,21
 45 892 45 892 88 1028 c 128,-1,22
 131 1164 131 1164 197 1292 c 1,23,24
 176 1285 176 1285 159 1285 c 0,25,26
 141 1285 141 1285 123 1292 c 1,27,28
 251 1527 251 1527 473 1688.5 c 128,-1,29
 695 1850 695 1850 944 1884 c 0,30,31
 990 1890 990 1890 1044.5 1937 c 128,-1,32
 1099 1984 1099 1984 1141 2048 c 1,33,34
 1181 1987 1181 1987 1239 1942 c 128,-1,35
 1297 1897 1297 1897 1354 1884 c 0,36,37
 1623 1827 1623 1827 1838 1673 c 128,-1,38
 2053 1519 2053 1519 2181 1292 c 1,39,40
 2165 1285 2165 1285 2144 1285 c 0,41,42
 2124 1285 2124 1285 2103 1292 c 1,43,44
 2238 1042 2238 1042 2238 745 c 0,0,1
1831 1563 m 0,45,46
 1831 1599 1831 1599 1804 1612 c 1,47,48
 1642 1723 1642 1723 1438 1794 c 1,49,50
 1359 1794 1359 1794 1359 1743 c 0,51,52
 1359 1723 1359 1723 1372.5 1702.5 c 128,-1,53
 1386 1682 1386 1682 1407 1675 c 0,54,55
 1568 1626 1568 1626 1729 1520 c 1,56,57
 1750 1499 1750 1499 1771 1499 c 0,58,59
 1795 1499 1795 1499 1813 1518 c 128,-1,60
 1831 1537 1831 1537 1831 1563 c 0,45,46
1251 1763 m 0,61,62
 1251 1808 1251 1808 1220 1837 c 128,-1,63
 1189 1866 1189 1866 1141 1866 c 0,64,65
 1096 1866 1096 1866 1067 1837 c 128,-1,66
 1038 1808 1038 1808 1038 1763 c 0,67,68
 1038 1715 1038 1715 1067 1685 c 128,-1,69
 1096 1655 1096 1655 1141 1655 c 0,70,71
 1189 1655 1189 1655 1220 1685 c 128,-1,72
 1251 1715 1251 1715 1251 1763 c 0,61,62
854 1800 m 1,73,74
 646 1729 646 1729 492 1616 c 1,75,76
 462 1601 462 1601 462 1565 c 0,77,78
 462 1542 462 1542 479.5 1523.5 c 128,-1,79
 497 1505 497 1505 521 1504 c 0,80,81
 543 1504 543 1504 565 1526 c 1,82,83
 627 1566 627 1566 716 1610.5 c 128,-1,84
 805 1655 805 1655 885 1679 c 1,85,86
 932 1698 932 1698 932 1740 c 0,87,88
 932 1800 932 1800 854 1800 c 1,73,74
1829 1397 m 1,89,90
 1800 1380 1800 1380 1769 1380 c 1,91,92
 1700 1449 1700 1449 1613.5 1504 c 128,-1,93
 1527 1559 1527 1559 1437.5 1589 c 128,-1,94
 1348 1619 1348 1619 1293 1619 c 0,95,96
 1258 1619 1258 1619 1216.5 1607 c 128,-1,97
 1175 1595 1175 1595 1141 1565 c 1,98,99
 1114 1595 1114 1595 1075.5 1607 c 128,-1,100
 1037 1619 1037 1619 1004 1619 c 0,101,102
 947 1619 947 1619 851.5 1588.5 c 128,-1,103
 756 1558 756 1558 669 1503 c 128,-1,104
 582 1448 582 1448 518 1380 c 1,105,106
 484 1380 484 1380 455 1397 c 1,107,108
 180 1120 180 1120 180 745 c 0,109,110
 180 557 180 557 249 393 c 128,-1,111
 318 229 318 229 455 104 c 1,112,113
 485 104 485 104 518 115 c 1,114,115
 581 43 581 43 658.5 -8.5 c 128,-1,116
 736 -60 736 -60 841 -97 c 128,-1,117
 946 -134 946 -134 982 -134 c 0,118,119
 1012 -134 1012 -134 1055.5 -117.5 c 128,-1,120
 1099 -101 1099 -101 1141 -66 c 1,121,122
 1189 -103 1189 -103 1233 -120 c 128,-1,123
 1277 -137 1277 -137 1309 -137 c 0,124,125
 1332 -137 1332 -137 1354 -129 c 0,126,127
 1519 -72 1519 -72 1609.5 -16.5 c 128,-1,128
 1700 39 1700 39 1769 115 c 1,129,130
 1798 104 1798 104 1829 104 c 1,131,132
 1959 223 1959 223 2031 389 c 128,-1,133
 2103 555 2103 555 2103 735 c 0,134,135
 2103 933 2103 933 2035 1095.5 c 128,-1,136
 1967 1258 1967 1258 1829 1397 c 1,89,90
1770 -11 m 0,137,138
 1748 -11 1748 -11 1726 -33 c 1,139,140
 1553 -141 1553 -141 1405 -186 c 1,141,142
 1382 -196 1382 -196 1368.5 -211.5 c 128,-1,143
 1355 -227 1355 -227 1355 -243 c 0,144,145
 1355 -272 1355 -272 1377.5 -289.5 c 128,-1,146
 1400 -307 1400 -307 1436 -307 c 1,147,148
 1640 -237 1640 -237 1800 -123 c 1,149,150
 1828 -109 1828 -109 1828 -71 c 0,151,152
 1828 -44 1828 -44 1809.5 -27.5 c 128,-1,153
 1791 -11 1791 -11 1770 -11 c 0,137,138
1251 -279 m 0,154,155
 1251 -235 1251 -235 1220 -204.5 c 128,-1,156
 1189 -174 1189 -174 1141 -174 c 0,157,158
 1096 -174 1096 -174 1067 -203 c 128,-1,159
 1038 -232 1038 -232 1038 -279 c 0,160,161
 1038 -325 1038 -325 1067 -354 c 128,-1,162
 1096 -383 1096 -383 1141 -383 c 0,163,164
 1189 -383 1189 -383 1220 -354 c 128,-1,165
 1251 -325 1251 -325 1251 -279 c 0,154,155
933 -248 m 0,166,167
 933 -233 933 -233 920 -217.5 c 128,-1,168
 907 -202 907 -202 883 -193 c 1,169,170
 810 -171 810 -171 719 -126 c 128,-1,171
 628 -81 628 -81 563 -37 c 1,172,173
 542 -16 542 -16 520 -16 c 0,174,175
 496 -16 496 -16 477.5 -34.5 c 128,-1,176
 459 -53 459 -53 459 -81 c 0,177,178
 459 -115 459 -115 487 -129 c 1,179,180
 644 -240 644 -240 852 -311 c 1,181,182
 890 -311 890 -311 911.5 -293.5 c 128,-1,183
 933 -276 933 -276 933 -248 c 0,166,167
EndSplineSet
EndChar
StartChar: uni06DF
Encoding: 1759 1759 503
Width: 0
GlyphClass: 4
Flags: W
AnchorPoint: "Anchor-4" 0 1400 basemark 0
AnchorPoint: "Anchor-4" 0 1000 mark 0
AnchorPoint: "Anchor-2" 0 1000 mark 0
AnchorPoint: "Anchor-0" 0 1000 mark 0
LayerCount: 2
Fore
SplineSet
0 997 m 0,0,1
 -53 997 -53 997 -84 1029 c 128,-1,2
 -115 1061 -115 1061 -115 1120 c 256,3,4
 -115 1179 -115 1179 -84.5 1211 c 128,-1,5
 -54 1243 -54 1243 0 1243 c 0,6,7
 55 1243 55 1243 85 1209.5 c 128,-1,8
 115 1176 115 1176 115 1120 c 256,9,10
 115 1064 115 1064 85 1030.5 c 128,-1,11
 55 997 55 997 0 997 c 0,0,1
EndSplineSet
EndChar
StartChar: uni06E0
Encoding: 1760 1760 735
Width: 0
GlyphClass: 4
Flags: W
AnchorPoint: "Anchor-4" 0 1500 basemark 0
AnchorPoint: "Anchor-4" 0 1100 mark 0
AnchorPoint: "Anchor-2" 0 1100 mark 0
AnchorPoint: "Anchor-0" 0 1100 mark 0
LayerCount: 2
Fore
SplineSet
98 1120 m 1,0,-1
 -98 1120 l 1,1,-1
 -98 1317 l 1,2,-1
 98 1317 l 1,3,-1
 98 1120 l 1,0,-1
EndSplineSet
EndChar
StartChar: uni06E1
Encoding: 1761 1761 504
Width: 0
GlyphClass: 4
Flags: W
AnchorPoint: "Anchor-4" 35 1440 basemark 0
AnchorPoint: "Anchor-4" 20 960 mark 0
AnchorPoint: "Anchor-2" 20 960 mark 0
AnchorPoint: "Anchor-0" 20 960 mark 0
LayerCount: 2
Fore
SplineSet
-295 1077 m 1,0,1
 -223 1077 -223 1077 -173.5 1079.5 c 128,-1,2
 -124 1082 -124 1082 -80 1096 c 1,3,4
 26 1124 26 1124 37 1126 c 1,5,-1
 -4 1152 l 1,6,7
 -70 1198 -70 1198 -109 1198 c 0,8,9
 -144 1198 -144 1198 -169.5 1188 c 128,-1,10
 -195 1178 -195 1178 -223 1159 c 1,11,12
 -229 1165 -229 1165 -237.5 1182 c 128,-1,13
 -246 1199 -246 1199 -246 1219 c 0,14,15
 -246 1262 -246 1262 -207.5 1287.5 c 128,-1,16
 -169 1313 -169 1313 -113 1313 c 0,17,18
 -75 1313 -75 1313 -46.5 1299.5 c 128,-1,19
 -18 1286 -18 1286 11 1268 c 0,20,21
 89 1218 89 1218 128.5 1203.5 c 128,-1,22
 168 1189 168 1189 206 1182.5 c 128,-1,23
 244 1176 244 1176 297 1176 c 1,24,-1
 248 1073 l 1,25,26
 184 1079 184 1079 147 1087 c 1,27,28
 87 1076 87 1076 4 1024 c 0,29,30
 -37 999 -37 999 -71.5 986.5 c 128,-1,31
 -106 974 -106 974 -145.5 968.5 c 128,-1,32
 -185 963 -185 963 -295 963 c 1,33,-1
 -295 1077 l 1,0,1
EndSplineSet
EndChar
StartChar: uni06E2
Encoding: 1762 1762 505
Width: 0
GlyphClass: 4
Flags: W
AnchorPoint: "Anchor-4" 0 1600 basemark 0
AnchorPoint: "Anchor-4" 0 820 mark 0
AnchorPoint: "Anchor-2" 0 820 mark 0
AnchorPoint: "Anchor-0" 0 820 mark 0
LayerCount: 2
Fore
SplineSet
-178 799 m 1,0,1
 -178 883 -178 883 -189 982 c 1,2,3
 -201 1080 -201 1080 -201 1114 c 0,4,5
 -201 1122 -201 1122 -197 1135 c 128,-1,6
 -193 1148 -193 1148 -160 1229 c 1,7,8
 -156 1236 -156 1236 -75 1251 c 128,-1,9
 6 1266 6 1266 82 1268 c 1,10,-1
 50 1303 l 1,11,12
 17 1345 17 1345 2.5 1357.5 c 128,-1,13
 -12 1370 -12 1370 -27 1370 c 0,14,15
 -71 1370 -71 1370 -115 1305 c 1,16,-1
 -154 1325 l 1,17,18
 -126 1398 -126 1398 -87 1440.5 c 128,-1,19
 -48 1483 -48 1483 -8 1483 c 0,20,21
 20 1483 20 1483 42 1461 c 128,-1,22
 64 1439 64 1439 86.5 1407.5 c 128,-1,23
 109 1376 109 1376 136.5 1340.5 c 128,-1,24
 164 1305 164 1305 203 1278 c 1,25,-1
 158 1163 l 1,26,27
 93 1163 93 1163 3.5 1153.5 c 128,-1,28
 -86 1144 -86 1144 -137 1128 c 1,29,-1
 -80 852 l 1,30,31
 -127 818 -127 818 -178 799 c 1,0,1
EndSplineSet
EndChar
StartChar: uni06E3
Encoding: 1763 1763 506
Width: 0
GlyphClass: 4
Flags: W
AnchorPoint: "Anchor-5" 160 -460 basemark 0
AnchorPoint: "Anchor-5" 50 80 mark 0
AnchorPoint: "Anchor-3" 50 80 mark 0
AnchorPoint: "Anchor-1" 50 80 mark 0
LayerCount: 2
Fore
SplineSet
414 -250 m 1,0,1
 294 -250 294 -250 184 -201 c 1,2,-1
 172 -223 l 1,3,4
 155 -250 155 -250 45 -250 c 2,5,-1
 28 -250 l 1,6,-1
 10 -248 l 1,7,-1
 12 -262 l 1,8,-1
 12 -276 l 2,9,10
 12 -375 12 -375 -71 -443.5 c 128,-1,11
 -154 -512 -154 -512 -276 -512 c 0,12,13
 -365 -512 -365 -512 -410 -461 c 128,-1,14
 -455 -410 -455 -410 -455 -313 c 0,15,16
 -455 -272 -455 -272 -430 -174 c 1,17,-1
 -387 -184 l 1,18,19
 -401 -228 -401 -228 -401 -262 c 0,20,21
 -401 -397 -401 -397 -274 -397 c 0,22,23
 -195 -397 -195 -397 -142.5 -377 c 128,-1,24
 -90 -357 -90 -357 -41 -311 c 1,25,-1
 -68 -258 l 1,26,27
 -123 -160 -123 -160 -123 -135 c 0,28,29
 -123 -56 -123 -56 -25 -8 c 1,30,-1
 -4 -129 l 1,31,32
 23 -135 23 -135 55 -135 c 0,33,34
 92 -135 92 -135 125 -125 c 1,35,-1
 151 -64 l 1,36,-1
 178 6 l 2,37,38
 189 33 189 33 223 33 c 0,39,40
 240 33 240 33 258 23 c 1,41,-1
 240 -32 l 1,42,-1
 219 -100 l 1,43,44
 275 -129 275 -129 397 -143 c 1,45,-1
 350 -46 l 1,46,47
 326 1 326 1 326 20 c 0,48,49
 326 43 326 43 351.5 72 c 128,-1,50
 377 101 377 101 414 119 c 1,51,-1
 426 55 l 1,52,53
 455 -86 455 -86 455 -113 c 0,54,55
 455 -138 455 -138 440.5 -181.5 c 128,-1,56
 426 -225 426 -225 414 -250 c 1,0,1
EndSplineSet
EndChar
StartChar: uni06E4
Encoding: 1764 1764 507
Width: 0
GlyphClass: 4
Flags: W
AnchorPoint: "Anchor-4" 0 1260 basemark 0
AnchorPoint: "Anchor-4" 0 1040 mark 0
AnchorPoint: "Anchor-2" 0 1040 mark 0
AnchorPoint: "Anchor-0" 0 1040 mark 0
LayerCount: 2
Fore
SplineSet
25 1063 m 0,0,1
 -16 1063 -16 1063 -74 1087 c 1,2,-1
 -135 1061 l 1,3,-1
 -147 1098 l 1,4,5
 -138 1106 -138 1106 -105.5 1127.5 c 128,-1,6
 -73 1149 -73 1149 -68 1149 c 2,7,-1
 -50 1146 l 1,8,9
 9 1130 9 1130 29 1130 c 0,10,11
 75 1130 75 1130 137 1161 c 1,12,-1
 147 1124 l 1,13,14
 119 1096 119 1096 85 1079.5 c 128,-1,15
 51 1063 51 1063 25 1063 c 0,0,1
EndSplineSet
EndChar
StartChar: uni06E5
Encoding: 1765 1765 508
Width: 0
GlyphClass: 2
Flags: W
LayerCount: 2
Fore
SplineSet
190 1155 m 0,0,1
 190 1043 190 1043 120.5 962 c 128,-1,2
 51 881 51 881 -51 881 c 0,3,4
 -70 881 -70 881 -112.5 905.5 c 128,-1,5
 -155 930 -155 930 -190 958 c 1,6,-1
 -174 999 l 1,7,8
 -127 987 -127 987 -70 987 c 0,9,10
 7 987 7 987 63 1024 c 128,-1,11
 119 1061 119 1061 139 1124 c 1,12,-1
 137 1133 l 1,13,14
 79 1069 79 1069 12 1069 c 0,15,16
 -48 1069 -48 1069 -81.5 1104 c 128,-1,17
 -115 1139 -115 1139 -115 1202 c 0,18,19
 -115 1287 -115 1287 -70.5 1354 c 128,-1,20
 -26 1421 -26 1421 27 1421 c 0,21,22
 69 1421 69 1421 106.5 1381.5 c 128,-1,23
 144 1342 144 1342 167 1277.5 c 128,-1,24
 190 1213 190 1213 190 1155 c 0,0,1
31 1176 m 0,25,26
 75 1176 75 1176 121 1192 c 1,27,28
 100 1247 100 1247 71 1277 c 128,-1,29
 42 1307 42 1307 10 1307 c 256,30,31
 -22 1307 -22 1307 -41.5 1284 c 128,-1,32
 -61 1261 -61 1261 -61 1233 c 0,33,34
 -61 1176 -61 1176 31 1176 c 0,25,26
EndSplineSet
EndChar
StartChar: uni06E7
Encoding: 1767 1767 510
Width: 0
GlyphClass: 4
Flags: W
AnchorPoint: "Anchor-4" -100 1380 basemark 0
AnchorPoint: "Anchor-4" 0 960 mark 0
AnchorPoint: "Anchor-2" 0 960 mark 0
AnchorPoint: "Anchor-0" 0 960 mark 0
LayerCount: 2
Fore
SplineSet
2 963 m 0,0,1
 -129 963 -129 963 -232.5 981.5 c 128,-1,2
 -336 1000 -336 1000 -336 1020 c 0,3,4
 -336 1039 -336 1039 -316.5 1100 c 128,-1,5
 -297 1161 -297 1161 -289 1169 c 0,6,7
 -242 1216 -242 1216 -154 1242 c 0,8,9
 -74 1265 -74 1265 -53 1307 c 1,10,-1
 -12 1288 l 1,11,12
 -31 1234 -31 1234 -62 1204 c 128,-1,13
 -93 1174 -93 1174 -182 1146 c 0,14,15
 -229 1132 -229 1132 -262 1118 c 1,16,17
 -212 1095 -212 1095 -147 1086 c 128,-1,18
 -82 1077 -82 1077 14 1077 c 0,19,20
 89 1077 89 1077 178 1090.5 c 128,-1,21
 267 1104 267 1104 326 1122 c 1,22,23
 344 1098 344 1098 344 1071 c 0,24,25
 344 1043 344 1043 324 1022 c 128,-1,26
 304 1001 304 1001 243.5 989 c 128,-1,27
 183 977 183 977 117.5 970 c 128,-1,28
 52 963 52 963 2 963 c 0,0,1
EndSplineSet
EndChar
StartChar: uni06E8
Encoding: 1768 1768 511
Width: 0
GlyphClass: 4
Flags: W
AnchorPoint: "Anchor-4" -40 1530 basemark 0
AnchorPoint: "Anchor-4" 0 900 mark 0
AnchorPoint: "Anchor-2" 0 900 mark 0
AnchorPoint: "Anchor-0" 0 900 mark 0
LayerCount: 2
Fore
SplineSet
-57 881 m 0,0,1
 -144 881 -144 881 -188.5 932 c 128,-1,2
 -233 983 -233 983 -233 1079 c 0,3,4
 -233 1131 -233 1131 -209 1219 c 1,5,-1
 -168 1208 l 1,6,7
 -180 1165 -180 1165 -180 1130 c 0,8,9
 -180 1056 -180 1056 -146.5 1025.5 c 128,-1,10
 -113 995 -113 995 -53 995 c 0,11,12
 26 995 26 995 78.5 1016 c 128,-1,13
 131 1037 131 1037 180 1081 c 1,14,-1
 153 1135 l 1,15,16
 98 1233 98 1233 98 1257 c 0,17,18
 98 1305 98 1305 126.5 1334.5 c 128,-1,19
 155 1364 155 1364 197 1384 c 1,20,-1
 207 1313 l 1,21,-1
 219 1243 l 2,22,23
 233 1162 233 1162 233 1116 c 0,24,25
 233 1018 233 1018 149.5 949.5 c 128,-1,26
 66 881 66 881 -57 881 c 0,0,1
47 1380 m 1,27,28
 14 1332 14 1332 -33 1290 c 1,29,30
 -93 1340 -93 1340 -121 1372 c 1,31,-1
 -35 1462 l 1,32,33
 -6 1430 -6 1430 47 1380 c 1,27,28
EndSplineSet
EndChar
StartChar: uni06EA
Encoding: 1770 1770 512
Width: 0
GlyphClass: 4
Flags: W
AnchorPoint: "Anchor-5" 0 -710 basemark 0
AnchorPoint: "Anchor-5" 0 -320 mark 0
AnchorPoint: "Anchor-3" 0 -320 mark 0
AnchorPoint: "Anchor-1" 0 -320 mark 0
LayerCount: 2
Fore
SplineSet
168 -489 m 1,0,-1
 0 -657 l 1,1,-1
 -168 -489 l 1,2,-1
 0 -322 l 1,3,-1
 168 -489 l 1,0,-1
104 -489 m 1,4,-1
 0 -385 l 1,5,-1
 -104 -489 l 1,6,-1
 0 -594 l 1,7,-1
 104 -489 l 1,4,-1
EndSplineSet
EndChar
StartChar: uni06EB
Encoding: 1771 1771 513
Width: 0
GlyphClass: 4
Flags: W
AnchorPoint: "Anchor-4" 0 1460 basemark 0
AnchorPoint: "Anchor-4" 0 1000 mark 0
AnchorPoint: "Anchor-2" 0 1000 mark 0
AnchorPoint: "Anchor-0" 0 1000 mark 0
LayerCount: 2
Fore
SplineSet
168 1157 m 1,0,-1
 0 989 l 1,1,-1
 -168 1157 l 1,2,-1
 0 1325 l 1,3,-1
 168 1157 l 1,0,-1
104 1157 m 1,4,-1
 0 1260 l 1,5,-1
 -104 1157 l 1,6,-1
 0 1053 l 1,7,-1
 104 1157 l 1,4,-1
EndSplineSet
EndChar
StartChar: uni06ED
Encoding: 1773 1773 514
Width: 0
GlyphClass: 4
Flags: W
AnchorPoint: "Anchor-5" 20 -660 basemark 0
AnchorPoint: "Anchor-5" -30 -40 mark 0
AnchorPoint: "Anchor-3" -30 -40 mark 0
AnchorPoint: "Anchor-1" -30 -40 mark 0
LayerCount: 2
Fore
SplineSet
-178 -696 m 1,0,1
 -178 -612 -178 -612 -189 -513 c 1,2,3
 -201 -415 -201 -415 -201 -381 c 0,4,5
 -201 -373 -201 -373 -197 -360 c 128,-1,6
 -193 -347 -193 -347 -160 -266 c 1,7,8
 -155 -257 -155 -257 -75 -243 c 128,-1,9
 5 -229 5 -229 82 -227 c 1,10,-1
 50 -191 l 1,11,12
 21 -153 21 -153 4.5 -139 c 128,-1,13
 -12 -125 -12 -125 -27 -125 c 0,14,15
 -71 -125 -71 -125 -115 -190 c 1,16,-1
 -154 -170 l 1,17,18
 -126 -97 -126 -97 -87 -54.5 c 128,-1,19
 -48 -12 -48 -12 -8 -12 c 0,20,21
 20 -12 20 -12 42 -34 c 128,-1,22
 64 -56 64 -56 86.5 -87.5 c 128,-1,23
 109 -119 109 -119 136.5 -154.5 c 128,-1,24
 164 -190 164 -190 203 -217 c 1,25,-1
 158 -332 l 1,26,27
 93 -332 93 -332 3.5 -341.5 c 128,-1,28
 -86 -351 -86 -351 -137 -367 c 1,29,-1
 -80 -643 l 1,30,31
 -127 -677 -127 -677 -178 -696 c 1,0,1
EndSplineSet
EndChar
StartChar: uni06F4
Encoding: 1780 1780 75
Width: 1210
GlyphClass: 2
Flags: W
LayerCount: 2
Fore
SplineSet
184 1161 m 0,0,1
 184 1240 184 1240 234.5 1300.5 c 128,-1,2
 285 1361 285 1361 377 1397 c 1,3,4
 476 1215 476 1215 545 993 c 1,5,6
 592 975 592 975 666 969 c 1,7,8
 602 1029 602 1029 602 1110 c 0,9,10
 602 1189 602 1189 634.5 1266 c 128,-1,11
 667 1343 667 1343 724 1390.5 c 128,-1,12
 781 1438 781 1438 854 1438 c 0,13,14
 980 1438 980 1438 1090 1235 c 1,15,-1
 1020 1163 l 1,16,17
 935 1212 935 1212 870 1212 c 0,18,19
 843 1212 843 1212 804.5 1201 c 128,-1,20
 766 1190 766 1190 745 1176 c 1,21,22
 745 1104 745 1104 796.5 1059 c 128,-1,23
 848 1014 848 1014 932 1012 c 1,24,25
 1030 1043 1030 1043 1124 1094 c 1,26,27
 1148 1033 1148 1033 1148 983 c 0,28,29
 1148 902 1148 902 1092 847 c 128,-1,30
 1036 792 1036 792 929.5 760.5 c 128,-1,31
 823 729 823 729 737 729 c 0,32,33
 664 729 664 729 608 743 c 1,34,35
 643 574 643 574 643 430 c 0,36,37
 643 284 643 284 631 182 c 128,-1,38
 619 80 619 80 592 -43 c 1,39,-1
 457 -20 l 1,40,41
 454 145 454 145 441.5 272.5 c 128,-1,42
 429 400 429 400 402 525.5 c 128,-1,43
 375 651 375 651 339.5 751 c 128,-1,44
 304 851 304 851 215 1038 c 0,45,46
 184 1102 184 1102 184 1161 c 0,0,1
EndSplineSet
Substitution2: "'locl' Localized Forms in Arabic lookup 1 subtable" uni06F4.urdu
EndChar
StartChar: uni06F5
Encoding: 1781 1781 76
Width: 1155
GlyphClass: 2
Flags: W
LayerCount: 2
Fore
SplineSet
426 1481 m 1,0,1
 664 1257 664 1257 787.5 1088.5 c 128,-1,2
 911 920 911 920 976.5 747.5 c 128,-1,3
 1042 575 1042 575 1042 393 c 0,4,5
 1042 263 1042 263 1004 162.5 c 128,-1,6
 966 62 966 62 898 8.5 c 128,-1,7
 830 -45 830 -45 745 -45 c 0,8,9
 686 -45 686 -45 638 -7.5 c 128,-1,10
 590 30 590 30 575 88 c 1,11,12
 566 29 566 29 521 -8 c 128,-1,13
 476 -45 476 -45 412 -45 c 0,14,15
 274 -45 274 -45 193.5 69.5 c 128,-1,16
 113 184 113 184 113 387 c 0,17,18
 113 552 113 552 171 719.5 c 128,-1,19
 229 887 229 887 367 1083 c 1,20,21
 339 1124 339 1124 339 1189 c 0,22,23
 339 1261 339 1261 364 1341 c 128,-1,24
 389 1421 389 1421 426 1481 c 1,0,1
254 440 m 0,25,26
 254 356 254 356 294 302 c 128,-1,27
 334 248 334 248 403 248 c 0,28,29
 455 248 455 248 483 283.5 c 128,-1,30
 511 319 511 319 524 424 c 1,31,-1
 633 469 l 1,32,33
 633 354 633 354 665.5 301 c 128,-1,34
 698 248 698 248 764 248 c 0,35,36
 826 248 826 248 861.5 287.5 c 128,-1,37
 897 327 897 327 897 401 c 0,38,39
 897 619 897 619 494 971 c 1,40,41
 254 673 254 673 254 440 c 0,25,26
EndSplineSet
EndChar
StartChar: uni075B
Encoding: 1883 1883 612
Width: 1016
GlyphClass: 2
Flags: W
AnchorPoint: "Anchor-1" 360 -600 basechar 0
AnchorPoint: "Anchor-0" 400 1060 basechar 0
LayerCount: 2
Fore
SplineSet
172 0 m 1,0,-1
 639 0 l 1,1,2
 666 53 666 53 680 98 c 1,3,4
 659 142 659 142 640 174 c 128,-1,5
 621 206 621 206 549 318 c 0,6,7
 481 422 481 422 448.5 496.5 c 128,-1,8
 416 571 416 571 416 629 c 0,9,10
 416 699 416 699 473 768.5 c 128,-1,11
 530 838 530 838 618 881 c 1,12,13
 640 789 640 789 672 696 c 128,-1,14
 704 603 704 603 734 512.5 c 128,-1,15
 764 422 764 422 785.5 336.5 c 128,-1,16
 807 251 807 251 807 174 c 0,17,18
 807 80 807 80 788 0 c 1,19,-1
 913 0 l 1,20,-1
 913 -117 l 1,21,-1
 756 -117 l 1,22,23
 690 -301 690 -301 555 -406.5 c 128,-1,24
 420 -512 420 -512 246 -512 c 0,25,26
 201 -512 201 -512 106 -453.5 c 128,-1,27
 11 -395 11 -395 -82 -315 c 1,28,-1
 -43 -215 l 1,29,30
 86 -248 86 -248 201 -248 c 0,31,32
 418 -248 418 -248 551 -117 c 1,33,-1
 172 -117 l 1,34,-1
 172 0 l 1,0,-1
EndSplineSet
Substitution2: "'fina' Terminal Forms in Arabic lookup 3 subtable" uni075B.fina
EndChar
StartChar: uni076A
Encoding: 1898 1898 670
Width: 1475
GlyphClass: 2
Flags: W
AnchorPoint: "Anchor-1" 630 -840 basechar 0
AnchorPoint: "Anchor-0" 460 1480 basechar 0
LayerCount: 2
Fore
SplineSet
705 995 m 1,0,-1
 983 995 l 1,1,-1
 934 1305 l 1,2,-1
 930 1352 l 1,3,4
 930 1454 930 1454 1006.5 1525.5 c 128,-1,5
 1083 1597 1083 1597 1190 1597 c 1,6,7
 1220 1486 1220 1486 1235 1439.5 c 128,-1,8
 1250 1393 1250 1393 1286 1300 c 1,9,-1
 1210 1241 l 1,10,-1
 1231 995 l 1,11,-1
 1384 995 l 1,12,-1
 1384 879 l 1,13,-1
 1241 879 l 1,14,15
 1255 726 1255 726 1282 492 c 1,16,17
 1301 315 1301 315 1316 164.5 c 128,-1,18
 1331 14 1331 14 1331 -106 c 0,19,20
 1331 -266 1331 -266 1235 -403 c 128,-1,21
 1139 -540 1139 -540 972.5 -618 c 128,-1,22
 806 -696 806 -696 606 -696 c 0,23,24
 390 -696 390 -696 277 -569.5 c 128,-1,25
 164 -443 164 -443 164 -201 c 0,26,27
 164 -76 164 -76 223 147 c 1,28,-1
 330 121 l 1,29,30
 297 10 297 10 297 -70 c 0,31,32
 297 -243 297 -243 374 -326.5 c 128,-1,33
 451 -410 451 -410 612 -410 c 0,34,35
 809 -410 809 -410 943 -359 c 128,-1,36
 1077 -308 1077 -308 1196 -197 c 1,37,-1
 1140 107 l 1,38,-1
 1075 463 l 1,39,-1
 1004 879 l 1,40,-1
 705 879 l 1,41,-1
 705 995 l 1,0,-1
EndSplineSet
Substitution2: "'medi' Medial Forms in Arabic lookup 5 subtable" uni076A.medi
Substitution2: "'init' Initial Forms in Arabic lookup 4 subtable" uni076A.init
Substitution2: "'fina' Terminal Forms in Arabic lookup 3 subtable" uni076A.fina
EndChar
StartChar: uni06A9.fina
Encoding: 64399 64399 84
Width: 1911
GlyphClass: 2
Flags: W
AnchorPoint: "Anchor-1" 700 -160 basechar 0
AnchorPoint: "Anchor-0" 1000 1400 basechar 0
LayerCount: 2
Fore
SplineSet
721 -41 m 0,0,1
 498 -41 498 -41 391 -3.5 c 128,-1,2
 284 34 284 34 236 117.5 c 128,-1,3
 188 201 188 201 188 346 c 0,4,5
 188 442 188 442 221 600 c 1,6,-1
 330 596 l 1,7,8
 322 543 322 543 322 506 c 0,9,10
 322 362 322 362 423 304 c 128,-1,11
 524 246 524 246 768 246 c 0,12,13
 863 246 863 246 966.5 264.5 c 128,-1,14
 1070 283 1070 283 1143 313 c 1,15,16
 1101 425 1101 425 1077 469 c 1,17,18
 941 621 941 621 874 753 c 128,-1,19
 807 885 807 885 807 1004 c 0,20,21
 807 1061 807 1061 839.5 1118.5 c 128,-1,22
 872 1176 872 1176 924 1202 c 0,23,24
 1302 1388 1302 1388 1819 1597 c 1,25,26
 1870 1548 1870 1548 1870 1477 c 0,27,28
 1870 1414 1870 1414 1833 1361.5 c 128,-1,29
 1796 1309 1796 1309 1739 1282 c 0,30,31
 1552 1191 1552 1191 1371 1122 c 128,-1,32
 1190 1053 1190 1053 924 965 c 1,33,34
 1145 716 1145 716 1228 633 c 128,-1,35
 1311 550 1311 550 1415 465 c 0,36,37
 1555 350 1555 350 1671.5 308 c 128,-1,38
 1788 266 1788 266 1931 266 c 0,39,40
 1952 266 1952 266 1952 246 c 2,41,-1
 1952 0 l 2,42,43
 1952 -20 1952 -20 1931 -20 c 0,44,45
 1798 -20 1798 -20 1696 2 c 128,-1,46
 1594 24 1594 24 1512.5 69 c 128,-1,47
 1431 114 1431 114 1272 268 c 1,48,49
 1261 180 1261 180 1212 96 c 1,50,51
 1139 43 1139 43 994.5 1 c 128,-1,52
 850 -41 850 -41 721 -41 c 0,0,1
EndSplineSet
EndChar
StartChar: uni06BA.fina
Encoding: 64415 64415 90
Width: 1444
GlyphClass: 2
Flags: W
AnchorPoint: "Anchor-1" 640 -800 basechar 0
AnchorPoint: "Anchor-0" 650 540 basechar 0
LayerCount: 2
Fore
SplineSet
1464 -20 m 0,0,1
 1393 -20 1393 -20 1323 8 c 1,2,3
 1331 -75 1331 -75 1331 -106 c 0,4,5
 1331 -266 1331 -266 1235 -403 c 128,-1,6
 1139 -540 1139 -540 972.5 -618 c 128,-1,7
 806 -696 806 -696 606 -696 c 0,8,9
 390 -696 390 -696 277 -569.5 c 128,-1,10
 164 -443 164 -443 164 -201 c 0,11,12
 164 -76 164 -76 223 147 c 1,13,-1
 330 121 l 1,14,15
 297 10 297 10 297 -70 c 0,16,17
 297 -243 297 -243 374 -326.5 c 128,-1,18
 451 -410 451 -410 612 -410 c 0,19,20
 809 -410 809 -410 943 -359 c 128,-1,21
 1077 -308 1077 -308 1196 -197 c 1,22,23
 1164 -127 1164 -127 1128 -61 c 128,-1,24
 1092 5 1092 5 1062 62 c 128,-1,25
 1032 119 1032 119 1012.5 165.5 c 128,-1,26
 993 212 993 212 993 244 c 0,27,28
 993 446 993 446 1237 561 c 1,29,30
 1251 457 1251 457 1276 313 c 1,31,32
 1358 266 1358 266 1464 266 c 0,33,34
 1485 266 1485 266 1485 246 c 2,35,-1
 1485 0 l 2,36,37
 1485 -20 1485 -20 1464 -20 c 0,0,1
EndSplineSet
EndChar
StartChar: uni06C1.init
Encoding: 64424 64424 78
Width: 664
GlyphClass: 2
Flags: W
AnchorPoint: "Anchor-1" 436 -600 basechar 0
AnchorPoint: "Anchor-0" 260 1100 basechar 0
LayerCount: 2
Fore
SplineSet
418 -492 m 1,0,1
 362 -486 362 -486 329.5 -448 c 128,-1,2
 297 -410 297 -410 297 -360 c 0,3,4
 297 -275 297 -275 337 -185 c 128,-1,5
 377 -95 377 -95 455 8 c 1,6,-1
 528 -37 l 1,7,8
 442 -156 442 -156 442 -252 c 0,9,10
 442 -289 442 -289 468 -312.5 c 128,-1,11
 494 -336 494 -336 553 -354 c 1,12,13
 534 -394 534 -394 508.5 -423.5 c 128,-1,14
 483 -453 483 -453 456.5 -472.5 c 128,-1,15
 430 -492 430 -492 418 -492 c 1,0,1
0 -20 m 0,16,17
 -20 -20 -20 -20 -20 0 c 2,18,-1
 -20 246 l 2,19,20
 -20 266 -20 266 0 266 c 0,21,22
 117 266 117 266 237 284.5 c 128,-1,23
 357 303 357 303 430 334 c 1,24,25
 398 404 398 404 366 461 c 128,-1,26
 334 518 334 518 308.5 564.5 c 128,-1,27
 283 611 283 611 267.5 649 c 128,-1,28
 252 687 252 687 252 719 c 0,29,30
 252 778 252 778 318 849.5 c 128,-1,31
 384 921 384 921 471 963 c 1,32,-1
 502 806 l 1,33,34
 571 480 571 480 571 403 c 0,35,36
 571 301 571 301 477 113 c 1,37,38
 254 -20 254 -20 0 -20 c 0,16,17
EndSplineSet
EndChar
StartChar: uni06C1.medi
Encoding: 64425 64425 79
Width: 993
GlyphClass: 2
Flags: W
AnchorPoint: "Anchor-1" 667 -680 basechar 0
AnchorPoint: "Anchor-0" 500 700 basechar 0
LayerCount: 2
Fore
SplineSet
471 -567 m 1,0,1
 337 -474 337 -474 238 -313 c 128,-1,2
 139 -152 139 -152 133 6 c 1,3,4
 74 -20 74 -20 0 -20 c 0,5,6
 -20 -20 -20 -20 -20 0 c 2,7,-1
 -20 246 l 2,8,9
 -20 266 -20 266 0 266 c 0,10,11
 53 266 53 266 98.5 295 c 128,-1,12
 144 324 144 324 164 371 c 0,13,14
 184 419 184 419 224 451.5 c 128,-1,15
 264 484 264 484 312 484 c 0,16,17
 366 484 366 484 412 440 c 1,18,19
 377 269 377 269 377 141 c 0,20,21
 377 17 377 17 411 -81.5 c 128,-1,22
 445 -180 445 -180 526 -301 c 1,23,24
 549 -133 549 -133 607.5 -2 c 128,-1,25
 666 129 666 129 762 197.5 c 128,-1,26
 858 266 858 266 1008 266 c 0,27,28
 1034 266 1034 266 1034 242 c 2,29,-1
 1034 6 l 2,30,31
 1034 -20 1034 -20 1008 -20 c 0,32,33
 911 -20 911 -20 831 -31 c 128,-1,34
 751 -42 751 -42 713 -59 c 1,35,36
 686 -169 686 -169 678 -239.5 c 128,-1,37
 670 -310 670 -310 668 -436 c 1,38,-1
 471 -567 l 1,0,1
858 -547 m 1,39,40
 802 -541 802 -541 769.5 -503 c 128,-1,41
 737 -465 737 -465 737 -416 c 0,42,43
 737 -352 737 -352 751 -306 c 128,-1,44
 765 -260 765 -260 796 -204 c 128,-1,45
 827 -148 827 -148 883 -74 c 1,46,-1
 956 -119 l 1,47,48
 883 -216 883 -216 883 -307 c 0,49,50
 883 -344 883 -344 908.5 -367.5 c 128,-1,51
 934 -391 934 -391 993 -410 c 1,52,53
 974 -450 974 -450 949 -479.5 c 128,-1,54
 924 -509 924 -509 896 -528 c 128,-1,55
 868 -547 868 -547 858 -547 c 1,39,40
EndSplineSet
EndChar
StartChar: uni06D2.fina
Encoding: 64431 64431 82
Width: 1268
GlyphClass: 2
Flags: W
AnchorPoint: "Anchor-1" 800 -660 basechar 0
AnchorPoint: "Anchor-0" 680 380 basechar 0
LayerCount: 2
Fore
SplineSet
285 -197 m 1,0,1
 530 -266 530 -266 809 -266 c 0,2,3
 979 -266 979 -266 1121.5 -254 c 128,-1,4
 1264 -242 1264 -242 1436 -211 c 1,5,6
 1471 -252 1471 -252 1471 -306 c 0,7,8
 1471 -371 1471 -371 1426.5 -421.5 c 128,-1,9
 1382 -472 1382 -472 1319 -481 c 0,10,11
 1116 -512 1116 -512 793 -512 c 0,12,13
 638 -512 638 -512 484.5 -488 c 128,-1,14
 331 -464 331 -464 227 -428 c 128,-1,15
 123 -392 123 -392 123 -367 c 0,16,17
 123 -339 123 -339 157 -203.5 c 128,-1,18
 191 -68 191 -68 205 -57 c 1,19,20
 376 105 376 105 651.5 185.5 c 128,-1,21
 927 266 927 266 1323 266 c 0,22,23
 1350 266 1350 266 1350 240 c 2,24,-1
 1350 4 l 2,25,26
 1350 -20 1350 -20 1323 -20 c 0,27,28
 1148 -20 1148 -20 988 -33 c 128,-1,29
 828 -46 828 -46 675 -79.5 c 128,-1,30
 522 -113 522 -113 285 -197 c 1,0,1
EndSplineSet
EndChar
StartChar: uniFD3E
Encoding: 64830 64830 745
Width: 1432
GlyphClass: 2
Flags: W
LayerCount: 2
Fore
SplineSet
1296 1645 m 1,0,-1
 1229 1620 l 1,1,2
 1159 1596 1159 1596 1124.5 1544.5 c 128,-1,3
 1090 1493 1090 1493 1071 1385.5 c 128,-1,4
 1052 1278 1052 1278 1014 965 c 1,5,-1
 1001 868 l 2,6,7
 997 838 997 838 915 691 c 1,8,-1
 887 639 l 1,9,10
 840 596 840 596 777.5 564 c 128,-1,11
 715 532 715 532 668 532 c 0,12,13
 606 532 606 532 564.5 573 c 128,-1,14
 523 614 523 614 500 707 c 1,15,16
 618 733 618 733 678 751.5 c 128,-1,17
 738 770 738 770 805 799 c 1,18,19
 797 886 797 886 787.5 1047 c 128,-1,20
 778 1208 778 1208 778 1307 c 0,21,22
 778 1438 778 1438 856.5 1536.5 c 128,-1,23
 935 1635 935 1635 1090 1688 c 2,24,-1
 1262 1747 l 1,25,-1
 1296 1645 l 1,0,-1
438 707 m 1,26,27
 363 597 363 597 240 481 c 1,28,29
 87 608 87 608 20 684 c 1,30,31
 173 837 173 837 236 909 c 1,32,33
 316 817 316 817 438 707 c 1,26,27
899 586 m 1,34,35
 958 483 958 483 979 418 c 0,36,37
 995 367 995 367 1020 236 c 128,-1,38
 1045 105 1045 105 1067 -53 c 0,39,40
 1083 -174 1083 -174 1118 -230.5 c 128,-1,41
 1153 -287 1153 -287 1229 -313 c 1,42,-1
 1296 -338 l 1,43,-1
 1262 -440 l 1,44,-1
 1090 -381 l 2,45,46
 934 -327 934 -327 856 -228.5 c 128,-1,47
 778 -130 778 -130 778 0 c 0,48,49
 778 58 778 58 782 145.5 c 128,-1,50
 786 233 786 233 807 528 c 1,51,-1
 899 586 l 1,34,35
1370 1929 m 1,52,53
 1337 1879 1337 1879 1264 1808 c 1,54,55
 1185 1866 1185 1866 1145 1915 c 1,56,-1
 1209 1979 l 1,57,-1
 1264 2036 l 1,58,-1
 1318 1980 l 1,59,-1
 1370 1929 l 1,52,53
1370 -608 m 1,60,61
 1357 -629 1357 -629 1325.5 -665.5 c 128,-1,62
 1294 -702 1294 -702 1264 -729 c 1,63,64
 1187 -673 1187 -673 1145 -623 c 1,65,-1
 1209 -559 l 1,66,-1
 1264 -502 l 1,67,68
 1291 -533 1291 -533 1318 -558 c 128,-1,69
 1345 -583 1345 -583 1370 -608 c 1,60,61
EndSplineSet
EndChar
StartChar: riyal
Encoding: 65020 65020 563
Width: 2435
GlyphClass: 3
Flags: W
AnchorPoint: "Anchor-3" 2400 -540 baselig 0
AnchorPoint: "Anchor-2" 2180 1480 baselig 0
AnchorPoint: "Anchor-3" 1848 -600 baselig 1
AnchorPoint: "Anchor-2" 1660 1900 baselig 1
AnchorPoint: "Anchor-3" 1230 -600 baselig 2
AnchorPoint: "Anchor-2" 1020 1790 baselig 2
AnchorPoint: "Anchor-3" 540 -700 baselig 3
AnchorPoint: "Anchor-2" 560 1070 baselig 3
LayerCount: 2
Fore
SplineSet
1126 315 m 1,0,1
 1013 165 1013 165 920.5 98 c 128,-1,2
 828 31 828 31 748 31 c 0,3,4
 424 31 424 31 424 487 c 0,5,6
 424 669 424 669 539 936 c 1,7,-1
 662 897 l 1,8,9
 588 705 588 705 588 569 c 0,10,11
 588 455 588 455 624 386 c 128,-1,12
 660 317 660 317 725 317 c 0,13,14
 811 317 811 317 892 376 c 128,-1,15
 973 435 973 435 1079 582 c 1,16,-1
 1075 606 l 1,17,-1
 1027 888 l 1,18,-1
 934 1448 l 1,19,-1
 930 1495 l 1,20,21
 930 1597 930 1597 1007.5 1669 c 128,-1,22
 1085 1741 1085 1741 1190 1741 c 1,23,24
 1223 1620 1223 1620 1237 1578 c 128,-1,25
 1251 1536 1251 1536 1286 1444 c 1,26,-1
 1210 1384 l 1,27,28
 1231 1112 1231 1112 1260 834 c 1,29,30
 1351 956 1351 956 1417 1028 c 1,31,-1
 1356 1642 l 1,32,-1
 1642 1802 l 1,33,-1
 1630 1229 l 1,34,35
 1760 1317 1760 1317 1901 1317 c 0,36,37
 1992 1317 1992 1317 2054 1259 c 128,-1,38
 2116 1201 2116 1201 2116 1118 c 0,39,40
 2116 1083 2116 1083 2101 1045.5 c 128,-1,41
 2086 1008 2086 1008 2063 979 c 128,-1,42
 2040 950 2040 950 2028 950 c 1,43,44
 2000 1000 2000 1000 1960 1020 c 128,-1,45
 1920 1040 1920 1040 1862 1040 c 0,46,47
 1737 1040 1737 1040 1626 961 c 1,48,49
 1622 649 1622 649 1622 334 c 1,50,51
 1679 296 1679 296 1740.5 281 c 128,-1,52
 1802 266 1802 266 1886 266 c 0,53,54
 2024 266 2024 266 2134 313 c 1,55,56
 2102 384 2102 384 2070.5 436.5 c 128,-1,57
 2039 489 2039 489 2014 530 c 128,-1,58
 1989 571 1989 571 1973.5 604.5 c 128,-1,59
 1958 638 1958 638 1958 670 c 0,60,61
 1958 730 1958 730 2024.5 800.5 c 128,-1,62
 2091 871 2091 871 2177 913 c 1,63,-1
 2207 761 l 1,64,65
 2247 576 2247 576 2261 499.5 c 128,-1,66
 2275 423 2275 423 2275 383 c 0,67,68
 2275 280 2275 280 2181 92 c 1,69,70
 2100 43 2100 43 2002.5 11.5 c 128,-1,71
 1905 -20 1905 -20 1841 -20 c 0,72,73
 1698 -20 1698 -20 1618.5 30 c 128,-1,74
 1539 80 1539 80 1520 197 c 1,75,76
 1483 408 1483 408 1444 776 c 1,77,78
 1374 691 1374 691 1290 557 c 1,79,80
 1306 404 1306 404 1318.5 273.5 c 128,-1,81
 1331 143 1331 143 1331 37 c 0,82,83
 1331 -123 1331 -123 1235 -260 c 128,-1,84
 1139 -397 1139 -397 972.5 -475 c 128,-1,85
 806 -553 806 -553 606 -553 c 0,86,87
 390 -553 390 -553 277 -426.5 c 128,-1,88
 164 -300 164 -300 164 -57 c 0,89,90
 164 68 164 68 223 291 c 1,91,-1
 330 264 l 1,92,93
 297 156 297 156 297 74 c 0,94,95
 297 -99 297 -99 374 -182.5 c 128,-1,96
 451 -266 451 -266 612 -266 c 0,97,98
 809 -266 809 -266 943 -215 c 128,-1,99
 1077 -164 1077 -164 1196 -53 c 1,100,-1
 1126 315 l 1,0,1
1911 -362 m 1,101,102
 1851 -453 1851 -453 1726 -573 c 1,103,104
 1590 -463 1590 -463 1522 -383 c 1,105,106
 1595 -316 1595 -316 1679 -223 c 2,107,-1
 1722 -176 l 1,108,109
 1793 -254 1793 -254 1911 -362 c 1,101,102
2312 -317 m 1,110,111
 2247 -416 2247 -416 2130 -528 c 1,112,113
 1995 -423 1995 -423 1925 -340 c 1,114,115
 2017 -254 2017 -254 2124 -131 c 1,116,117
 2176 -187 2176 -187 2312 -317 c 1,110,111
EndSplineSet
Ligature2: "'liga' Standard Ligatures in Arabic lookup 8 subtable" uni0631 uni064A.init uni0627.fina uni0644
EndChar
StartChar: uni0627.fina
Encoding: 65166 65166 6
Width: 694
GlyphClass: 2
Flags: W
AnchorPoint: "Anchor-1" 460 -140 basechar 0
AnchorPoint: "Anchor-0" 300 1680 basechar 0
LayerCount: 2
Fore
SplineSet
471 1597 m 1,0,1
 451 717 451 717 451 334 c 1,2,3
 504 298 504 298 565 282 c 128,-1,4
 626 266 626 266 715 266 c 0,5,6
 735 266 735 266 735 246 c 2,7,-1
 735 0 l 2,8,9
 735 -20 735 -20 715 -20 c 0,10,11
 552 -20 552 -20 458.5 36.5 c 128,-1,12
 365 93 365 93 348 197 c 0,13,14
 251 792 251 792 184 1438 c 1,15,-1
 471 1597 l 1,0,1
EndSplineSet
EndChar
StartChar: uni062D.fina
Encoding: 65186 65186 10
Width: 1745
GlyphClass: 2
Flags: W
AnchorPoint: "Anchor-1" 400 -950 basechar 0
AnchorPoint: "Anchor-0" 800 1000 basechar 0
LayerCount: 2
Fore
SplineSet
494 567 m 0,0,1
 446 567 446 567 409 560 c 128,-1,2
 372 553 372 553 339 539.5 c 128,-1,3
 306 526 306 526 219 473 c 1,4,5
 198 494 198 494 181 537.5 c 128,-1,6
 164 581 164 581 164 618 c 0,7,8
 164 730 164 730 251.5 792 c 128,-1,9
 339 854 339 854 485 854 c 0,10,11
 564 854 564 854 649 834.5 c 128,-1,12
 734 815 734 815 871 765 c 0,13,14
 995 719 995 719 1093 697.5 c 128,-1,15
 1191 676 1191 676 1290 676 c 2,16,-1
 1338 676 l 2,17,18
 1457 676 1457 676 1509 680 c 1,19,-1
 1411 410 l 1,20,21
 1363 401 1363 401 1233 401 c 2,22,-1
 1176 401 l 1,23,24
 1210 338 1210 338 1256 312 c 128,-1,25
 1302 286 1302 286 1389.5 276 c 128,-1,26
 1477 266 1477 266 1765 266 c 0,27,28
 1786 266 1786 266 1786 246 c 2,29,-1
 1786 0 l 2,30,31
 1786 -20 1786 -20 1765 -20 c 0,32,33
 1554 -20 1554 -20 1451 -1.5 c 128,-1,34
 1348 17 1348 17 1280 58.5 c 128,-1,35
 1212 100 1212 100 1159 177 c 128,-1,36
 1106 254 1106 254 1055 391 c 1,37,38
 868 342 868 342 706 242.5 c 128,-1,39
 544 143 544 143 460.5 28 c 128,-1,40
 377 -87 377 -87 377 -205 c 0,41,42
 377 -380 377 -380 526 -482 c 128,-1,43
 675 -584 675 -584 905 -584 c 0,44,45
 1079 -584 1079 -584 1366 -518 c 1,46,-1
 1399 -621 l 1,47,48
 1127 -781 1127 -781 1036 -820.5 c 128,-1,49
 945 -860 945 -860 891 -860 c 0,50,51
 254 -860 254 -860 254 -231 c 0,52,53
 254 -10 254 -10 391 187 c 128,-1,54
 528 384 528 384 756 498 c 1,55,56
 680 526 680 526 616 546.5 c 128,-1,57
 552 567 552 567 494 567 c 0,0,1
EndSplineSet
EndChar
StartChar: uni062D.medi
Encoding: 65188 65188 9
Width: 1583
GlyphClass: 2
Flags: W
AnchorPoint: "Anchor-1" 600 -422 basechar 0
AnchorPoint: "Anchor-0" 800 1250 basechar 0
LayerCount: 2
Fore
SplineSet
0 -20 m 0,0,1
 -20 -20 -20 -20 -20 0 c 2,2,-1
 -20 246 l 2,3,4
 -20 266 -20 266 0 266 c 0,5,6
 214 266 214 266 286.5 270.5 c 128,-1,7
 359 275 359 275 420.5 284.5 c 128,-1,8
 482 294 482 294 537 311 c 0,9,10
 728 370 728 370 831 391 c 1,11,12
 772 422 772 422 725.5 453 c 128,-1,13
 679 484 679 484 637.5 509.5 c 128,-1,14
 596 535 596 535 554.5 551 c 128,-1,15
 513 567 513 567 465 567 c 0,16,17
 394 567 394 567 334 549 c 128,-1,18
 274 531 274 531 180 473 c 1,19,20
 159 494 159 494 142 537.5 c 128,-1,21
 125 581 125 581 125 618 c 0,22,23
 125 688 125 688 168.5 741 c 128,-1,24
 212 794 212 794 289.5 824 c 128,-1,25
 367 854 367 854 457 854 c 0,26,27
 532 854 532 854 604.5 827 c 128,-1,28
 677 800 677 800 765 741 c 0,29,30
 843 688 843 688 910 651 c 128,-1,31
 977 614 977 614 1027 594 c 128,-1,32
 1077 574 1077 574 1155.5 552 c 128,-1,33
 1234 530 1234 530 1306 522 c 128,-1,34
 1378 514 1378 514 1481 514 c 1,35,-1
 1364 274 l 1,36,37
 1424 266 1424 266 1604 266 c 0,38,39
 1624 266 1624 266 1624 246 c 2,40,-1
 1624 0 l 2,41,42
 1624 -20 1624 -20 1604 -20 c 0,43,44
 1400 -20 1400 -20 1259 15.5 c 128,-1,45
 1118 51 1118 51 1118 98 c 0,46,47
 1118 151 1118 151 1151 283 c 1,48,-1
 1112 291 l 1,49,50
 1023 274 1023 274 936.5 235.5 c 128,-1,51
 850 197 850 197 750 135 c 0,52,53
 674 89 674 89 609.5 60 c 128,-1,54
 545 31 545 31 477 13.5 c 128,-1,55
 409 -4 409 -4 326.5 -12 c 128,-1,56
 244 -20 244 -20 0 -20 c 0,0,1
EndSplineSet
Colour: ffff00
EndChar
StartChar: uni0631.fina
Encoding: 65198 65198 13
Width: 952
GlyphClass: 2
Flags: W
AnchorPoint: "Anchor-1" 360 -600 basechar 0
AnchorPoint: "Anchor-0" 400 1060 basechar 0
LayerCount: 2
Fore
SplineSet
973 -20 m 0,0,1
 878 -20 878 -20 795 27 c 1,2,3
 751 -219 751 -219 601 -365.5 c 128,-1,4
 451 -512 451 -512 246 -512 c 0,5,6
 201 -512 201 -512 106 -453.5 c 128,-1,7
 11 -395 11 -395 -82 -315 c 1,8,-1
 -43 -215 l 1,9,10
 86 -248 86 -248 201 -248 c 0,11,12
 378 -248 378 -248 502 -158.5 c 128,-1,13
 626 -69 626 -69 680 98 c 1,14,15
 659 142 659 142 640 174 c 128,-1,16
 621 206 621 206 549 318 c 0,17,18
 481 422 481 422 448.5 496.5 c 128,-1,19
 416 571 416 571 416 629 c 0,20,21
 416 699 416 699 473 768.5 c 128,-1,22
 530 838 530 838 618 881 c 1,23,24
 641 784 641 784 708 590 c 0,25,26
 770 410 770 410 791 309 c 1,27,28
 870 266 870 266 973 266 c 0,29,30
 993 266 993 266 993 246 c 2,31,-1
 993 0 l 2,32,33
 993 -20 993 -20 973 -20 c 0,0,1
EndSplineSet
EndChar
StartChar: uni0633.init
Encoding: 65203 65203 15
Width: 1686
GlyphClass: 2
Flags: W
AnchorPoint: "Anchor-1" 800 -160 basechar 0
AnchorPoint: "Anchor-0" 800 880 basechar 0
LayerCount: 2
Fore
SplineSet
1462 -41 m 1,0,1
 1309 -41 1309 -41 1155.5 -6 c 128,-1,2
 1002 29 1002 29 887 82 c 1,3,-1
 858 25 l 1,4,5
 842 -2 842 -2 747.5 -21.5 c 128,-1,6
 653 -41 653 -41 555 -41 c 0,7,8
 435 -41 435 -41 276 35 c 1,9,10
 233 13 233 13 160.5 -3.5 c 128,-1,11
 88 -20 88 -20 0 -20 c 0,12,13
 -20 -20 -20 -20 -20 0 c 2,14,-1
 -20 246 l 2,15,16
 -20 266 -20 266 0 266 c 0,17,18
 107 266 107 266 164 279.5 c 128,-1,19
 221 293 221 293 256.5 327.5 c 128,-1,20
 292 362 292 362 339 444 c 2,21,-1
 377 510 l 2,22,23
 393 536 393 536 419 553 c 128,-1,24
 445 570 445 570 477 570 c 0,25,26
 514 570 514 570 551 545 c 1,27,28
 523 477 523 477 494.5 401 c 128,-1,29
 466 325 466 325 434 254 c 1,30,31
 488 246 488 246 567 246 c 0,32,33
 629 246 629 246 659.5 251 c 128,-1,34
 690 256 690 256 739 272 c 1,35,36
 766 317 766 317 841 516 c 2,37,-1
 872 598 l 1,38,39
 885 628 885 628 915.5 649 c 128,-1,40
 946 670 946 670 989 670 c 0,41,42
 1036 670 1036 670 1075 643 c 1,43,44
 1045 572 1045 572 1000 420 c 1,45,-1
 973 332 l 1,46,47
 1066 285 1066 285 1178 261 c 128,-1,48
 1290 237 1290 237 1423 223 c 1,49,50
 1391 294 1391 294 1358.5 355.5 c 128,-1,51
 1326 417 1326 417 1300.5 468.5 c 128,-1,52
 1275 520 1275 520 1259 562.5 c 128,-1,53
 1243 605 1243 605 1243 637 c 0,54,55
 1243 696 1243 696 1309 767.5 c 128,-1,56
 1375 839 1375 839 1462 881 c 1,57,-1
 1493 721 l 1,58,59
 1563 376 1563 376 1563 301 c 0,60,61
 1563 246 1563 246 1532.5 142.5 c 128,-1,62
 1502 39 1502 39 1462 -41 c 1,0,1
EndSplineSet
EndChar
StartChar: uni0633.medi
Encoding: 65204 65204 16
Width: 1679
GlyphClass: 2
Flags: W
AnchorPoint: "Anchor-1" 800 -160 basechar 0
AnchorPoint: "Anchor-0" 800 880 basechar 0
LayerCount: 2
Fore
SplineSet
477 570 m 0,0,1
 514 570 514 570 551 545 c 1,2,3
 523 477 523 477 494.5 401 c 128,-1,4
 466 325 466 325 434 254 c 1,5,6
 488 246 488 246 567 246 c 0,7,8
 629 246 629 246 659.5 251 c 128,-1,9
 690 256 690 256 739 272 c 1,10,11
 766 317 766 317 841 516 c 2,12,-1
 872 598 l 1,13,14
 885 628 885 628 915.5 649 c 128,-1,15
 946 670 946 670 989 670 c 0,16,17
 1036 670 1036 670 1075 643 c 1,18,19
 1037 550 1037 550 978 347 c 1,20,-1
 944 238 l 1,21,-1
 980 236 l 1,22,-1
 1010 236 l 2,23,24
 1099 236 1099 236 1182 262 c 1,25,26
 1210 308 1210 308 1288 532 c 1,27,-1
 1321 618 l 1,28,29
 1334 648 1334 648 1365.5 669 c 128,-1,30
 1397 690 1397 690 1440 690 c 0,31,32
 1485 690 1485 690 1524 666 c 1,33,34
 1493 589 1493 589 1444 424 c 1,35,-1
 1415 330 l 1,36,37
 1472 295 1472 295 1538.5 280.5 c 128,-1,38
 1605 266 1605 266 1700 266 c 0,39,40
 1720 266 1720 266 1720 246 c 2,41,-1
 1720 0 l 2,42,43
 1720 -20 1720 -20 1700 -20 c 0,44,45
 1601 -20 1601 -20 1502 22 c 128,-1,46
 1403 64 1403 64 1346 125 c 1,47,48
 1312 43 1312 43 1300 25 c 0,49,50
 1281 -6 1281 -6 1207.5 -23.5 c 128,-1,51
 1134 -41 1134 -41 1038 -41 c 0,52,53
 1004 -41 1004 -41 947.5 -25.5 c 128,-1,54
 891 -10 891 -10 844 10 c 1,55,56
 809 -12 809 -12 725 -26.5 c 128,-1,57
 641 -41 641 -41 555 -41 c 0,58,59
 435 -41 435 -41 276 35 c 1,60,61
 233 13 233 13 160.5 -3.5 c 128,-1,62
 88 -20 88 -20 0 -20 c 0,63,64
 -20 -20 -20 -20 -20 0 c 2,65,-1
 -20 246 l 2,66,67
 -20 266 -20 266 0 266 c 0,68,69
 107 266 107 266 164 279.5 c 128,-1,70
 221 293 221 293 256.5 327.5 c 128,-1,71
 292 362 292 362 339 444 c 2,72,-1
 377 510 l 2,73,74
 393 536 393 536 419 553 c 128,-1,75
 445 570 445 570 477 570 c 0,0,1
EndSplineSet
EndChar
StartChar: uni0635.fina
Encoding: 65210 65210 21
Width: 2859
GlyphClass: 2
Flags: W
AnchorPoint: "Anchor-1" 1800 -160 basechar 0
AnchorPoint: "Anchor-0" 1700 1060 basechar 0
LayerCount: 2
Fore
SplineSet
2879 -20 m 0,0,1
 2764 -20 2764 -20 2652 32 c 128,-1,2
 2540 84 2540 84 2458 176 c 1,3,4
 2382 107 2382 107 2273 59 c 128,-1,5
 2164 11 2164 11 2035.5 -15 c 128,-1,6
 1907 -41 1907 -41 1786 -41 c 0,7,8
 1676 -41 1676 -41 1552 -26.5 c 128,-1,9
 1428 -12 1428 -12 1323 16 c 1,10,11
 1331 -69 1331 -69 1331 -106 c 0,12,13
 1331 -266 1331 -266 1235 -403 c 128,-1,14
 1139 -540 1139 -540 972.5 -618 c 128,-1,15
 806 -696 806 -696 606 -696 c 0,16,17
 390 -696 390 -696 277 -569.5 c 128,-1,18
 164 -443 164 -443 164 -201 c 0,19,20
 164 -76 164 -76 223 147 c 1,21,-1
 330 121 l 1,22,23
 297 10 297 10 297 -70 c 0,24,25
 297 -243 297 -243 374 -326.5 c 128,-1,26
 451 -410 451 -410 612 -410 c 0,27,28
 809 -410 809 -410 943 -359 c 128,-1,29
 1077 -308 1077 -308 1196 -197 c 1,30,31
 1164 -127 1164 -127 1128 -61 c 128,-1,32
 1092 5 1092 5 1062 62 c 128,-1,33
 1032 119 1032 119 1012.5 165.5 c 128,-1,34
 993 212 993 212 993 244 c 0,35,36
 993 446 993 446 1237 561 c 1,37,38
 1250 462 1250 462 1276 307 c 1,39,-1
 1350 285 l 1,40,41
 1601 615 1601 615 1790 768.5 c 128,-1,42
 1979 922 1979 922 2116 922 c 0,43,44
 2200 922 2200 922 2312.5 852.5 c 128,-1,45
 2425 783 2425 783 2514 678 c 128,-1,46
 2603 573 2603 573 2603 502 c 0,47,48
 2603 424 2603 424 2580 358 c 1,49,50
 2638 317 2638 317 2708 291.5 c 128,-1,51
 2778 266 2778 266 2879 266 c 0,52,53
 2900 266 2900 266 2900 246 c 2,54,-1
 2900 0 l 2,55,56
 2900 -20 2900 -20 2879 -20 c 0,0,1
2056 639 m 0,57,58
 1848 639 1848 639 1511 248 c 1,59,60
 1659 225 1659 225 1810 225 c 0,61,62
 1971 225 1971 225 2116.5 260 c 128,-1,63
 2262 295 2262 295 2464 391 c 1,64,65
 2249 639 2249 639 2056 639 c 0,57,58
EndSplineSet
EndChar
StartChar: uni0635.medi
Encoding: 65212 65212 20
Width: 2038
GlyphClass: 2
Flags: W
AnchorPoint: "Anchor-1" 940 -160 basechar 0
AnchorPoint: "Anchor-0" 940 1060 basechar 0
LayerCount: 2
Fore
SplineSet
2058 -20 m 0,0,1
 1940 -20 1940 -20 1830.5 31 c 128,-1,2
 1721 82 1721 82 1640 170 c 1,3,4
 1533 75 1533 75 1350 17 c 128,-1,5
 1167 -41 1167 -41 975 -41 c 0,6,7
 787 -41 787 -41 610 -6 c 128,-1,8
 433 29 433 29 322 88 c 1,9,-1
 305 68 l 1,10,11
 267 30 267 30 181.5 5 c 128,-1,12
 96 -20 96 -20 0 -20 c 0,13,14
 -20 -20 -20 -20 -20 0 c 2,15,-1
 -20 246 l 2,16,17
 -20 266 -20 266 0 266 c 0,18,19
 102 266 102 266 149 278 c 128,-1,20
 196 290 196 290 231.5 323.5 c 128,-1,21
 267 357 267 357 315 444 c 2,22,-1
 352 510 l 2,23,24
 368 539 368 539 396.5 557 c 128,-1,25
 425 575 425 575 461 575 c 0,26,27
 500 575 500 575 537 551 c 1,28,-1
 492 436 l 1,29,-1
 442 315 l 1,30,31
 487 298 487 298 539 285 c 1,32,33
 790 615 790 615 979 768.5 c 128,-1,34
 1168 922 1168 922 1305 922 c 0,35,36
 1389 922 1389 922 1501.5 852.5 c 128,-1,37
 1614 783 1614 783 1703 678 c 128,-1,38
 1792 573 1792 573 1792 502 c 0,39,40
 1792 429 1792 429 1767 352 c 1,41,42
 1824 314 1824 314 1892.5 290 c 128,-1,43
 1961 266 1961 266 2058 266 c 0,44,45
 2079 266 2079 266 2079 246 c 2,46,-1
 2079 0 l 2,47,48
 2079 -20 2079 -20 2058 -20 c 0,0,1
1245 639 m 0,49,50
 1037 639 1037 639 700 248 c 1,51,52
 848 225 848 225 999 225 c 0,53,54
 1160 225 1160 225 1305.5 260 c 128,-1,55
 1451 295 1451 295 1653 391 c 1,56,57
 1438 639 1438 639 1245 639 c 0,49,50
EndSplineSet
EndChar
StartChar: uni0637.fina
Encoding: 65218 65218 25
Width: 2107
GlyphClass: 2
Flags: W
AnchorPoint: "Anchor-1" 940 -160 basechar 0
AnchorPoint: "Anchor-0" 1120 1600 basechar 0
LayerCount: 2
Fore
SplineSet
1051 -41 m 0,0,1
 914 -41 914 -41 738 -30.5 c 128,-1,2
 562 -20 562 -20 504 -2 c 1,3,4
 452 13 452 13 344.5 87.5 c 128,-1,5
 237 162 237 162 164 231 c 1,6,-1
 201 334 l 1,7,8
 460 273 460 273 594 256 c 1,9,10
 640 320 640 320 690 379 c 1,11,12
 612 716 612 716 502 1305 c 0,13,14
 497 1333 497 1333 497 1360 c 0,15,16
 497 1461 497 1461 567.5 1529 c 128,-1,17
 638 1597 638 1597 741 1597 c 1,18,19
 783 1445 783 1445 838 1300 c 1,20,-1
 762 1241 l 1,21,-1
 815 530 l 1,22,23
 995 733 995 733 1132.5 827.5 c 128,-1,24
 1270 922 1270 922 1380 922 c 0,25,26
 1463 922 1463 922 1576 853 c 128,-1,27
 1689 784 1689 784 1778.5 678.5 c 128,-1,28
 1868 573 1868 573 1868 502 c 0,29,30
 1868 421 1868 421 1841 350 c 1,31,32
 1898 312 1898 312 1965.5 289 c 128,-1,33
 2033 266 2033 266 2128 266 c 0,34,35
 2148 266 2148 266 2148 246 c 2,36,-1
 2148 0 l 2,37,38
 2148 -20 2148 -20 2128 -20 c 0,39,40
 2015 -20 2015 -20 1906.5 28.5 c 128,-1,41
 1798 77 1798 77 1712 168 c 1,42,43
 1598 69 1598 69 1416 14 c 128,-1,44
 1234 -41 1234 -41 1051 -41 c 0,0,1
1321 639 m 0,45,46
 1114 639 1114 639 766 236 c 1,47,48
 874 225 874 225 1075 225 c 0,49,50
 1236 225 1236 225 1381.5 260 c 128,-1,51
 1527 295 1527 295 1729 391 c 1,52,53
 1514 639 1514 639 1321 639 c 0,45,46
EndSplineSet
EndChar
StartChar: uni0637.init
Encoding: 65219 65219 23
Width: 1669
GlyphClass: 2
Flags: W
AnchorPoint: "Anchor-1" 680 -160 basechar 0
AnchorPoint: "Anchor-0" 800 1600 basechar 0
LayerCount: 2
Fore
SplineSet
0 -20 m 0,0,1
 -20 -20 -20 -20 -20 0 c 2,2,-1
 -20 246 l 2,3,4
 -20 266 -20 266 0 266 c 2,5,-1
 107 266 l 1,6,-1
 246 268 l 1,7,-1
 346 403 l 1,8,9
 320 515 320 515 298.5 617 c 128,-1,10
 277 719 277 719 164 1305 c 0,11,12
 159 1333 159 1333 159 1360 c 0,13,14
 159 1461 159 1461 229.5 1529 c 128,-1,15
 300 1597 300 1597 403 1597 c 1,16,17
 445 1445 445 1445 500 1300 c 1,18,-1
 424 1241 l 1,19,-1
 475 565 l 1,20,21
 815 963 815 963 1057 963 c 0,22,23
 1133 963 1133 963 1213.5 928.5 c 128,-1,24
 1294 894 1294 894 1370.5 828.5 c 128,-1,25
 1447 763 1447 763 1496.5 689 c 128,-1,26
 1546 615 1546 615 1546 571 c 0,27,28
 1546 381 1546 381 1381.5 250 c 128,-1,29
 1217 119 1217 119 884.5 49.5 c 128,-1,30
 552 -20 552 -20 0 -20 c 0,0,1
997 670 m 0,31,32
 778 670 778 670 436 272 c 1,33,-1
 692 285 l 1,34,35
 907 297 907 297 1204 381 c 1,36,-1
 1389 432 l 1,37,38
 1309 523 1309 523 1247 574 c 128,-1,39
 1185 625 1185 625 1128.5 647.5 c 128,-1,40
 1072 670 1072 670 997 670 c 0,31,32
EndSplineSet
EndChar
StartChar: uni0637.medi
Encoding: 65220 65220 24
Width: 1700
GlyphClass: 2
Flags: W
AnchorPoint: "Anchor-1" 680 -160 basechar 0
AnchorPoint: "Anchor-0" 800 1600 basechar 0
LayerCount: 2
Fore
SplineSet
0 -20 m 0,0,1
 -20 -20 -20 -20 -20 0 c 2,2,-1
 -20 246 l 2,3,4
 -20 266 -20 266 0 266 c 2,5,-1
 107 266 l 1,6,-1
 246 268 l 1,7,-1
 346 403 l 1,8,9
 320 515 320 515 298.5 617 c 128,-1,10
 277 719 277 719 164 1305 c 0,11,12
 159 1333 159 1333 159 1360 c 0,13,14
 159 1461 159 1461 229.5 1529 c 128,-1,15
 300 1597 300 1597 403 1597 c 1,16,17
 445 1445 445 1445 500 1300 c 1,18,-1
 424 1241 l 1,19,-1
 475 565 l 1,20,21
 815 963 815 963 1057 963 c 0,22,23
 1133 963 1133 963 1213.5 928.5 c 128,-1,24
 1294 894 1294 894 1370.5 828.5 c 128,-1,25
 1447 763 1447 763 1496.5 689 c 128,-1,26
 1546 615 1546 615 1546 571 c 0,27,28
 1546 435 1546 435 1464 332 c 1,29,30
 1573 266 1573 266 1720 266 c 0,31,32
 1741 266 1741 266 1741 246 c 2,33,-1
 1741 0 l 2,34,35
 1741 -20 1741 -20 1720 -20 c 0,36,37
 1597 -20 1597 -20 1481.5 36.5 c 128,-1,38
 1366 93 1366 93 1288 186 c 1,39,40
 1106 86 1106 86 796 33 c 128,-1,41
 486 -20 486 -20 0 -20 c 0,0,1
997 670 m 0,42,43
 778 670 778 670 436 272 c 1,44,-1
 692 285 l 1,45,46
 907 297 907 297 1204 381 c 1,47,-1
 1389 432 l 1,48,49
 1309 523 1309 523 1247 574 c 128,-1,50
 1185 625 1185 625 1128.5 647.5 c 128,-1,51
 1072 670 1072 670 997 670 c 0,42,43
EndSplineSet
EndChar
StartChar: uni0639.fina
Encoding: 65226 65226 29
Width: 1149
GlyphClass: 2
Flags: W
AnchorPoint: "Anchor-1" 340 -880 basechar 0
AnchorPoint: "Anchor-0" 480 1100 basechar 0
LayerCount: 2
Fore
SplineSet
1165 -20 m 0,0,1
 994 -20 994 -20 869.5 17 c 128,-1,2
 745 54 745 54 651 135 c 1,3,4
 524 59 524 59 454.5 -31 c 128,-1,5
 385 -121 385 -121 385 -205 c 0,6,7
 385 -322 385 -322 453.5 -407 c 128,-1,8
 522 -492 522 -492 643.5 -538 c 128,-1,9
 765 -584 765 -584 913 -584 c 0,10,11
 1099 -584 1099 -584 1386 -518 c 1,12,-1
 1419 -621 l 1,13,-1
 1329 -673 l 1,14,15
 1017 -860 1017 -860 907 -860 c 0,16,17
 590 -860 590 -860 426 -705.5 c 128,-1,18
 262 -551 262 -551 262 -240 c 0,19,20
 262 32 262 32 539 254 c 1,21,-1
 484 324 l 1,22,23
 387 455 387 455 272 547 c 1,24,-1
 229 518 l 1,25,26
 165 589 165 589 165 672 c 0,27,28
 165 751 165 751 234.5 811.5 c 128,-1,29
 304 872 304 872 429 917.5 c 128,-1,30
 554 963 554 963 674 963 c 0,31,32
 778 963 778 963 872 916.5 c 128,-1,33
 966 870 966 870 1020.5 791 c 128,-1,34
 1075 712 1075 712 1075 621 c 0,35,36
 1075 448 1075 448 874 281 c 1,37,38
 958 266 958 266 1165 266 c 0,39,40
 1190 266 1190 266 1190 244 c 2,41,-1
 1190 2 l 2,42,43
 1190 -20 1190 -20 1165 -20 c 0,0,1
682 696 m 0,44,45
 554 696 554 696 428 637 c 1,46,47
 508 572 508 572 632 433 c 1,48,-1
 694 369 l 1,49,50
 771 423 771 423 802.5 468.5 c 128,-1,51
 834 514 834 514 834 567 c 0,52,53
 834 625 834 625 790.5 660.5 c 128,-1,54
 747 696 747 696 682 696 c 0,44,45
EndSplineSet
EndChar
StartChar: uni0639.init
Encoding: 65227 65227 27
Width: 1245
GlyphClass: 2
Flags: W
AnchorPoint: "Anchor-1" 500 -432 basechar 0
AnchorPoint: "Anchor-0" 440 1348 basechar 0
LayerCount: 2
Fore
SplineSet
0 -20 m 0,0,1
 -20 -20 -20 -20 -20 0 c 2,2,-1
 -20 246 l 2,3,4
 -20 266 -20 266 0 266 c 2,5,-1
 128 265 l 1,6,-1
 188 266 l 1,7,8
 137 334 137 334 137 414 c 0,9,10
 137 527 137 527 201 656 c 128,-1,11
 265 785 265 785 355.5 857.5 c 128,-1,12
 446 930 446 930 541 930 c 0,13,14
 709 930 709 930 907 707 c 1,15,-1
 856 610 l 1,16,17
 711 666 711 666 602 666 c 0,18,19
 519 666 519 666 454.5 648.5 c 128,-1,20
 390 631 390 631 309 588 c 1,21,22
 314 488 314 488 360.5 405 c 128,-1,23
 407 322 407 322 504 274 c 1,24,25
 855 291 855 291 1145 408 c 1,26,27
 1161 393 1161 393 1172 360.5 c 128,-1,28
 1183 328 1183 328 1183 290 c 0,29,30
 1183 234 1183 234 1159 190.5 c 128,-1,31
 1135 147 1135 147 1092.5 120.5 c 128,-1,32
 1050 94 1050 94 864 54.5 c 128,-1,33
 678 15 678 15 476 -2.5 c 128,-1,34
 274 -20 274 -20 0 -20 c 0,0,1
EndSplineSet
Colour: ffff00
EndChar
StartChar: uni0639.medi
Encoding: 65228 65228 28
Width: 1079
GlyphClass: 2
Flags: W
AnchorPoint: "Anchor-1" 500 -160 basechar 0
AnchorPoint: "Anchor-0" 440 1100 basechar 0
LayerCount: 2
Fore
SplineSet
1096 -20 m 0,0,1
 763 -20 763 -20 575 127 c 1,2,3
 433 48 433 48 292.5 14 c 128,-1,4
 152 -20 152 -20 2 -20 c 0,5,6
 -20 -20 -20 -20 -20 2 c 2,7,-1
 -20 244 l 2,8,9
 -20 266 -20 266 2 266 c 0,10,11
 110 266 110 266 220.5 268.5 c 128,-1,12
 331 271 331 271 424 287 c 1,13,-1
 375 349 l 1,14,15
 286 464 286 464 182 547 c 1,16,-1
 139 518 l 1,17,18
 75 589 75 589 75 672 c 0,19,20
 75 751 75 751 144.5 811.5 c 128,-1,21
 214 872 214 872 339 917.5 c 128,-1,22
 464 963 464 963 584 963 c 0,23,24
 688 963 688 963 782 916.5 c 128,-1,25
 876 870 876 870 930.5 791 c 128,-1,26
 985 712 985 712 985 621 c 0,27,28
 985 449 985 449 797 281 c 1,29,30
 887 266 887 266 1096 266 c 0,31,32
 1120 266 1120 266 1120 244 c 2,33,-1
 1120 2 l 2,34,35
 1120 -20 1120 -20 1096 -20 c 0,0,1
592 696 m 0,36,37
 464 696 464 696 338 637 c 1,38,39
 417 570 417 570 487 493 c 1,40,41
 574 395 574 395 614 358 c 1,42,43
 743 451 743 451 743 567 c 0,44,45
 743 624 743 624 700.5 660 c 128,-1,46
 658 696 658 696 592 696 c 0,36,37
EndSplineSet
EndChar
StartChar: uni0643.fina
Encoding: 65242 65242 33
Width: 1794
GlyphClass: 2
Flags: W
AnchorPoint: "Anchor-1" 800 -160 basechar 0
AnchorPoint: "Anchor-0" 780 1100 basechar 0
LayerCount: 2
Fore
SplineSet
813 246 m 0,0,1
 986 246 986 246 1129 261.5 c 128,-1,2
 1272 277 1272 277 1427 311 c 1,3,4
 1355 780 1355 780 1284 1479 c 1,5,-1
 1571 1638 l 1,6,7
 1550 714 1550 714 1550 334 c 1,8,9
 1602 299 1602 299 1663 282.5 c 128,-1,10
 1724 266 1724 266 1815 266 c 0,11,12
 1835 266 1835 266 1835 246 c 2,13,-1
 1835 0 l 2,14,15
 1835 -20 1835 -20 1815 -20 c 0,16,17
 1564 -20 1564 -20 1481 109 c 1,18,19
 1237 23 1237 23 1071.5 -9 c 128,-1,20
 906 -41 906 -41 762 -41 c 0,21,22
 528 -41 528 -41 406.5 -2.5 c 128,-1,23
 285 36 285 36 224.5 120.5 c 128,-1,24
 164 205 164 205 164 346 c 0,25,26
 164 395 164 395 175.5 477.5 c 128,-1,27
 187 560 187 560 197 600 c 1,28,-1
 305 596 l 1,29,30
 297 543 297 543 297 506 c 0,31,32
 297 404 297 404 345.5 349 c 128,-1,33
 394 294 394 294 500 270 c 128,-1,34
 606 246 606 246 813 246 c 0,0,1
953 865 m 1,35,-1
 954 875 l 1,36,37
 954 889 954 889 945.5 899.5 c 128,-1,38
 937 910 937 910 920 910 c 0,39,40
 853 910 853 910 803 815 c 1,41,42
 857 766 857 766 945 766 c 0,43,44
 1004 766 1004 766 1086 785 c 1,45,-1
 1074 633 l 1,46,47
 920 591 920 591 841 559.5 c 128,-1,48
 762 528 762 528 684 486 c 1,49,-1
 678 623 l 1,50,51
 737 664 737 664 783 686 c 1,52,53
 731 712 731 712 710 741.5 c 128,-1,54
 689 771 689 771 689 811 c 0,55,56
 689 873 689 873 723 929.5 c 128,-1,57
 757 986 757 986 812.5 1021.5 c 128,-1,58
 868 1057 868 1057 920 1057 c 0,59,60
 974 1057 974 1057 1004.5 1023 c 128,-1,61
 1035 989 1035 989 1035 938 c 0,62,63
 1035 915 1035 915 1026.5 890 c 128,-1,64
 1018 865 1018 865 1010 852 c 1,65,-1
 953 865 l 1,35,-1
EndSplineSet
EndChar
StartChar: uni0643.init
Encoding: 65243 65243 30
Width: 1067
GlyphClass: 2
Flags: W
AnchorPoint: "Anchor-1" 300 -160 basechar 0
AnchorPoint: "Anchor-0" 300 1550 basechar 0
LayerCount: 2
Fore
SplineSet
0 -20 m 0,0,1
 -20 -20 -20 -20 -20 0 c 2,2,-1
 -20 246 l 2,3,4
 -20 266 -20 266 0 266 c 0,5,6
 293 266 293 266 464.5 284 c 128,-1,7
 636 302 636 302 735 346 c 1,8,9
 691 436 691 436 567.5 543 c 128,-1,10
 444 650 444 650 270 748 c 1,11,12
 238 739 238 739 209 739 c 0,13,14
 144 739 144 739 93.5 785 c 128,-1,15
 43 831 43 831 43 895 c 0,16,17
 43 944 43 944 68 1067 c 128,-1,18
 93 1190 93 1190 106 1198 c 1,19,20
 449 1368 449 1368 549.5 1414 c 128,-1,21
 650 1460 650 1460 777 1514 c 128,-1,22
 904 1568 904 1568 977 1597 c 1,23,24
 1024 1552 1024 1552 1024 1477 c 0,25,26
 1024 1417 1024 1417 990.5 1362.5 c 128,-1,27
 957 1308 957 1308 898 1277 c 128,-1,28
 839 1246 839 1246 716 1192 c 128,-1,29
 593 1138 593 1138 472 1095.5 c 128,-1,30
 351 1053 351 1053 182 1006 c 1,31,32
 362 959 362 959 517.5 856.5 c 128,-1,33
 673 754 673 754 765.5 622.5 c 128,-1,34
 858 491 858 491 858 375 c 0,35,36
 858 252 858 252 764.5 163 c 128,-1,37
 671 74 671 74 475 27 c 128,-1,38
 279 -20 279 -20 0 -20 c 0,0,1
EndSplineSet
EndChar
StartChar: uni0643.medi
Encoding: 65244 65244 31
Width: 1126
GlyphClass: 2
Flags: W
AnchorPoint: "Anchor-1" 400 -160 basechar 0
AnchorPoint: "Anchor-0" 300 1550 basechar 0
LayerCount: 2
Fore
SplineSet
358 313 m 1,0,1
 324 408 324 408 293 469 c 1,2,3
 152 627 152 627 87.5 757 c 128,-1,4
 23 887 23 887 23 1004 c 0,5,6
 23 1060 23 1060 54.5 1118 c 128,-1,7
 86 1176 86 1176 139 1202 c 0,8,9
 354 1307 354 1307 547.5 1392.5 c 128,-1,10
 741 1478 741 1478 1034 1597 c 1,11,12
 1085 1548 1085 1548 1085 1477 c 0,13,14
 1085 1414 1085 1414 1048 1361.5 c 128,-1,15
 1011 1309 1011 1309 954 1282 c 0,16,17
 767 1191 767 1191 593.5 1124.5 c 128,-1,18
 420 1058 420 1058 139 965 c 1,19,20
 388 684 388 684 495 583 c 128,-1,21
 602 482 602 482 707.5 406 c 128,-1,22
 813 330 813 330 918 298 c 128,-1,23
 1023 266 1023 266 1147 266 c 0,24,25
 1167 266 1167 266 1167 246 c 2,26,-1
 1167 0 l 2,27,28
 1167 -20 1167 -20 1147 -20 c 0,29,30
 1031 -20 1031 -20 940.5 -4 c 128,-1,31
 850 12 850 12 775.5 45.5 c 128,-1,32
 701 79 701 79 639.5 130.5 c 128,-1,33
 578 182 578 182 489 268 c 1,34,35
 478 183 478 183 434 113 c 1,36,37
 326 49 326 49 220.5 14.5 c 128,-1,38
 115 -20 115 -20 0 -20 c 0,39,40
 -20 -20 -20 -20 -20 0 c 2,41,-1
 -20 246 l 2,42,43
 -20 266 -20 266 0 266 c 0,44,45
 178 266 178 266 358 313 c 1,0,1
EndSplineSet
EndChar
StartChar: uni0644.fina
Encoding: 65246 65246 37
Width: 1487
GlyphClass: 2
Flags: W
AnchorPoint: "Anchor-1" 630 -1114 basechar 0
AnchorPoint: "Anchor-0" 460 1480 basechar 0
LayerCount: 2
Fore
SplineSet
1507 -20 m 0,0,1
 1410 -20 1410 -20 1327 27 c 1,2,-1
 1331 -106 l 1,3,4
 1331 -266 1331 -266 1235 -403 c 128,-1,5
 1139 -540 1139 -540 972.5 -618 c 128,-1,6
 806 -696 806 -696 606 -696 c 0,7,8
 390 -696 390 -696 277 -569.5 c 128,-1,9
 164 -443 164 -443 164 -201 c 0,10,11
 164 -76 164 -76 223 147 c 1,12,-1
 330 121 l 1,13,14
 297 10 297 10 297 -70 c 0,15,16
 297 -243 297 -243 374 -326.5 c 128,-1,17
 451 -410 451 -410 612 -410 c 0,18,19
 809 -410 809 -410 943 -359 c 128,-1,20
 1077 -308 1077 -308 1196 -197 c 1,21,-1
 1140 107 l 1,22,-1
 1075 463 l 1,23,-1
 1027 745 l 1,24,-1
 934 1305 l 1,25,-1
 930 1352 l 1,26,27
 930 1454 930 1454 1006.5 1525.5 c 128,-1,28
 1083 1597 1083 1597 1190 1597 c 1,29,30
 1220 1486 1220 1486 1235 1439.5 c 128,-1,31
 1250 1393 1250 1393 1286 1300 c 1,32,-1
 1210 1241 l 1,33,34
 1239 856 1239 856 1282 492 c 1,35,-1
 1300 326 l 1,36,37
 1355 288 1355 288 1405 277 c 128,-1,38
 1455 266 1455 266 1507 266 c 0,39,40
 1528 266 1528 266 1528 246 c 2,41,-1
 1528 0 l 2,42,43
 1528 -20 1528 -20 1507 -20 c 0,0,1
EndSplineSet
Colour: ff0000
EndChar
StartChar: uni0644.medi
Encoding: 65248 65248 36
Width: 590
GlyphClass: 2
Flags: W
AnchorPoint: "Anchor-1" 300 -432 basechar 0
AnchorPoint: "Anchor-0" 230 2015 basechar 0
LayerCount: 2
Fore
SplineSet
0 -20 m 0,0,1
 -20 -20 -20 -20 -20 0 c 2,2,-1
 -20 246 l 2,3,4
 -20 266 -20 266 0 266 c 0,5,6
 119 266 119 266 225 311 c 1,7,8
 140 845 140 845 80 1438 c 1,9,-1
 367 1597 l 1,10,-1
 357 1142 l 1,11,12
 346 722 346 722 346 334 c 1,13,14
 403 296 403 296 464.5 281 c 128,-1,15
 526 266 526 266 610 266 c 0,16,17
 631 266 631 266 631 246 c 2,18,-1
 631 0 l 2,19,20
 631 -20 631 -20 610 -20 c 0,21,22
 407 -20 407 -20 315 63 c 1,23,24
 230 18 230 18 157.5 -1 c 128,-1,25
 85 -20 85 -20 0 -20 c 0,0,1
EndSplineSet
Colour: ffff00
EndChar
StartChar: uni0645.fina
Encoding: 65250 65250 41
Width: 1337
GlyphClass: 2
Flags: W
AnchorPoint: "Anchor-1" 800 -200 basechar 0
AnchorPoint: "Anchor-0" 600 1060 basechar 0
LayerCount: 2
Fore
SplineSet
1102 -41 m 1,0,1
 926 -41 926 -41 774.5 -3.5 c 128,-1,2
 623 34 623 34 545 99 c 128,-1,3
 467 164 467 164 467 250 c 0,4,5
 467 331 467 331 494 416 c 1,6,7
 422 372 422 372 309 285 c 1,8,9
 332 116 332 116 372 -87 c 1,10,11
 410 -286 410 -286 451 -561 c 1,12,13
 326 -652 326 -652 207 -696 c 1,14,15
 207 -476 207 -476 186 -183 c 0,16,17
 164 110 164 110 164 203 c 0,18,19
 164 243 164 243 198.5 332 c 128,-1,20
 233 421 233 421 266 487 c 0,21,22
 275 505 275 505 377 581 c 128,-1,23
 479 657 479 657 581 714.5 c 128,-1,24
 683 772 683 772 773.5 806 c 128,-1,25
 864 840 864 840 932 840 c 0,26,27
 965 840 965 840 992 814.5 c 128,-1,28
 1019 789 1019 789 1043 744.5 c 128,-1,29
 1067 700 1067 700 1123 553 c 0,30,31
 1187 384 1187 384 1238.5 325 c 128,-1,32
 1290 266 1290 266 1352 266 c 0,33,34
 1378 266 1378 266 1378 242 c 2,35,-1
 1378 6 l 2,36,37
 1378 -20 1378 -20 1352 -20 c 0,38,39
 1229 -20 1229 -20 1135 72 c 1,40,-1
 1102 -41 l 1,0,1
604 367 m 1,41,42
 736 260 736 260 1026 227 c 1,43,44
 988 303 988 303 960.5 399 c 128,-1,45
 933 495 933 495 924 586 c 1,46,47
 836 554 836 554 748 495 c 128,-1,48
 660 436 660 436 604 367 c 1,41,42
EndSplineSet
EndChar
StartChar: uni0645.init
Encoding: 65251 65251 39
Width: 1139
GlyphClass: 2
Flags: W
AnchorPoint: "Anchor-1" 520 -160 basechar 0
AnchorPoint: "Anchor-0" 560 1060 basechar 0
LayerCount: 2
Fore
SplineSet
883 -41 m 1,0,1
 731 -41 731 -41 569 -6 c 128,-1,2
 407 29 407 29 285 94 c 1,3,4
 226 31 226 31 157 5.5 c 128,-1,5
 88 -20 88 -20 0 -20 c 0,6,7
 -20 -20 -20 -20 -20 0 c 2,8,-1
 -20 246 l 2,9,10
 -20 266 -20 266 0 266 c 0,11,12
 199 266 199 266 291 444 c 1,13,14
 379 618 379 618 432.5 691 c 128,-1,15
 486 764 486 764 543 802 c 128,-1,16
 600 840 600 840 668 840 c 0,17,18
 751 840 751 840 833 754 c 128,-1,19
 915 668 915 668 970.5 517.5 c 128,-1,20
 1026 367 1026 367 1026 231 c 0,21,22
 1026 167 1026 167 981.5 85 c 128,-1,23
 937 3 937 3 883 -41 c 1,0,1
631 557 m 0,24,25
 575 557 575 557 532.5 509 c 128,-1,26
 490 461 490 461 424 322 c 1,27,28
 578 248 578 248 805 225 c 1,29,30
 794 314 794 314 767 389 c 128,-1,31
 740 464 740 464 702 510.5 c 128,-1,32
 664 557 664 557 631 557 c 0,24,25
EndSplineSet
EndChar
StartChar: uni0645.medi
Encoding: 65252 65252 40
Width: 995
GlyphClass: 2
Flags: W
AnchorPoint: "Anchor-1" 520 -160 basechar 0
AnchorPoint: "Anchor-0" 460 1060 basechar 0
LayerCount: 2
Fore
SplineSet
1010 -20 m 0,0,1
 887 -20 887 -20 793 72 c 1,2,-1
 760 -41 l 1,3,4
 614 -41 614 -41 478 -13.5 c 128,-1,5
 342 14 342 14 258 61 c 1,6,7
 143 -20 143 -20 0 -20 c 0,8,9
 -20 -20 -20 -20 -20 0 c 2,10,-1
 -20 246 l 2,11,12
 -20 266 -20 266 0 266 c 0,13,14
 63 266 63 266 125 281 c 1,15,16
 135 411 135 411 205.5 545 c 128,-1,17
 276 679 276 679 381 759.5 c 128,-1,18
 486 840 486 840 590 840 c 0,19,20
 623 840 623 840 650 814.5 c 128,-1,21
 677 789 677 789 701 744.5 c 128,-1,22
 725 700 725 700 781 553 c 0,23,24
 845 384 845 384 896.5 325 c 128,-1,25
 948 266 948 266 1010 266 c 0,26,27
 1036 266 1036 266 1036 242 c 2,28,-1
 1036 6 l 2,29,30
 1036 -20 1036 -20 1010 -20 c 0,0,1
262 367 m 1,31,32
 394 260 394 260 684 227 c 1,33,34
 646 303 646 303 618.5 399 c 128,-1,35
 591 495 591 495 582 586 c 1,36,37
 494 554 494 554 406 495 c 128,-1,38
 318 436 318 436 262 367 c 1,31,32
EndSplineSet
EndChar
StartChar: uni0647.fina
Encoding: 65258 65258 45
Width: 1122
GlyphClass: 2
Flags: W
AnchorPoint: "Anchor-1" 600 -367 basechar 0
AnchorPoint: "Anchor-0" 600 1509 basechar 0
LayerCount: 2
Fore
SplineSet
684 51 m 1,0,1
 581 59 581 59 531.5 68.5 c 128,-1,2
 482 78 482 78 426 96 c 1,3,4
 328 134 328 134 246 192.5 c 128,-1,5
 164 251 164 251 164 293 c 0,6,7
 164 325 164 325 204 438 c 128,-1,8
 244 551 244 551 273 590.5 c 128,-1,9
 302 630 302 630 363 682 c 128,-1,10
 424 734 424 734 498 782.5 c 128,-1,11
 572 831 572 831 649 868 c 1,12,-1
 642 915 l 1,13,-1
 637 963 l 1,14,15
 723 1033 723 1033 768.5 1064 c 128,-1,16
 814 1095 814 1095 887 1139 c 1,17,-1
 885 676 l 1,18,-1
 887 330 l 1,19,20
 1004 266 1004 266 1143 266 c 0,21,22
 1163 266 1163 266 1163 246 c 2,23,-1
 1163 0 l 2,24,25
 1163 -20 1163 -20 1143 -20 c 0,26,27
 999 -20 999 -20 909 26.5 c 128,-1,28
 819 73 819 73 801 158 c 1,29,-1
 780 248 l 1,30,-1
 684 51 l 1,0,1
758 336 m 1,31,32
 716 508 716 508 688 651 c 1,33,34
 557 606 557 606 477 559.5 c 128,-1,35
 397 513 397 513 336 453 c 1,36,37
 396 410 396 410 458 388 c 128,-1,38
 520 366 520 366 597.5 352.5 c 128,-1,39
 675 339 675 339 758 336 c 1,31,32
EndSplineSet
Colour: ffff00
EndChar
StartChar: uni0647.init
Encoding: 65259 65259 43
Width: 1243
GlyphClass: 2
Flags: W
AnchorPoint: "Anchor-1" 480 -160 basechar 0
AnchorPoint: "Anchor-0" 400 1280 basechar 0
LayerCount: 2
Fore
SplineSet
0 -20 m 0,0,1
 -20 -20 -20 -20 -20 0 c 2,2,-1
 -20 250 l 2,3,4
 -20 266 -20 266 0 266 c 2,5,-1
 91 266 l 1,6,-1
 182 268 l 1,7,8
 106 371 106 371 106 479 c 0,9,10
 106 574 106 574 163.5 689.5 c 128,-1,11
 221 805 221 805 303 864 c 1,12,-1
 373 1112 l 1,13,14
 569 1064 569 1064 741 933.5 c 128,-1,15
 913 803 913 803 1016.5 621.5 c 128,-1,16
 1120 440 1120 440 1120 260 c 0,17,18
 1120 147 1120 147 997 -63 c 1,19,20
 832 -58 832 -58 684.5 -21 c 128,-1,21
 537 16 537 16 422 76 c 1,22,23
 247 -20 247 -20 0 -20 c 0,0,1
229 481 m 1,24,25
 315 387 315 387 442 328 c 1,26,-1
 444 330 l 1,27,28
 490 354 490 354 521.5 410.5 c 128,-1,29
 553 467 553 467 553 537 c 0,30,31
 553 592 553 592 514.5 638 c 128,-1,32
 476 684 476 684 432 684 c 0,33,34
 310 684 310 684 229 481 c 1,24,25
709 530 m 0,35,36
 709 379 709 379 633 262 c 1,37,38
 749 231 749 231 985 199 c 1,39,40
 927 362 927 362 854 475 c 128,-1,41
 781 588 781 588 682 672 c 1,42,43
 709 600 709 600 709 530 c 0,35,36
EndSplineSet
EndChar
StartChar: uni0647.medi
Encoding: 65260 65260 44
Width: 958
GlyphClass: 2
Flags: W
AnchorPoint: "Anchor-1" 645 -680 basechar 0
AnchorPoint: "Anchor-0" 600 1200 basechar 0
LayerCount: 2
Fore
SplineSet
805 -33 m 1,0,1
 857 -61 857 -61 892.5 -109.5 c 128,-1,2
 928 -158 928 -158 928 -207 c 0,3,4
 928 -243 928 -243 895 -330 c 128,-1,5
 862 -417 862 -417 846 -436 c 0,6,7
 821 -465 821 -465 767 -488.5 c 128,-1,8
 713 -512 713 -512 635 -512 c 0,9,10
 447 -512 447 -512 321.5 -400.5 c 128,-1,11
 196 -289 196 -289 162 -88 c 1,12,-1
 88 -123 l 1,13,-1
 63 -12 l 1,14,-1
 0 -20 l 1,15,16
 -20 -20 -20 -20 -20 0 c 2,17,-1
 -20 246 l 2,18,19
 -20 266 -20 266 0 266 c 0,20,21
 82 266 82 266 174 272 c 1,22,23
 215 475 215 475 330 671 c 128,-1,24
 445 867 445 867 629 1040 c 1,25,-1
 735 1016 l 1,26,27
 743 917 743 917 779 712 c 0,28,29
 809 537 809 537 809 461 c 0,30,31
 809 338 809 338 696 236 c 1,32,33
 852 266 852 266 973 266 c 0,34,35
 999 266 999 266 999 242 c 2,36,-1
 999 6 l 2,37,38
 999 -20 999 -20 973 -20 c 0,39,40
 887 -20 887 -20 805 -33 c 1,0,1
557 711 m 1,41,42
 463 578 463 578 415 472 c 128,-1,43
 367 366 367 366 350 244 c 1,44,45
 544 268 544 268 662 365 c 1,46,-1
 632 457 l 1,47,48
 576 605 576 605 557 711 c 1,41,42
412 -20 m 1,49,-1
 356 -27 l 1,50,51
 381 -154 381 -154 454 -217.5 c 128,-1,52
 527 -281 527 -281 655 -281 c 0,53,54
 700 -281 700 -281 730 -270.5 c 128,-1,55
 760 -260 760 -260 795 -238 c 1,56,57
 724 -134 724 -134 622 -77 c 128,-1,58
 520 -20 520 -20 412 -20 c 1,49,-1
EndSplineSet
EndChar
StartChar: uni0648.fina
Encoding: 65262 65262 47
Width: 1176
GlyphClass: 2
Flags: W
AnchorPoint: "Anchor-1" 480 -600 basechar 0
AnchorPoint: "Anchor-0" 540 1080 basechar 0
LayerCount: 2
Fore
SplineSet
1049 -20 m 1,0,1
 990 -239 990 -239 830.5 -375.5 c 128,-1,2
 671 -512 671 -512 471 -512 c 0,3,4
 423 -512 423 -512 315.5 -450 c 128,-1,5
 208 -388 208 -388 123 -315 c 1,6,-1
 162 -215 l 1,7,8
 291 -248 291 -248 426 -248 c 0,9,10
 575 -248 575 -248 699.5 -186 c 128,-1,11
 824 -124 824 -124 893 -16 c 1,12,13
 638 -5 638 -5 529 31.5 c 128,-1,14
 420 68 420 68 367.5 145.5 c 128,-1,15
 315 223 315 223 315 342 c 0,16,17
 315 480 315 480 367.5 609 c 128,-1,18
 420 738 420 738 501 814.5 c 128,-1,19
 582 891 582 891 666 891 c 0,20,21
 760 891 760 891 844.5 811 c 128,-1,22
 929 731 929 731 990 583.5 c 128,-1,23
 1051 436 1051 436 1067 266 c 1,24,-1
 1196 266 l 2,25,26
 1217 266 1217 266 1217 246 c 2,27,-1
 1217 0 l 2,28,29
 1217 -20 1217 -20 1196 -20 c 2,30,-1
 1049 -20 l 1,0,1
909 268 m 1,31,32
 861 429 861 429 783 516.5 c 128,-1,33
 705 604 705 604 612 604 c 0,34,35
 543 604 543 604 492.5 556 c 128,-1,36
 442 508 442 508 442 446 c 0,37,38
 442 313 442 313 680 281 c 1,39,40
 720 273 720 273 909 268 c 1,31,32
EndSplineSet
EndChar
StartChar: uni0649.fina
Encoding: 65264 65264 49
Width: 1663
GlyphClass: 2
Flags: W
AnchorPoint: "Anchor-1" 700 -820 basechar 0
AnchorPoint: "Anchor-0" 560 300 basechar 0
LayerCount: 2
Fore
SplineSet
1468 -240 m 1,0,1
 1341 -189 1341 -189 1183.5 -92 c 128,-1,2
 1026 5 1026 5 1026 41 c 0,3,4
 1026 66 1026 66 1047 119.5 c 128,-1,5
 1068 173 1068 173 1105.5 239 c 128,-1,6
 1143 305 1143 305 1153 305 c 1,7,8
 1366 266 1366 266 1677 266 c 0,9,10
 1704 266 1704 266 1704 240 c 2,11,-1
 1704 4 l 2,12,13
 1704 -20 1704 -20 1677 -20 c 0,14,15
 1609 -20 1609 -20 1502 -10 c 128,-1,16
 1395 0 1395 0 1311 20 c 1,17,-1
 1385 -16 l 1,18,19
 1485 -61 1485 -61 1522.5 -82.5 c 128,-1,20
 1560 -104 1560 -104 1575.5 -137.5 c 128,-1,21
 1591 -171 1591 -171 1591 -236 c 0,22,23
 1591 -337 1591 -337 1454 -445 c 128,-1,24
 1317 -553 1317 -553 1100.5 -624.5 c 128,-1,25
 884 -696 884 -696 688 -696 c 0,26,27
 431 -696 431 -696 297.5 -569 c 128,-1,28
 164 -442 164 -442 164 -201 c 0,29,30
 164 -76 164 -76 223 147 c 1,31,-1
 330 121 l 1,32,33
 297 10 297 10 297 -70 c 0,34,35
 297 -240 297 -240 399.5 -325 c 128,-1,36
 502 -410 502 -410 715 -410 c 0,37,38
 926 -410 926 -410 1135 -364.5 c 128,-1,39
 1344 -319 1344 -319 1468 -240 c 1,0,1
EndSplineSet
EndChar
StartChar: uni06440627.isol
Encoding: 65275 65275 50
Width: 1317
GlyphClass: 3
Flags: W
AnchorPoint: "Anchor-3" 1100 -160 baselig 0
AnchorPoint: "Anchor-2" 900 1740 baselig 0
AnchorPoint: "Anchor-3" 400 -160 baselig 1
AnchorPoint: "Anchor-2" 160 1500 baselig 1
LayerCount: 2
Fore
SplineSet
338 -41 m 0,0,1
 332 -41 332 -41 332 -4 c 0,2,3
 332 51 332 51 345.5 138 c 128,-1,4
 359 225 359 225 369 225 c 2,5,-1
 433 224 l 1,6,-1
 467 225 l 1,7,8
 691 403 691 403 784 553 c 1,9,10
 596 741 596 741 313 915 c 1,11,-1
 225 909 l 1,12,13
 82 982 82 982 82 1126 c 0,14,15
 82 1192 82 1192 118.5 1243.5 c 128,-1,16
 155 1295 155 1295 215 1329 c 1,17,18
 350 1233 350 1233 538 1059.5 c 128,-1,19
 726 886 726 886 864 727 c 1,20,21
 887 805 887 805 887 891 c 0,22,23
 887 958 887 958 837 1243 c 0,24,25
 811 1389 811 1389 811 1427 c 0,26,27
 811 1519 811 1519 880 1577.5 c 128,-1,28
 949 1636 949 1636 1065 1638 c 1,29,30
 1087 1553 1087 1553 1103 1502 c 128,-1,31
 1119 1451 1119 1451 1161 1341 c 1,32,-1
 1083 1282 l 1,33,-1
 1092 1010 l 1,34,35
 1092 794 1092 794 979 586 c 1,36,37
 1087 440 1087 440 1119.5 390 c 128,-1,38
 1152 340 1152 340 1173 301.5 c 128,-1,39
 1194 263 1194 263 1194 246 c 0,40,41
 1194 199 1194 199 1153 100.5 c 128,-1,42
 1112 2 1112 2 1098 0 c 0,43,44
 1010 -17 1010 -17 820.5 -29 c 128,-1,45
 631 -41 631 -41 338 -41 c 0,0,1
1036 272 m 1,46,-1
 887 446 l 1,47,48
 798 337 798 337 672 233 c 1,49,50
 870 244 870 244 1036 272 c 1,46,-1
EndSplineSet
Ligature2: "'rlig' Required Ligatures in Arabic lookup 6 subtable" uni0644.init uni0627.fina
EndChar
StartChar: Ghunna_above
Encoding: 65565 -1 264
Width: 0
GlyphClass: 4
Flags: W
LayerCount: 2
Fore
SplineSet
0 786 m 0,0,1
 -100 786 -100 786 -153.5 836.5 c 128,-1,2
 -207 887 -207 887 -207 1004 c 0,3,4
 -207 1070 -207 1070 -176 1178 c 1,5,-1
 -90 1163 l 1,6,7
 -100 1121 -100 1121 -100 1069 c 0,8,9
 -100 1007 -100 1007 -69.5 977.5 c 128,-1,10
 -39 948 -39 948 2 948 c 0,11,12
 68 948 68 948 122 971 c 128,-1,13
 176 994 176 994 199 1030 c 1,14,15
 175 1079 175 1079 155 1138 c 128,-1,16
 135 1197 135 1197 135 1229 c 0,17,18
 135 1269 135 1269 162 1299 c 128,-1,19
 189 1329 189 1329 270 1358 c 1,20,-1
 282 1275 l 1,21,22
 295 1193 295 1193 303 1144 c 128,-1,23
 311 1095 311 1095 309 1071 c 1,24,25
 309 993 309 993 266 927 c 128,-1,26
 223 861 223 861 151 823.5 c 128,-1,27
 79 786 79 786 0 786 c 0,0,1
EndSplineSet
EndChar
StartChar: alef_alt.fina
Encoding: 65557 -1 124
Width: 590
GlyphClass: 2
Flags: W
LayerCount: 2
Fore
SplineSet
367 1462 m 1,0,-1
 361 1233 l 1,1,2
 346 733 346 733 346 334 c 1,3,4
 403 296 403 296 464.5 281 c 128,-1,5
 526 266 526 266 610 266 c 0,6,7
 631 266 631 266 631 246 c 2,8,-1
 631 0 l 2,9,10
 631 -20 631 -20 610 -20 c 0,11,12
 451 -20 451 -20 356.5 35 c 128,-1,13
 262 90 262 90 244 197 c 0,14,15
 211 387 211 387 182 585 c 128,-1,16
 153 783 153 783 90 1307 c 1,17,-1
 367 1462 l 1,0,-1
EndSplineSet
EndChar
StartChar: alef_alt.isol
Encoding: 65556 -1 123
Width: 582
GlyphClass: 2
Flags: W
LayerCount: 2
Fore
SplineSet
410 1104 m 1,0,-1
 410 894 l 1,1,-1
 397 0 l 1,2,-1
 242 -20 l 1,3,4
 192 795 192 795 173 974 c 1,5,6
 146 1212 146 1212 146 1257 c 0,7,8
 146 1351 146 1351 217.5 1407.5 c 128,-1,9
 289 1464 289 1464 395 1464 c 1,10,11
 437 1312 437 1312 492 1167 c 1,12,-1
 410 1104 l 1,0,-1
EndSplineSet
EndChar
StartChar: beh_dotless_alt.init
Encoding: 65552 -1 116
Width: 827
GlyphClass: 2
Flags: W
LayerCount: 2
Fore
SplineSet
0 -20 m 0,0,1
 -20 -20 -20 -20 -20 0 c 2,2,-1
 -20 246 l 2,3,4
 -20 266 -20 266 0 266 c 0,5,6
 183 266 183 266 351.5 284 c 128,-1,7
 520 302 520 302 594 334 c 1,8,9
 562 404 562 404 530 461 c 128,-1,10
 498 518 498 518 472.5 564.5 c 128,-1,11
 447 611 447 611 431.5 649 c 128,-1,12
 416 687 416 687 416 719 c 0,13,14
 416 778 416 778 482 849.5 c 128,-1,15
 548 921 548 921 635 963 c 1,16,-1
 666 806 l 1,17,18
 735 480 735 480 735 403 c 0,19,20
 735 301 735 301 641 113 c 1,21,22
 540 52 540 52 360 16 c 128,-1,23
 180 -20 180 -20 0 -20 c 0,0,1
EndSplineSet
EndChar
StartChar: beh_dotless_alt.medi
Encoding: 65553 -1 117
Width: 868
GlyphClass: 2
Flags: W
LayerCount: 2
Fore
SplineSet
0 -20 m 0,0,1
 -20 -20 -20 -20 -20 0 c 2,2,-1
 -20 246 l 2,3,4
 -20 266 -20 266 0 266 c 0,5,6
 175 266 175 266 247.5 275 c 128,-1,7
 320 284 320 284 365.5 304 c 128,-1,8
 411 324 411 324 434.5 355.5 c 128,-1,9
 458 387 458 387 511 495 c 0,10,11
 547 570 547 570 575.5 590 c 128,-1,12
 604 610 604 610 645 610 c 0,13,14
 704 610 704 610 741 575 c 1,15,16
 718 521 718 521 692 457 c 128,-1,17
 666 393 666 393 635 328 c 1,18,19
 752 266 752 266 889 266 c 0,20,21
 909 266 909 266 909 246 c 2,22,-1
 909 0 l 2,23,24
 909 -20 909 -20 889 -20 c 0,25,26
 798 -20 798 -20 713 19 c 128,-1,27
 628 58 628 58 541 145 c 1,28,29
 516 103 516 103 485 68 c 0,30,31
 451 29 451 29 311.5 4.5 c 128,-1,32
 172 -20 172 -20 0 -20 c 0,0,1
EndSplineSet
EndChar
StartChar: circumflex.arabic
Encoding: 65841 -1 694
Width: 584
GlyphClass: 2
Flags: W
LayerCount: 2
Fore
SplineSet
215 1305 m 1,0,1
 203 1223 203 1223 170 1125 c 128,-1,2
 137 1027 137 1027 90 954 c 1,3,4
 47 954 47 954 24.5 983 c 128,-1,5
 2 1012 2 1012 2 1057 c 0,6,7
 2 1076 2 1076 45 1166 c 0,8,9
 100 1280 100 1280 147 1411 c 1,10,11
 236 1462 236 1462 315 1475 c 1,12,13
 379 1334 379 1334 451 1209.5 c 128,-1,14
 523 1085 523 1085 582 1012 c 1,15,16
 559 1007 559 1007 529.5 1000 c 128,-1,17
 500 993 500 993 469 992 c 1,18,-1
 463 992 l 2,19,20
 407 992 407 992 373 1017 c 128,-1,21
 339 1042 339 1042 297.5 1116.5 c 128,-1,22
 256 1191 256 1191 215 1305 c 1,0,1
EndSplineSet
EndChar
StartChar: diagonal
Encoding: 65874 -1 749
Width: 1024
GlyphClass: 2
Flags: W
LayerCount: 2
Fore
SplineSet
10 1270 m 1,0,1
 -6 1337 -6 1337 -6 1364 c 0,2,3
 -6 1376 -6 1376 -2 1378 c 2,4,-1
 238 1496 l 1,5,-1
 842 1784 l 1,6,7
 875 1759 875 1759 875 1723 c 1,8,-1
 874 1708 l 1,9,10
 864 1664 864 1664 815 1642 c 0,11,12
 338 1428 338 1428 10 1270 c 1,0,1
EndSplineSet
EndChar
StartChar: feh_dotless.isol
Encoding: 65542 -1 57
Width: 2044
GlyphClass: 2
Flags: W
LayerCount: 2
Fore
SplineSet
739 -41 m 0,0,1
 452 -41 452 -41 302 89.5 c 128,-1,2
 152 220 152 220 152 473 c 0,3,4
 152 523 152 523 166.5 601.5 c 128,-1,5
 181 680 181 680 199 737 c 1,6,-1
 307 737 l 1,7,-1
 304 711 l 1,8,-1
 299 618 l 1,9,10
 299 477 299 477 355 398 c 128,-1,11
 411 319 411 319 529 281.5 c 128,-1,12
 647 244 647 244 827 244 c 0,13,14
 1145 244 1145 244 1406 282 c 128,-1,15
 1667 320 1667 320 1817 387 c 1,16,17
 1799 463 1799 463 1772 543 c 1,18,19
 1703 492 1703 492 1618 461 c 128,-1,20
 1533 430 1533 430 1442 430 c 0,21,22
 1355 430 1355 430 1293 465.5 c 128,-1,23
 1231 501 1231 501 1198 564.5 c 128,-1,24
 1165 628 1165 628 1165 711 c 0,25,26
 1165 836 1165 836 1212 955.5 c 128,-1,27
 1259 1075 1259 1075 1336 1146 c 128,-1,28
 1413 1217 1413 1217 1495 1217 c 0,29,30
 1611 1217 1611 1217 1715.5 1111 c 128,-1,31
 1820 1005 1820 1005 1881 819 c 128,-1,32
 1942 633 1942 633 1942 399 c 0,33,34
 1942 322 1942 322 1858 154 c 1,35,36
 1629 63 1629 63 1338 11 c 128,-1,37
 1047 -41 1047 -41 739 -41 c 0,0,1
1489 633 m 0,38,39
 1585 633 1585 633 1718 678 c 1,40,41
 1597 930 1597 930 1446 930 c 0,42,43
 1383 930 1383 930 1336.5 884.5 c 128,-1,44
 1290 839 1290 839 1290 772 c 0,45,46
 1290 714 1290 714 1348.5 673.5 c 128,-1,47
 1407 633 1407 633 1489 633 c 0,38,39
EndSplineSet
EndChar
StartChar: fourdots.above
Encoding: 65837 -1 690
Width: 1024
GlyphClass: 2
Flags: W
LayerCount: 2
Fore
SplineSet
526 1020 m 1,0,1
 465 926 465 926 342 809 c 1,2,3
 213 911 213 911 137 999 c 1,4,5
 216 1072 216 1072 295 1159 c 2,6,-1
 338 1206 l 1,7,8
 409 1129 409 1129 526 1020 c 1,0,1
928 1065 m 1,9,10
 865 969 865 969 745 854 c 1,11,12
 613 957 613 957 541 1042 c 1,13,14
 628 1123 628 1123 739 1251 c 1,15,16
 805 1183 805 1183 928 1065 c 1,9,10
426 1403 m 1,17,18
 365 1309 365 1309 242 1192 c 1,19,20
 113 1294 113 1294 37 1382 c 1,21,22
 91 1432 91 1432 144 1489 c 128,-1,23
 197 1546 197 1546 238 1589 c 1,24,25
 309 1512 309 1512 426 1403 c 1,17,18
827 1448 m 1,26,27
 762 1349 762 1349 645 1237 c 1,28,29
 515 1338 515 1338 440 1425 c 1,30,31
 532 1511 532 1511 639 1634 c 1,32,33
 716 1554 716 1554 827 1448 c 1,26,27
EndSplineSet
EndChar
StartChar: fourdots.below
Encoding: 65838 -1 691
Width: 1024
GlyphClass: 2
Flags: W
LayerCount: 2
Fore
SplineSet
530 -805 m 1,0,1
 469 -899 469 -899 346 -1016 c 1,2,3
 215 -912 215 -912 141 -825 c 1,4,5
 208 -766 208 -766 342 -618 c 1,6,7
 411 -694 411 -694 530 -805 c 1,0,1
932 -760 m 1,8,9
 867 -859 867 -859 750 -971 c 1,10,11
 617 -868 617 -868 545 -782 c 1,12,13
 590 -742 590 -742 655.5 -671.5 c 128,-1,14
 721 -601 721 -601 743 -573 c 1,15,16
 771 -602 771 -602 932 -760 c 1,8,9
430 -422 m 1,17,18
 369 -516 369 -516 246 -633 c 1,19,20
 115 -529 115 -529 41 -442 c 1,21,22
 57 -428 57 -428 72.5 -413 c 128,-1,23
 88 -398 88 -398 242 -236 c 1,24,25
 313 -313 313 -313 430 -422 c 1,17,18
831 -377 m 1,26,27
 766 -476 766 -476 649 -588 c 1,28,29
 522 -489 522 -489 444 -399 c 1,30,31
 494 -355 494 -355 551.5 -293 c 128,-1,32
 609 -231 609 -231 643 -190 c 1,33,34
 683 -233 683 -233 831 -377 c 1,26,27
EndSplineSet
EndChar
StartChar: hah_alt.fina
Encoding: 65873 -1 748
Width: 1765
GlyphClass: 2
Flags: W
LayerCount: 2
Fore
SplineSet
1786 -20 m 0,0,1
 1584 -20 1584 -20 1442 15.5 c 128,-1,2
 1300 51 1300 51 1300 98 c 0,3,4
 1300 144 1300 144 1329 270 c 1,5,-1
 1235 287 l 1,6,7
 1009 256 1009 256 811 153.5 c 128,-1,8
 613 51 613 51 511.5 -84.5 c 128,-1,9
 410 -220 410 -220 410 -373 c 0,10,11
 410 -437 410 -437 420 -487.5 c 128,-1,12
 430 -538 430 -538 463 -627 c 1,13,-1
 317 -694 l 1,14,15
 284 -612 284 -612 263 -517 c 128,-1,16
 242 -422 242 -422 242 -356 c 0,17,18
 242 -79 242 -79 396 118.5 c 128,-1,19
 550 316 550 316 854 426 c 1,20,-1
 765 479 l 2,21,22
 689 525 689 525 627 546 c 128,-1,23
 565 567 565 567 504 567 c 0,24,25
 433 567 433 567 373 549 c 128,-1,26
 313 531 313 531 219 473 c 1,27,28
 198 494 198 494 181 537.5 c 128,-1,29
 164 581 164 581 164 618 c 0,30,31
 164 688 164 688 207.5 741 c 128,-1,32
 251 794 251 794 328.5 824 c 128,-1,33
 406 854 406 854 496 854 c 0,34,35
 590 854 590 854 676 826.5 c 128,-1,36
 762 799 762 799 856 741 c 0,37,38
 1033 631 1033 631 1136.5 590.5 c 128,-1,39
 1240 550 1240 550 1381.5 526 c 128,-1,40
 1523 502 1523 502 1679 502 c 1,41,-1
 1569 270 l 1,42,43
 1625 266 1625 266 1786 266 c 0,44,45
 1806 266 1806 266 1806 246 c 2,46,-1
 1806 0 l 2,47,48
 1806 -20 1806 -20 1786 -20 c 0,0,1
EndSplineSet
EndChar
StartChar: hah_alt.isol
Encoding: 65872 -1 747
Width: 1741
GlyphClass: 2
Flags: W
LayerCount: 2
Fore
SplineSet
1556 246 m 1,0,1
 1373 260 1373 260 1235 287 c 1,2,3
 1009 256 1009 256 811 153.5 c 128,-1,4
 613 51 613 51 511.5 -84.5 c 128,-1,5
 410 -220 410 -220 410 -373 c 0,6,7
 410 -437 410 -437 420 -487.5 c 128,-1,8
 430 -538 430 -538 463 -627 c 1,9,-1
 317 -694 l 1,10,11
 284 -612 284 -612 263 -517 c 128,-1,12
 242 -422 242 -422 242 -356 c 0,13,14
 242 -79 242 -79 396 118.5 c 128,-1,15
 550 316 550 316 854 426 c 1,16,-1
 765 479 l 2,17,18
 689 525 689 525 627 546 c 128,-1,19
 565 567 565 567 504 567 c 0,20,21
 433 567 433 567 373 549 c 128,-1,22
 313 531 313 531 219 473 c 1,23,24
 198 494 198 494 181 537.5 c 128,-1,25
 164 581 164 581 164 618 c 0,26,27
 164 688 164 688 207.5 741 c 128,-1,28
 251 794 251 794 328.5 824 c 128,-1,29
 406 854 406 854 496 854 c 0,30,31
 590 854 590 854 676 826.5 c 128,-1,32
 762 799 762 799 856 741 c 0,33,34
 1033 631 1033 631 1136.5 590.5 c 128,-1,35
 1240 550 1240 550 1381.5 526 c 128,-1,36
 1523 502 1523 502 1679 502 c 1,37,-1
 1556 246 l 1,0,1
EndSplineSet
EndChar
StartChar: hamza_medial
Encoding: 65842 -1 695
Width: 0
GlyphClass: 2
Flags: W
LayerCount: 2
Fore
SplineSet
287 1180 m 1,0,-1
 288 1190 l 1,1,2
 288 1204 288 1204 279.5 1214.5 c 128,-1,3
 271 1225 271 1225 254 1225 c 0,4,5
 187 1225 187 1225 137 1130 c 1,6,7
 191 1081 191 1081 279 1081 c 0,8,9
 338 1081 338 1081 420 1100 c 1,10,-1
 408 948 l 1,11,12
 254 906 254 906 175 874.5 c 128,-1,13
 96 843 96 843 18 801 c 1,14,-1
 12 938 l 1,15,16
 71 979 71 979 117 1001 c 1,17,18
 65 1027 65 1027 44 1056.5 c 128,-1,19
 23 1086 23 1086 23 1126 c 0,20,21
 23 1188 23 1188 57 1244.5 c 128,-1,22
 91 1301 91 1301 146.5 1336.5 c 128,-1,23
 202 1372 202 1372 254 1372 c 0,24,25
 308 1372 308 1372 338.5 1338 c 128,-1,26
 369 1304 369 1304 369 1253 c 0,27,28
 369 1230 369 1230 360.5 1205 c 128,-1,29
 352 1180 352 1180 344 1167 c 1,30,-1
 287 1180 l 1,0,-1
EndSplineSet
EndChar
StartChar: onedot.above
Encoding: 65545 -1 61
Width: 1024
GlyphClass: 2
Flags: W
LayerCount: 2
Fore
SplineSet
684 1012 m 1,0,1
 611 904 611 904 485 786 c 1,2,3
 335 910 335 910 266 989 c 1,4,5
 411 1134 411 1134 481 1214 c 1,6,7
 564 1120 564 1120 684 1012 c 1,0,1
EndSplineSet
EndChar
StartChar: onedot.below
Encoding: 65554 -1 121
Width: 1024
GlyphClass: 2
Flags: W
LayerCount: 2
Fore
SplineSet
643 -365 m 1,0,1
 565 -476 565 -476 444 -590 c 1,2,3
 294 -466 294 -466 225 -387 c 1,4,5
 370 -242 370 -242 440 -162 c 1,6,7
 510 -243 510 -243 643 -365 c 1,0,1
EndSplineSet
EndChar
StartChar: patah.wide
Encoding: 65865 -1 738
Width: 700
GlyphClass: 2
Flags: W
LayerCount: 2
Fore
SplineSet
0 287 m 1,0,-1
 0 551 l 1,1,-1
 700 551 l 1,2,-1
 700 287 l 1,3,-1
 0 287 l 1,0,-1
EndSplineSet
EndChar
StartChar: smallv.arabic
Encoding: 65840 -1 693
Width: 563
GlyphClass: 2
Flags: W
LayerCount: 2
Fore
SplineSet
350 1122 m 1,0,1
 362 1203 362 1203 394.5 1300.5 c 128,-1,2
 427 1398 427 1398 475 1475 c 1,3,4
 518 1475 518 1475 540.5 1446 c 128,-1,5
 563 1417 563 1417 563 1372 c 0,6,7
 563 1357 563 1357 551.5 1331 c 128,-1,8
 540 1305 540 1305 520.5 1263.5 c 128,-1,9
 501 1222 501 1222 474.5 1162 c 128,-1,10
 448 1102 448 1102 418 1018 c 1,11,12
 333 968 333 968 250 954 c 1,13,14
 186 1094 186 1094 113 1220.5 c 128,-1,15
 40 1347 40 1347 -16 1417 c 1,16,17
 68 1436 68 1436 98 1437 c 1,18,-1
 103 1437 l 2,19,20
 158 1437 158 1437 191.5 1413 c 128,-1,21
 225 1389 225 1389 269 1307 c 128,-1,22
 313 1225 313 1225 350 1122 c 1,0,1
EndSplineSet
EndChar
StartChar: threedots.above
Encoding: 65547 -1 63
Width: 1024
GlyphClass: 2
Flags: W
LayerCount: 2
Fore
SplineSet
733 1307 m 1,0,1
 617 1177 617 1177 555 1137 c 1,2,3
 512 1164 512 1164 456 1211.5 c 128,-1,4
 400 1259 400 1259 360 1307 c 1,5,6
 459 1395 459 1395 545 1495 c 1,7,8
 615 1404 615 1404 733 1307 c 1,0,1
528 1014 m 1,9,10
 459 913 459 913 344 805 c 1,11,12
 214 908 214 908 139 993 c 1,13,14
 218 1066 218 1066 297 1153 c 2,15,-1
 340 1200 l 1,16,17
 403 1131 403 1131 528 1014 c 1,9,10
971 1059 m 1,18,19
 901 955 901 955 788 850 c 1,20,21
 656 953 656 953 584 1038 c 1,22,23
 650 1099 650 1099 782 1245 c 1,24,25
 835 1189 835 1189 971 1059 c 1,18,19
EndSplineSet
EndChar
StartChar: threedots.rev.above
Encoding: 65845 -1 698
Width: 1151
GlyphClass: 2
Flags: W
LayerCount: 2
Fore
SplineSet
537 1274 m 1,0,1
 470 1175 470 1175 352 1065 c 1,2,3
 216 1175 216 1175 147 1253 c 1,4,5
 226 1326 226 1326 305 1413 c 2,6,-1
 348 1460 l 1,7,8
 419 1382 419 1382 537 1274 c 1,0,1
979 1319 m 1,9,10
 914 1220 914 1220 797 1108 c 1,11,12
 663 1212 663 1212 592 1298 c 1,13,14
 672 1372 672 1372 748 1458 c 1,15,-1
 791 1505 l 1,16,17
 853 1439 853 1439 979 1319 c 1,9,10
778 969 m 1,18,19
 660 840 660 840 600 799 c 1,20,21
 489 872 489 872 406 969 c 1,22,23
 495 1053 495 1053 590 1159 c 1,24,25
 628 1109 628 1109 681 1056.5 c 128,-1,26
 734 1004 734 1004 778 969 c 1,18,19
EndSplineSet
EndChar
StartChar: threedots.rev.below
Encoding: 65846 -1 699
Width: 1081
GlyphClass: 2
Flags: W
LayerCount: 2
Fore
SplineSet
733 -317 m 1,0,1
 617 -447 617 -447 555 -487 c 1,2,3
 512 -460 512 -460 456 -412.5 c 128,-1,4
 400 -365 400 -365 360 -317 c 1,5,6
 459 -229 459 -229 545 -129 c 1,7,8
 615 -220 615 -220 733 -317 c 1,0,1
528 -610 m 1,9,10
 465 -705 465 -705 344 -819 c 1,11,12
 214 -716 214 -716 139 -631 c 1,13,14
 218 -558 218 -558 297 -471 c 2,15,-1
 340 -424 l 1,16,17
 403 -493 403 -493 528 -610 c 1,9,10
971 -565 m 1,18,19
 901 -669 901 -669 788 -774 c 1,20,21
 656 -671 656 -671 584 -586 c 1,22,23
 650 -525 650 -525 782 -379 c 1,24,25
 835 -435 835 -435 971 -565 c 1,18,19
EndSplineSet
EndChar
StartChar: threedots.small.above
Encoding: 65835 -1 688
Width: 1024
GlyphClass: 2
Flags: W
LayerCount: 2
Fore
SplineSet
680 1260 m 1,0,1
 593 1166 593 1166 555 1141 c 1,2,3
 477 1192 477 1192 418 1260 c 1,4,5
 487 1321 487 1321 547 1391 c 1,6,7
 597 1329 597 1329 680 1260 c 1,0,1
537 1055 m 1,8,9
 486 982 486 982 408 909 c 1,10,11
 327 968 327 968 264 1040 c 1,12,13
 323 1094 323 1094 403 1186 c 1,14,15
 417 1171 417 1171 537 1055 c 1,8,9
846 1085 m 1,16,17
 803 1019 803 1019 719 940 c 1,18,19
 623 1014 623 1014 575 1071 c 1,20,21
 623 1116 623 1116 715 1217 c 1,22,-1
 783 1147 l 1,23,-1
 846 1085 l 1,16,17
EndSplineSet
EndChar
StartChar: threedots.small.below
Encoding: 65836 -1 689
Width: 1024
GlyphClass: 2
Flags: W
LayerCount: 2
Fore
SplineSet
516 -399 m 1,0,1
 465 -472 465 -472 387 -545 c 1,2,3
 299 -476 299 -476 244 -414 c 1,4,5
 293 -368 293 -368 383 -268 c 1,6,-1
 516 -399 l 1,0,1
825 -367 m 1,7,8
 779 -437 779 -437 698 -516 c 1,9,10
 605 -445 605 -445 555 -381 c 1,11,12
 592 -347 592 -347 629 -307 c 128,-1,13
 666 -267 666 -267 694 -238 c 1,14,15
 737 -285 737 -285 825 -367 c 1,7,8
684 -612 m 1,16,17
 594 -709 594 -709 561 -731 c 1,18,19
 482 -682 482 -682 424 -612 c 1,20,21
 486 -557 486 -557 553 -479 c 1,22,23
 599 -542 599 -542 684 -612 c 1,16,17
EndSplineSet
EndChar
StartChar: twodots.above
Encoding: 65546 -1 62
Width: 1024
GlyphClass: 2
Flags: W
LayerCount: 2
Fore
SplineSet
471 1020 m 1,0,1
 410 926 410 926 287 809 c 1,2,3
 158 911 158 911 82 999 c 1,4,5
 136 1049 136 1049 189 1106 c 128,-1,6
 242 1163 242 1163 283 1206 c 1,7,8
 354 1129 354 1129 471 1020 c 1,0,1
872 1065 m 1,9,10
 807 966 807 966 690 854 c 1,11,12
 560 955 560 955 485 1042 c 1,13,14
 577 1128 577 1128 684 1251 c 1,15,16
 761 1171 761 1171 872 1065 c 1,9,10
EndSplineSet
EndChar
StartChar: twodots.below
Encoding: 65555 -1 122
Width: 1024
GlyphClass: 2
Flags: W
LayerCount: 2
Fore
SplineSet
430 -422 m 1,0,1
 369 -516 369 -516 246 -633 c 1,2,3
 115 -529 115 -529 41 -442 c 1,4,5
 57 -428 57 -428 72.5 -413 c 128,-1,6
 88 -398 88 -398 242 -236 c 1,7,8
 313 -313 313 -313 430 -422 c 1,0,1
831 -377 m 1,9,10
 766 -476 766 -476 649 -588 c 1,11,12
 522 -489 522 -489 444 -399 c 1,13,14
 494 -355 494 -355 551.5 -293 c 128,-1,15
 609 -231 609 -231 643 -190 c 1,16,17
 683 -233 683 -233 831 -377 c 1,9,10
EndSplineSet
EndChar
StartChar: twodots.small.above
Encoding: 65829 -1 682
Width: 1024
GlyphClass: 2
Flags: W
LayerCount: 2
Fore
SplineSet
473 1022 m 1,0,1
 414 942 414 942 344 874 c 1,2,3
 264 936 264 936 201 1008 c 1,4,-1
 275 1084 l 1,5,-1
 340 1153 l 1,6,-1
 473 1022 l 1,0,1
754 1055 m 1,7,8
 703 981 703 981 627 907 c 1,9,10
 535 976 535 976 483 1038 c 1,11,12
 544 1096 544 1096 623 1186 c 1,13,14
 664 1139 664 1139 754 1055 c 1,7,8
EndSplineSet
EndChar
StartChar: twodots.small.below
Encoding: 65830 -1 683
Width: 1024
GlyphClass: 2
Flags: W
LayerCount: 2
Fore
SplineSet
432 -420 m 1,0,1
 384 -488 384 -488 303 -567 c 1,2,3
 221 -502 221 -502 160 -434 c 1,4,-1
 234 -358 l 1,5,-1
 299 -289 l 1,6,-1
 432 -420 l 1,0,1
713 -387 m 1,7,8
 662 -461 662 -461 586 -535 c 1,9,10
 488 -460 488 -460 442 -403 c 1,11,12
 501 -349 501 -349 582 -256 c 1,13,14
 623 -303 623 -303 713 -387 c 1,7,8
EndSplineSet
EndChar
StartChar: twodots.vert.above
Encoding: 65831 -1 684
Width: 547
GlyphClass: 2
Flags: W
LayerCount: 2
Fore
SplineSet
471 1020 m 1,0,1
 410 926 410 926 287 809 c 1,2,3
 158 911 158 911 82 999 c 1,4,5
 136 1049 136 1049 189 1106 c 128,-1,6
 242 1163 242 1163 283 1206 c 1,7,8
 354 1129 354 1129 471 1020 c 1,0,1
412 1432 m 1,9,10
 349 1336 349 1336 229 1221 c 1,11,12
 97 1324 97 1324 25 1409 c 1,13,14
 112 1490 112 1490 223 1618 c 1,15,16
 276 1562 276 1562 412 1432 c 1,9,10
EndSplineSet
EndChar
StartChar: twodots.vert.below
Encoding: 65832 -1 685
Width: 553
GlyphClass: 2
Flags: W
LayerCount: 2
Fore
SplineSet
481 -811 m 1,0,1
 420 -905 420 -905 297 -1022 c 1,2,3
 166 -918 166 -918 92 -831 c 1,4,5
 162 -769 162 -769 250 -672 c 2,6,-1
 293 -625 l 1,7,8
 364 -702 364 -702 481 -811 c 1,0,1
422 -399 m 1,9,10
 357 -498 357 -498 240 -610 c 1,11,12
 105 -505 105 -505 35 -422 c 1,13,14
 122 -341 122 -341 233 -213 c 1,15,16
 286 -269 286 -269 422 -399 c 1,9,10
EndSplineSet
EndChar
StartChar: twodots.vert.small.above
Encoding: 65833 -1 686
Width: 547
GlyphClass: 2
Flags: W
LayerCount: 2
Fore
SplineSet
403 1077 m 1,0,1
 355 1009 355 1009 274 930 c 1,2,3
 198 989 198 989 131 1063 c 1,4,5
 205 1131 205 1131 272 1208 c 1,6,7
 307 1170 307 1170 403 1077 c 1,0,1
362 1366 m 1,8,9
 307 1285 307 1285 236 1219 c 1,10,11
 144 1288 144 1288 92 1350 c 1,12,13
 166 1420 166 1420 231 1497 c 1,14,-1
 362 1366 l 1,8,9
EndSplineSet
EndChar
StartChar: uni066E.fina
Encoding: 65539 -1 54
Width: 2050
GlyphClass: 2
Flags: W
AnchorPoint: "Anchor-1" 960 -160 basechar 0
AnchorPoint: "Anchor-0" 1000 1000 basechar 0
LayerCount: 2
Fore
SplineSet
834 -41 m 0,0,1
 534 -41 534 -41 390 91.5 c 128,-1,2
 246 224 246 224 246 473 c 0,3,4
 246 530 246 530 262 609.5 c 128,-1,5
 278 689 278 689 293 737 c 1,6,-1
 401 737 l 1,7,-1
 398 711 l 1,8,-1
 393 618 l 1,9,10
 393 476 393 476 450 397.5 c 128,-1,11
 507 319 507 319 623.5 282.5 c 128,-1,12
 740 246 740 246 922 246 c 0,13,14
 1179 246 1179 246 1360.5 277 c 128,-1,15
 1542 308 1542 308 1610 362 c 1,16,17
 1633 382 1633 382 1650.5 408 c 128,-1,18
 1668 434 1668 434 1698 498 c 0,19,20
 1732 572 1732 572 1759.5 590 c 128,-1,21
 1787 608 1787 608 1826 610 c 1,22,23
 1886 610 1886 610 1923 575 c 1,24,-1
 1867 445 l 1,25,-1
 1815 330 l 1,26,27
 1934 266 1934 266 2071 266 c 0,28,29
 2091 266 2091 266 2091 246 c 2,30,-1
 2091 0 l 2,31,32
 2091 -20 2091 -20 2071 -20 c 0,33,34
 1877 -20 1877 -20 1702 164 c 1,35,36
 1634 105 1634 105 1510.5 59.5 c 128,-1,37
 1387 14 1387 14 1216 -13.5 c 128,-1,38
 1045 -41 1045 -41 834 -41 c 0,0,1
EndSplineSet
EndChar
StartChar: uni066E.init
Encoding: 65550 -1 114
Width: 664
GlyphClass: 2
Flags: W
AnchorPoint: "Anchor-1" 300 -434 basechar 0
AnchorPoint: "Anchor-0" 230 1364 basechar 0
LayerCount: 2
Fore
SplineSet
0 -20 m 0,0,1
 -20 -20 -20 -20 -20 0 c 2,2,-1
 -20 246 l 2,3,4
 -20 266 -20 266 0 266 c 0,5,6
 117 266 117 266 237 284.5 c 128,-1,7
 357 303 357 303 430 334 c 1,8,9
 398 404 398 404 366 461 c 128,-1,10
 334 518 334 518 308.5 564.5 c 128,-1,11
 283 611 283 611 267.5 649 c 128,-1,12
 252 687 252 687 252 719 c 0,13,14
 252 778 252 778 318 849.5 c 128,-1,15
 384 921 384 921 471 963 c 1,16,-1
 502 806 l 1,17,18
 571 480 571 480 571 403 c 0,19,20
 571 301 571 301 477 113 c 1,21,22
 254 -20 254 -20 0 -20 c 0,0,1
EndSplineSet
Colour: ffff00
EndChar
StartChar: uni066E.medi
Encoding: 65551 -1 115
Width: 705
GlyphClass: 2
Flags: W
AnchorPoint: "Anchor-1" 340 -160 basechar 0
AnchorPoint: "Anchor-0" 400 800 basechar 0
LayerCount: 2
Fore
SplineSet
0 -20 m 0,0,1
 -20 -20 -20 -20 -20 0 c 2,2,-1
 -20 246 l 2,3,4
 -20 266 -20 266 0 266 c 0,5,6
 154 266 154 266 236 322 c 0,7,8
 270 345 270 345 311 426 c 0,9,10
 375 551 375 551 391 571 c 128,-1,11
 407 591 407 591 431 600.5 c 128,-1,12
 455 610 455 610 481 610 c 0,13,14
 541 610 541 610 578 575 c 1,15,16
 488 363 488 363 471 328 c 1,17,18
 588 266 588 266 725 266 c 0,19,20
 745 266 745 266 745 246 c 2,21,-1
 745 0 l 2,22,23
 745 -20 745 -20 725 -20 c 0,24,25
 542 -20 542 -20 377 145 c 1,26,27
 359 116 359 116 330.5 79.5 c 128,-1,28
 302 43 302 43 252 21.5 c 128,-1,29
 202 0 202 0 138.5 -10 c 128,-1,30
 75 -20 75 -20 0 -20 c 0,0,1
EndSplineSet
EndChar
StartChar: uni066F.fina
Encoding: 65544 -1 60
Width: 1524
GlyphClass: 2
Flags: W
AnchorPoint: "Anchor-1" 740 -840 basechar 0
AnchorPoint: "Anchor-0" 900 1060 basechar 0
LayerCount: 2
Fore
SplineSet
985 891 m 0,0,1
 1078 891 1078 891 1165 812.5 c 128,-1,2
 1252 734 1252 734 1316.5 590.5 c 128,-1,3
 1381 447 1381 447 1409 266 c 1,4,-1
 1544 266 l 2,5,6
 1565 266 1565 266 1565 246 c 2,7,-1
 1565 0 l 2,8,9
 1565 -20 1565 -20 1544 -20 c 2,10,-1
 1425 -20 l 1,11,12
 1414 -164 1414 -164 1347 -284.5 c 128,-1,13
 1280 -405 1280 -405 1164.5 -496 c 128,-1,14
 1049 -587 1049 -587 896 -641.5 c 128,-1,15
 743 -696 743 -696 606 -696 c 0,16,17
 390 -696 390 -696 277 -569.5 c 128,-1,18
 164 -443 164 -443 164 -201 c 0,19,20
 164 -76 164 -76 223 147 c 1,21,-1
 330 121 l 1,22,23
 297 10 297 10 297 -70 c 0,24,25
 297 -237 297 -237 381 -323.5 c 128,-1,26
 465 -410 465 -410 633 -410 c 0,27,28
 945 -410 945 -410 1268 -164 c 1,29,30
 1260 -68 1260 -68 1253 -16 c 1,31,32
 986 -9 986 -9 867.5 26 c 128,-1,33
 749 61 749 61 692 139 c 128,-1,34
 635 217 635 217 635 342 c 0,35,36
 635 480 635 480 687.5 609 c 128,-1,37
 740 738 740 738 821 814.5 c 128,-1,38
 902 891 902 891 985 891 c 0,0,1
1196 268 m 1,39,40
 1148 428 1148 428 1080.5 516 c 128,-1,41
 1013 604 1013 604 932 604 c 0,42,43
 862 604 862 604 812 555.5 c 128,-1,44
 762 507 762 507 762 446 c 0,45,46
 762 393 762 393 804 353.5 c 128,-1,47
 846 314 846 314 927.5 294 c 128,-1,48
 1009 274 1009 274 1196 268 c 1,39,40
EndSplineSet
EndChar
StartChar: uni066F.init
Encoding: 65540 -1 55
Width: 1012
GlyphClass: 2
Flags: W
AnchorPoint: "Anchor-1" 460 -160 basechar 0
AnchorPoint: "Anchor-0" 430 1380 basechar 0
LayerCount: 2
Fore
SplineSet
784 395 m 1,0,1
 757 497 757 497 739 543 c 1,2,3
 670 492 670 492 585 461 c 128,-1,4
 500 430 500 430 410 430 c 0,5,6
 323 430 323 430 261 465.5 c 128,-1,7
 199 501 199 501 166 564.5 c 128,-1,8
 133 628 133 628 133 711 c 0,9,10
 133 836 133 836 180 955.5 c 128,-1,11
 227 1075 227 1075 304 1146 c 128,-1,12
 381 1217 381 1217 463 1217 c 0,13,14
 578 1217 578 1217 684.5 1102 c 128,-1,15
 791 987 791 987 849 802 c 128,-1,16
 907 617 907 617 907 399 c 0,17,18
 907 322 907 322 823 154 c 1,19,20
 679 64 679 64 489.5 22 c 128,-1,21
 300 -20 300 -20 2 -20 c 0,22,23
 -20 -20 -20 -20 -20 2 c 2,24,-1
 -20 244 l 2,25,26
 -20 266 -20 266 2 266 c 0,27,28
 273 266 273 266 456.5 298.5 c 128,-1,29
 640 331 640 331 784 395 c 1,0,1
457 633 m 0,30,31
 553 633 553 633 686 678 c 1,32,33
 623 810 623 810 552 869 c 128,-1,34
 481 928 481 928 414 928 c 0,35,36
 355 928 355 928 306.5 882 c 128,-1,37
 258 836 258 836 258 772 c 0,38,39
 258 715 258 715 316 674 c 128,-1,40
 374 633 374 633 457 633 c 0,30,31
EndSplineSet
EndChar
StartChar: uni066F.medi
Encoding: 65541 -1 56
Width: 993
GlyphClass: 2
Flags: W
AnchorPoint: "Anchor-1" 460 -160 basechar 0
AnchorPoint: "Anchor-0" 430 1080 basechar 0
LayerCount: 2
Fore
SplineSet
2 266 m 2,0,-1
 113 265 l 1,1,-1
 170 266 l 1,2,3
 135 322 135 322 135 379 c 0,4,5
 135 427 135 427 148 513 c 128,-1,6
 161 599 161 599 178 631 c 1,7,8
 249 756 249 756 361 840 c 128,-1,9
 473 924 473 924 582 924 c 0,10,11
 647 924 647 924 712 853 c 128,-1,12
 777 782 777 782 819.5 667.5 c 128,-1,13
 862 553 862 553 862 449 c 0,14,15
 862 357 862 357 809 268 c 1,16,-1
 911 266 l 1,17,-1
 1014 266 l 2,18,19
 1034 266 1034 266 1034 246 c 2,20,-1
 1034 0 l 2,21,22
 1034 -20 1034 -20 1014 -20 c 0,23,24
 703 -20 703 -20 498 59 c 1,25,26
 321 -20 321 -20 2 -20 c 0,27,28
 -20 -20 -20 -20 -20 2 c 2,29,-1
 -20 244 l 2,30,31
 -20 266 -20 266 2 266 c 2,0,-1
266 401 m 1,32,33
 350 302 350 302 492 258 c 1,34,35
 638 298 638 298 727 375 c 1,36,37
 701 470 701 470 648.5 548.5 c 128,-1,38
 596 627 596 627 557 627 c 0,39,40
 486 627 486 627 414 567 c 128,-1,41
 342 507 342 507 266 401 c 1,32,33
EndSplineSet
EndChar
StartChar: uni06A1.fina
Encoding: 65543 -1 58
Width: 1991
GlyphClass: 2
Flags: W
AnchorPoint: "Anchor-1" 1460 -160 basechar 0
AnchorPoint: "Anchor-0" 1460 1100 basechar 0
LayerCount: 2
Fore
SplineSet
739 -41 m 0,0,1
 452 -41 452 -41 302 89.5 c 128,-1,2
 152 220 152 220 152 473 c 0,3,4
 152 523 152 523 166.5 601.5 c 128,-1,5
 181 680 181 680 199 737 c 1,6,-1
 307 737 l 1,7,-1
 304 711 l 1,8,-1
 299 618 l 1,9,10
 299 477 299 477 355 398 c 128,-1,11
 411 319 411 319 529 281.5 c 128,-1,12
 647 244 647 244 827 244 c 0,13,14
 1014 244 1014 244 1176 260 c 1,15,16
 1133 322 1133 322 1133 379 c 0,17,18
 1133 440 1133 440 1146.5 520.5 c 128,-1,19
 1160 601 1160 601 1176 631 c 0,20,21
 1243 753 1243 753 1356.5 838.5 c 128,-1,22
 1470 924 1470 924 1579 924 c 0,23,24
 1643 924 1643 924 1709 853.5 c 128,-1,25
 1775 783 1775 783 1817.5 667.5 c 128,-1,26
 1860 552 1860 552 1860 449 c 0,27,28
 1860 363 1860 363 1788 268 c 1,29,-1
 1898 266 l 1,30,-1
 2011 266 l 2,31,32
 2032 266 2032 266 2032 246 c 2,33,-1
 2032 0 l 2,34,35
 2032 -20 2032 -20 2011 -20 c 0,36,37
 1685 -20 1685 -20 1481 63 c 1,38,39
 1337 14 1337 14 1132.5 -13.5 c 128,-1,40
 928 -41 928 -41 739 -41 c 0,0,1
1264 401 m 1,41,42
 1346 302 1346 302 1489 258 c 1,43,44
 1635 298 1635 298 1724 375 c 1,45,46
 1697 474 1697 474 1645.5 550.5 c 128,-1,47
 1594 627 1594 627 1554 627 c 0,48,49
 1424 627 1424 627 1264 401 c 1,41,42
EndSplineSet
EndChar
StartChar: uni06AA.medi
Encoding: 65669 -1 422
Width: 2261
GlyphClass: 2
Flags: W
AnchorPoint: "Anchor-1" 800 -160 basechar 0
AnchorPoint: "Anchor-0" 620 1480 basechar 0
LayerCount: 2
Fore
SplineSet
2281 -20 m 0,0,1
 2200 -20 2200 -20 2116 7 c 128,-1,2
 2032 34 2032 34 1966 82 c 1,3,4
 1688 41 1688 41 1082.5 10.5 c 128,-1,5
 477 -20 477 -20 0 -20 c 0,6,7
 -20 -20 -20 -20 -20 0 c 2,8,-1
 -20 246 l 2,9,10
 -20 266 -20 266 0 266 c 0,11,12
 531 266 531 266 1085 286.5 c 128,-1,13
 1639 307 1639 307 1909 338 c 1,14,15
 1867 419 1867 419 1796.5 447 c 128,-1,16
 1726 475 1726 475 1589 475 c 0,17,18
 1443 475 1443 475 1095 456 c 0,19,20
 747 436 747 436 578 436 c 0,21,22
 406 436 406 436 329 510 c 128,-1,23
 252 584 252 584 252 741 c 0,24,25
 252 830 252 830 302.5 925 c 128,-1,26
 353 1020 353 1020 454.5 1110.5 c 128,-1,27
 556 1201 556 1201 705.5 1275 c 128,-1,28
 855 1349 855 1349 971 1376 c 1,29,30
 984 1315 984 1315 984 1260 c 0,31,32
 983 1175 983 1175 948 1114 c 128,-1,33
 913 1053 913 1053 850 1028 c 2,34,-1
 775 999 l 1,35,36
 554 915 554 915 465.5 866 c 128,-1,37
 377 817 377 817 377 784 c 0,38,39
 377 753 377 753 456.5 729 c 128,-1,40
 536 705 536 705 621 705 c 0,41,42
 755 705 755 705 1098 721 c 0,43,44
 1484 739 1484 739 1590 739 c 0,45,46
 1712 739 1712 739 1811.5 689 c 128,-1,47
 1911 639 1911 639 1969 546 c 128,-1,48
 2027 453 2027 453 2036 326 c 1,49,50
 2141 266 2141 266 2281 266 c 0,51,52
 2302 266 2302 266 2302 246 c 2,53,-1
 2302 0 l 2,54,55
 2302 -20 2302 -20 2281 -20 c 0,0,1
EndSplineSet
EndChar
StartChar: uni06AC.fina
Encoding: 65673 -1 428
Width: 1794
GlyphClass: 2
Flags: W
AnchorPoint: "Anchor-1" 800 -160 basechar 0
AnchorPoint: "Anchor-0" 780 1600 basechar 0
LayerCount: 2
Fore
SplineSet
813 246 m 0,0,1
 986 246 986 246 1129 261.5 c 128,-1,2
 1272 277 1272 277 1427 311 c 1,3,4
 1355 780 1355 780 1284 1479 c 1,5,-1
 1571 1638 l 1,6,7
 1550 714 1550 714 1550 334 c 1,8,9
 1602 299 1602 299 1663 282.5 c 128,-1,10
 1724 266 1724 266 1815 266 c 0,11,12
 1835 266 1835 266 1835 246 c 2,13,-1
 1835 0 l 2,14,15
 1835 -20 1835 -20 1815 -20 c 0,16,17
 1564 -20 1564 -20 1481 109 c 1,18,19
 1237 23 1237 23 1071.5 -9 c 128,-1,20
 906 -41 906 -41 762 -41 c 0,21,22
 528 -41 528 -41 406.5 -2.5 c 128,-1,23
 285 36 285 36 224.5 120.5 c 128,-1,24
 164 205 164 205 164 346 c 0,25,26
 164 395 164 395 175.5 477.5 c 128,-1,27
 187 560 187 560 197 600 c 1,28,-1
 305 596 l 1,29,30
 297 543 297 543 297 506 c 0,31,32
 297 404 297 404 345.5 349 c 128,-1,33
 394 294 394 294 500 270 c 128,-1,34
 606 246 606 246 813 246 c 0,0,1
1014 1317 m 1,35,36
 941 1209 941 1209 815 1091 c 1,37,38
 665 1215 665 1215 596 1294 c 1,39,40
 741 1439 741 1439 811 1519 c 1,41,42
 894 1425 894 1425 1014 1317 c 1,35,36
953 865 m 1,43,-1
 954 875 l 1,44,45
 954 889 954 889 945.5 899.5 c 128,-1,46
 937 910 937 910 920 910 c 0,47,48
 853 910 853 910 803 815 c 1,49,50
 857 766 857 766 945 766 c 0,51,52
 1004 766 1004 766 1086 785 c 1,53,-1
 1074 633 l 1,54,55
 920 591 920 591 841 559.5 c 128,-1,56
 762 528 762 528 684 486 c 1,57,-1
 678 623 l 1,58,59
 737 664 737 664 783 686 c 1,60,61
 731 712 731 712 710 741.5 c 128,-1,62
 689 771 689 771 689 811 c 0,63,64
 689 873 689 873 723 929.5 c 128,-1,65
 757 986 757 986 812.5 1021.5 c 128,-1,66
 868 1057 868 1057 920 1057 c 0,67,68
 974 1057 974 1057 1004.5 1023 c 128,-1,69
 1035 989 1035 989 1035 938 c 0,70,71
 1035 915 1035 915 1026.5 890 c 128,-1,72
 1018 865 1018 865 1010 852 c 1,73,-1
 953 865 l 1,43,-1
EndSplineSet
EndChar
StartChar: uni06AD.fina
Encoding: 65676 -1 432
Width: 1794
GlyphClass: 2
Flags: W
AnchorPoint: "Anchor-1" 800 -160 basechar 0
AnchorPoint: "Anchor-0" 714 1860 basechar 0
LayerCount: 2
Fore
SplineSet
813 246 m 0,0,1
 986 246 986 246 1129 261.5 c 128,-1,2
 1272 277 1272 277 1427 311 c 1,3,4
 1355 780 1355 780 1284 1479 c 1,5,-1
 1571 1638 l 1,6,7
 1550 714 1550 714 1550 334 c 1,8,9
 1602 299 1602 299 1663 282.5 c 128,-1,10
 1724 266 1724 266 1815 266 c 0,11,12
 1835 266 1835 266 1835 246 c 2,13,-1
 1835 0 l 2,14,15
 1835 -20 1835 -20 1815 -20 c 0,16,17
 1564 -20 1564 -20 1481 109 c 1,18,19
 1237 23 1237 23 1071.5 -9 c 128,-1,20
 906 -41 906 -41 762 -41 c 0,21,22
 528 -41 528 -41 406.5 -2.5 c 128,-1,23
 285 36 285 36 224.5 120.5 c 128,-1,24
 164 205 164 205 164 346 c 0,25,26
 164 395 164 395 175.5 477.5 c 128,-1,27
 187 560 187 560 197 600 c 1,28,-1
 305 596 l 1,29,30
 297 543 297 543 297 506 c 0,31,32
 297 404 297 404 345.5 349 c 128,-1,33
 394 294 394 294 500 270 c 128,-1,34
 606 246 606 246 813 246 c 0,0,1
932 1606 m 1,35,36
 816 1476 816 1476 754 1436 c 1,37,38
 711 1463 711 1463 655 1510.5 c 128,-1,39
 599 1558 599 1558 559 1606 c 1,40,41
 658 1694 658 1694 744 1794 c 1,42,43
 814 1703 814 1703 932 1606 c 1,35,36
727 1313 m 1,44,45
 658 1212 658 1212 543 1104 c 1,46,47
 413 1207 413 1207 338 1292 c 1,48,49
 417 1365 417 1365 496 1452 c 2,50,-1
 539 1499 l 1,51,52
 602 1430 602 1430 727 1313 c 1,44,45
1170 1358 m 1,53,54
 1100 1254 1100 1254 987 1149 c 1,55,56
 855 1252 855 1252 783 1337 c 1,57,58
 849 1398 849 1398 981 1544 c 1,59,60
 1034 1488 1034 1488 1170 1358 c 1,53,54
953 865 m 1,61,-1
 954 875 l 1,62,63
 954 889 954 889 945.5 899.5 c 128,-1,64
 937 910 937 910 920 910 c 0,65,66
 853 910 853 910 803 815 c 1,67,68
 857 766 857 766 945 766 c 0,69,70
 1004 766 1004 766 1086 785 c 1,71,-1
 1074 633 l 1,72,73
 920 591 920 591 841 559.5 c 128,-1,74
 762 528 762 528 684 486 c 1,75,-1
 678 623 l 1,76,77
 737 664 737 664 783 686 c 1,78,79
 731 712 731 712 710 741.5 c 128,-1,80
 689 771 689 771 689 811 c 0,81,82
 689 873 689 873 723 929.5 c 128,-1,83
 757 986 757 986 812.5 1021.5 c 128,-1,84
 868 1057 868 1057 920 1057 c 0,85,86
 974 1057 974 1057 1004.5 1023 c 128,-1,87
 1035 989 1035 989 1035 938 c 0,88,89
 1035 915 1035 915 1026.5 890 c 128,-1,90
 1018 865 1018 865 1010 852 c 1,91,-1
 953 865 l 1,61,-1
EndSplineSet
EndChar
StartChar: uni06B8.init
Encoding: 65707 -1 473
Width: 872
GlyphClass: 2
Flags: W
AnchorPoint: "Anchor-1" 420 -900 basechar 0
AnchorPoint: "Anchor-0" 520 1680 basechar 0
LayerCount: 2
Fore
SplineSet
575 322 m 1,0,1
 537 612 537 612 486.5 889.5 c 128,-1,2
 436 1167 436 1167 387 1438 c 1,3,-1
 674 1597 l 1,4,5
 682 1199 682 1199 692 891 c 128,-1,6
 702 583 702 583 702 362 c 0,7,8
 702 282 702 282 680 207.5 c 128,-1,9
 658 133 658 133 608 55 c 1,10,11
 585 21 585 21 432 0.5 c 128,-1,12
 279 -20 279 -20 14 -20 c 0,13,14
 -6 -20 -6 -20 -6 0 c 2,15,-1
 -6 246 l 2,16,17
 -6 266 -6 266 14 266 c 0,18,19
 249 266 249 266 372.5 280 c 128,-1,20
 496 294 496 294 575 322 c 1,0,1
369 -380 m 1,21,22
 306 -475 306 -475 185 -589 c 1,23,24
 55 -486 55 -486 -20 -401 c 1,25,26
 53 -334 53 -334 137 -241 c 2,27,-1
 180 -194 l 1,28,29
 251 -272 251 -272 369 -380 c 1,21,22
811 -335 m 1,30,31
 746 -434 746 -434 629 -546 c 1,32,33
 496 -442 496 -442 424 -356 c 1,34,35
 496 -289 496 -289 623 -149 c 1,36,37
 675 -205 675 -205 811 -335 c 1,30,31
611 -686 m 1,38,39
 484 -821 484 -821 432 -856 c 1,40,41
 326 -787 326 -787 238 -686 c 1,42,43
 340 -590 340 -590 422 -495 c 1,44,45
 457 -542 457 -542 510.5 -596 c 128,-1,46
 564 -650 564 -650 611 -686 c 1,38,39
EndSplineSet
EndChar
StartChar: uni06CD.fina
Encoding: 65721 -1 495
Width: 2007
GlyphClass: 2
Flags: W
AnchorPoint: "Anchor-1" 980 -820 basechar 0
AnchorPoint: "Anchor-0" 800 400 basechar 0
LayerCount: 2
Fore
SplineSet
1032 -696 m 0,0,1
 775 -696 775 -696 639.5 -568 c 128,-1,2
 504 -440 504 -440 504 -201 c 2,3,-1
 504 -166 l 1,4,-1
 506 -135 l 1,5,6
 303 -236 303 -236 199 -295 c 1,7,8
 166 -244 166 -244 166 -172 c 0,9,10
 166 -78 166 -78 231 -35 c 0,11,12
 436 101 436 101 592 178 c 1,13,-1
 690 129 l 1,14,15
 673 85 673 85 659 20.5 c 128,-1,16
 645 -44 645 -44 645 -88 c 0,17,18
 645 -245 645 -245 751 -327.5 c 128,-1,19
 857 -410 857 -410 1059 -410 c 0,20,21
 1270 -410 1270 -410 1479 -364.5 c 128,-1,22
 1688 -319 1688 -319 1812 -240 c 1,23,24
 1685 -189 1685 -189 1527.5 -92 c 128,-1,25
 1370 5 1370 5 1370 41 c 0,26,27
 1370 66 1370 66 1391 119.5 c 128,-1,28
 1412 173 1412 173 1449.5 239 c 128,-1,29
 1487 305 1487 305 1497 305 c 1,30,31
 1710 266 1710 266 2021 266 c 0,32,33
 2048 266 2048 266 2048 240 c 2,34,-1
 2048 4 l 2,35,36
 2048 -20 2048 -20 2021 -20 c 0,37,38
 1953 -20 1953 -20 1846 -10 c 128,-1,39
 1739 0 1739 0 1655 20 c 1,40,-1
 1729 -16 l 1,41,42
 1829 -61 1829 -61 1866.5 -82.5 c 128,-1,43
 1904 -104 1904 -104 1919.5 -137.5 c 128,-1,44
 1935 -171 1935 -171 1935 -236 c 0,45,46
 1935 -339 1935 -339 1797 -446 c 128,-1,47
 1659 -553 1659 -553 1444 -624.5 c 128,-1,48
 1229 -696 1229 -696 1032 -696 c 0,0,1
EndSplineSet
EndChar
StartChar: uni0750.medi
Encoding: 65751 -1 575
Width: 1176
GlyphClass: 2
Flags: W
AnchorPoint: "Anchor-1" 610 -680 basechar 0
AnchorPoint: "Anchor-0" 710 800 basechar 0
LayerCount: 2
Fore
SplineSet
0 -20 m 0,0,1
 -20 -20 -20 -20 -20 0 c 2,2,-1
 -20 246 l 2,3,4
 -20 266 -20 266 0 266 c 0,5,6
 296 266 296 266 428.5 280.5 c 128,-1,7
 561 295 561 295 604 322 c 0,8,9
 627 336 627 336 646.5 365 c 128,-1,10
 666 394 666 394 715 495 c 0,11,12
 750 568 750 568 779.5 589 c 128,-1,13
 809 610 809 610 850 610 c 0,14,15
 909 610 909 610 946 575 c 1,16,17
 903 465 903 465 842 332 c 1,18,19
 983 266 983 266 1196 266 c 0,20,21
 1217 266 1217 266 1217 246 c 2,22,-1
 1217 0 l 2,23,24
 1217 -20 1217 -20 1196 -20 c 0,25,26
 946 -20 946 -20 748 150 c 1,27,28
 720 100 720 100 690 68 c 1,29,30
 658 31 658 31 439 5.5 c 128,-1,31
 220 -20 220 -20 0 -20 c 0,0,1
798 -422 m 1,32,33
 737 -516 737 -516 614 -633 c 1,34,35
 483 -529 483 -529 409 -442 c 1,36,37
 479 -380 479 -380 567 -283 c 2,38,-1
 610 -236 l 1,39,40
 681 -313 681 -313 798 -422 c 1,32,33
1200 -377 m 1,41,42
 1137 -473 1137 -473 1017 -588 c 1,43,44
 887 -487 887 -487 813 -399 c 1,45,46
 858 -359 858 -359 923.5 -288.5 c 128,-1,47
 989 -218 989 -218 1011 -190 c 1,48,49
 1039 -219 1039 -219 1200 -377 c 1,41,42
397 -473 m 1,50,51
 336 -567 336 -567 213 -684 c 1,52,53
 84 -582 84 -582 8 -494 c 1,54,55
 81 -427 81 -427 165 -334 c 2,56,-1
 208 -287 l 1,57,58
 288 -373 288 -373 397 -473 c 1,50,51
EndSplineSet
EndChar
StartChar: uni075B.fina
Encoding: 65778 -1 613
Width: 952
GlyphClass: 2
Flags: W
AnchorPoint: "Anchor-1" 360 -600 basechar 0
AnchorPoint: "Anchor-0" 400 1060 basechar 0
LayerCount: 2
Fore
SplineSet
172 0 m 1,0,-1
 639 0 l 1,1,2
 666 53 666 53 680 98 c 1,3,4
 659 142 659 142 640 174 c 128,-1,5
 621 206 621 206 549 318 c 0,6,7
 481 422 481 422 448.5 496.5 c 128,-1,8
 416 571 416 571 416 629 c 0,9,10
 416 699 416 699 473 768.5 c 128,-1,11
 530 838 530 838 618 881 c 1,12,13
 641 784 641 784 708 590 c 0,14,15
 770 410 770 410 791 309 c 1,16,17
 870 266 870 266 973 266 c 0,18,19
 993 266 993 266 993 246 c 2,20,-1
 993 0 l 2,21,22
 993 -20 993 -20 973 -20 c 0,23,24
 878 -20 878 -20 795 27 c 1,25,26
 751 -219 751 -219 601 -365.5 c 128,-1,27
 451 -512 451 -512 246 -512 c 0,28,29
 201 -512 201 -512 106 -453.5 c 128,-1,30
 11 -395 11 -395 -82 -315 c 1,31,-1
 -43 -215 l 1,32,33
 86 -248 86 -248 201 -248 c 0,34,35
 418 -248 418 -248 551 -117 c 1,36,-1
 172 -117 l 1,37,-1
 172 0 l 1,0,-1
EndSplineSet
EndChar
StartChar: uni076A.fina
Encoding: 65821 -1 671
Width: 1487
GlyphClass: 2
Flags: W
AnchorPoint: "Anchor-1" 630 -840 basechar 0
AnchorPoint: "Anchor-0" 460 1480 basechar 0
LayerCount: 2
Fore
SplineSet
705 995 m 1,0,-1
 983 995 l 1,1,-1
 934 1305 l 1,2,-1
 930 1352 l 1,3,4
 930 1454 930 1454 1006.5 1525.5 c 128,-1,5
 1083 1597 1083 1597 1190 1597 c 1,6,7
 1220 1486 1220 1486 1235 1439.5 c 128,-1,8
 1250 1393 1250 1393 1286 1300 c 1,9,-1
 1210 1241 l 1,10,-1
 1231 995 l 1,11,-1
 1384 995 l 1,12,-1
 1384 879 l 1,13,-1
 1241 879 l 1,14,15
 1246 824 1246 824 1300 326 c 1,16,17
 1355 288 1355 288 1405 277 c 128,-1,18
 1455 266 1455 266 1507 266 c 0,19,20
 1528 266 1528 266 1528 246 c 2,21,-1
 1528 0 l 2,22,23
 1528 -20 1528 -20 1507 -20 c 0,24,25
 1410 -20 1410 -20 1327 27 c 1,26,-1
 1331 -106 l 1,27,28
 1331 -266 1331 -266 1235 -403 c 128,-1,29
 1139 -540 1139 -540 972.5 -618 c 128,-1,30
 806 -696 806 -696 606 -696 c 0,31,32
 390 -696 390 -696 277 -569.5 c 128,-1,33
 164 -443 164 -443 164 -201 c 0,34,35
 164 -76 164 -76 223 147 c 1,36,-1
 330 121 l 1,37,38
 297 10 297 10 297 -70 c 0,39,40
 297 -243 297 -243 374 -326.5 c 128,-1,41
 451 -410 451 -410 612 -410 c 0,42,43
 809 -410 809 -410 943 -359 c 128,-1,44
 1077 -308 1077 -308 1196 -197 c 1,45,-1
 1140 107 l 1,46,-1
 1075 463 l 1,47,-1
 1004 879 l 1,48,-1
 705 879 l 1,49,-1
 705 995 l 1,0,-1
EndSplineSet
EndChar
StartChar: uni076A.init
Encoding: 65822 -1 672
Width: 524
GlyphClass: 2
Flags: W
AnchorPoint: "Anchor-1" 230 -438 basechar 0
AnchorPoint: "Anchor-0" 230 2015 basechar 0
LayerCount: 2
Fore
SplineSet
-2 1110 m 1,0,-1
 125 1110 l 1,1,-1
 66 1438 l 1,2,-1
 352 1597 l 1,3,-1
 362 1110 l 1,4,-1
 575 1110 l 1,5,-1
 575 993 l 1,6,-1
 367 993 l 1,7,8
 381 552 381 552 381 362 c 0,9,10
 381 282 381 282 359 207.5 c 128,-1,11
 337 133 337 133 287 55 c 1,12,13
 264 21 264 21 188 0.5 c 128,-1,14
 112 -20 112 -20 0 -20 c 0,15,16
 -20 -20 -20 -20 -20 0 c 2,17,-1
 -20 246 l 2,18,19
 -20 266 -20 266 0 266 c 0,20,21
 49 266 49 266 118.5 280.5 c 128,-1,22
 188 295 188 295 254 319 c 1,23,24
 225 536 225 536 145 993 c 1,25,-1
 -2 993 l 1,26,-1
 -2 1110 l 1,0,-1
EndSplineSet
Colour: ffff00
EndChar
StartChar: uni076A.medi
Encoding: 65823 -1 673
Width: 590
GlyphClass: 2
Flags: W
AnchorPoint: "Anchor-1" 300 -160 basechar 0
AnchorPoint: "Anchor-0" 230 1680 basechar 0
LayerCount: 2
Fore
SplineSet
-2 1110 m 1,0,-1
 115 1110 l 1,1,2
 109 1153 109 1153 80 1438 c 1,3,-1
 367 1597 l 1,4,-1
 356 1110 l 1,5,-1
 575 1110 l 1,6,-1
 575 993 l 1,7,-1
 352 993 l 1,8,9
 346 762 346 762 346 334 c 1,10,11
 403 296 403 296 464.5 281 c 128,-1,12
 526 266 526 266 610 266 c 0,13,14
 631 266 631 266 631 246 c 2,15,-1
 631 0 l 2,16,17
 631 -20 631 -20 610 -20 c 0,18,19
 407 -20 407 -20 315 63 c 1,20,21
 230 18 230 18 157.5 -1 c 128,-1,22
 85 -20 85 -20 0 -20 c 0,23,24
 -20 -20 -20 -20 -20 0 c 2,25,-1
 -20 246 l 2,26,27
 -20 266 -20 266 0 266 c 0,28,29
 119 266 119 266 225 311 c 1,30,31
 178 589 178 589 129 993 c 1,32,-1
 -2 993 l 1,33,-1
 -2 1110 l 1,0,-1
EndSplineSet
EndChar
StartChar: uni076A0627.fina
Encoding: 65864 -1 732
Width: 1520
GlyphClass: 3
Flags: W
AnchorPoint: "Anchor-3" 1240 -160 baselig 0
AnchorPoint: "Anchor-2" 1100 1740 baselig 0
AnchorPoint: "Anchor-3" 400 -160 baselig 1
AnchorPoint: "Anchor-2" 160 1500 baselig 1
LayerCount: 2
Fore
SplineSet
793 1157 m 1,0,-1
 999 1157 l 1,1,2
 1008 1299 1008 1299 1008 1436 c 1,3,4
 1063 1468 1063 1468 1132 1515 c 1,5,6
 1200 1560 1200 1560 1264 1597 c 1,7,-1
 1264 1360 l 1,8,-1
 1266 1157 l 1,9,-1
 1337 1157 l 1,10,-1
 1337 1040 l 1,11,-1
 1266 1040 l 1,12,-1
 1274 334 l 1,13,14
 1331 296 1331 296 1393 281 c 128,-1,15
 1455 266 1455 266 1540 266 c 0,16,17
 1561 266 1561 266 1561 246 c 2,18,-1
 1561 0 l 2,19,20
 1561 -20 1561 -20 1540 -20 c 0,21,22
 1381 -20 1381 -20 1286.5 35 c 128,-1,23
 1192 90 1192 90 1174 197 c 0,24,25
 1149 342 1149 342 1127 716 c 1,26,-1
 1112 891 l 1,27,-1
 1100 764 l 2,28,29
 1078 527 1078 527 1047 420 c 0,30,31
 984 208 984 208 905 113.5 c 128,-1,32
 826 19 826 19 707 4 c 1,33,34
 440 -27 440 -27 154 -33 c 1,35,-1
 141 74 l 1,36,37
 373 134 373 134 500 188.5 c 128,-1,38
 627 243 627 243 707 317 c 1,39,40
 546 641 546 641 279 897 c 1,41,-1
 190 897 l 1,42,43
 126 964 126 964 104 1011.5 c 128,-1,44
 82 1059 82 1059 82 1116 c 0,45,46
 82 1187 82 1187 116.5 1228.5 c 128,-1,47
 151 1270 151 1270 238 1298 c 1,48,49
 336 1235 336 1235 438 1105.5 c 128,-1,50
 540 976 540 976 639 786 c 128,-1,51
 738 596 738 596 797 422 c 1,52,53
 950 626 950 626 989 1040 c 1,54,-1
 793 1040 l 1,55,-1
 793 1157 l 1,0,-1
EndSplineSet
Ligature2: "'rlig' Required Ligatures in Arabic lookup 6 subtable" uni076A.medi uni0627.fina
EndChar
StartChar: uni076A0627.isol
Encoding: 65863 -1 731
Width: 1372
GlyphClass: 3
Flags: W
AnchorPoint: "Anchor-3" 1100 -160 baselig 0
AnchorPoint: "Anchor-2" 900 1740 baselig 0
AnchorPoint: "Anchor-3" 400 -160 baselig 1
AnchorPoint: "Anchor-2" 160 1500 baselig 1
LayerCount: 2
Fore
SplineSet
705 1157 m 1,0,-1
 852 1157 l 1,1,-1
 840 1228 l 1,2,3
 811 1383 811 1383 811 1427 c 0,4,5
 811 1519 811 1519 880 1577.5 c 128,-1,6
 949 1636 949 1636 1065 1638 c 1,7,8
 1087 1553 1087 1553 1103 1502 c 128,-1,9
 1119 1451 1119 1451 1161 1341 c 1,10,-1
 1083 1282 l 1,11,-1
 1087 1157 l 1,12,-1
 1249 1157 l 1,13,-1
 1249 1040 l 1,14,-1
 1092 1040 l 1,15,-1
 1092 1010 l 2,16,17
 1092 794 1092 794 979 586 c 1,18,19
 1087 440 1087 440 1119.5 390 c 128,-1,20
 1152 340 1152 340 1173 301.5 c 128,-1,21
 1194 263 1194 263 1194 246 c 0,22,23
 1194 199 1194 199 1153 100.5 c 128,-1,24
 1112 2 1112 2 1098 0 c 0,25,26
 1010 -17 1010 -17 820.5 -29 c 128,-1,27
 631 -41 631 -41 338 -41 c 0,28,29
 332 -41 332 -41 332 -4 c 0,30,31
 332 51 332 51 345.5 138 c 128,-1,32
 359 225 359 225 369 225 c 2,33,-1
 433 224 l 1,34,-1
 467 225 l 1,35,36
 691 403 691 403 784 553 c 1,37,38
 596 741 596 741 313 915 c 1,39,-1
 225 909 l 1,40,41
 82 982 82 982 82 1126 c 0,42,43
 82 1192 82 1192 118.5 1243.5 c 128,-1,44
 155 1295 155 1295 215 1329 c 1,45,46
 350 1233 350 1233 538 1059.5 c 128,-1,47
 726 886 726 886 864 727 c 1,48,49
 887 805 887 805 887 891 c 0,50,51
 887 923 887 923 870 1040 c 1,52,-1
 705 1040 l 1,53,-1
 705 1157 l 1,0,-1
1036 272 m 1,54,-1
 887 446 l 1,55,56
 798 337 798 337 672 233 c 1,57,58
 870 244 870 244 1036 272 c 1,54,-1
EndSplineSet
Ligature2: "'rlig' Required Ligatures in Arabic lookup 6 subtable" uni076A.init uni0627.fina
EndChar
StartChar: wasla
Encoding: 65549 -1 113
Width: 0
GlyphClass: 4
Flags: W
AnchorPoint: "Anchor-4" 80 1680 basemark 0
AnchorPoint: "Anchor-4" 80 1230 mark 0
AnchorPoint: "Anchor-2" 80 1230 mark 0
AnchorPoint: "Anchor-0" 80 1230 mark 0
LayerCount: 2
Fore
SplineSet
172 1237 m 0,0,1
 121 1237 121 1237 73.5 1252.5 c 128,-1,2
 26 1268 26 1268 -43 1303 c 1,3,4
 -95 1277 -95 1277 -135 1237 c 1,5,-1
 -188 1284 l 1,6,7
 -136 1368 -136 1368 -96 1402 c 128,-1,8
 -56 1436 -56 1436 -12 1436 c 0,9,10
 -4 1436 -4 1436 25 1423 c 1,11,12
 129 1587 129 1587 248 1587 c 0,13,14
 298 1587 298 1587 342.5 1530.5 c 128,-1,15
 387 1474 387 1474 387 1405 c 0,16,17
 387 1383 387 1383 381 1349 c 128,-1,18
 375 1315 375 1315 365 1290 c 1,19,20
 320 1259 320 1259 275.5 1248 c 128,-1,21
 231 1237 231 1237 172 1237 c 0,0,1
227 1462 m 0,22,23
 165 1462 165 1462 86 1391 c 1,24,25
 128 1370 128 1370 172 1370 c 0,26,27
 233 1370 233 1370 256 1375 c 128,-1,28
 279 1380 279 1380 319 1397 c 1,29,30
 285 1462 285 1462 227 1462 c 0,22,23
EndSplineSet
EndChar
